<svg width="22" height="22" viewBox="0 0 22 22" fill="none" xmlns="http://www.w3.org/2000/svg">
<path d="M11.015 21.03C10.4837 21.0274 9.97467 20.8159 9.59801 20.4411C9.22134 20.0663 9.00726 19.5584 9.002 19.027H13.008C13.0104 19.2947 12.9597 19.5603 12.8588 19.8082C12.7292 20.1054 12.5309 20.3675 12.2801 20.5729C12.0294 20.7784 11.7334 20.9213 11.4166 20.99H11.3706C11.2535 21.0142 11.1345 21.0276 11.015 21.03ZM19.027 18.0255H3.003V16.0225L5.00601 15.021V9.51277C4.95325 8.09977 5.27234 6.69767 5.9314 5.44667C6.25572 4.87308 6.69798 4.37477 7.22899 3.98462C7.76001 3.59448 8.36771 3.32135 9.01202 3.18327V1H13.018V3.18327C15.6009 3.7982 17.024 6.04557 17.024 9.51277V15.021L19.027 16.0225V18.0255ZM21 9.01202H18.997C18.9509 7.73285 18.6227 6.47967 18.0358 5.34216C17.4488 4.20466 16.6177 3.21095 15.6019 2.43215L17.024 1C18.2219 1.93188 19.1898 3.1263 19.8533 4.49124C20.5393 5.90438 20.9295 7.44274 21 9.01202ZM3.003 9.01202H1C1.07011 7.44266 1.46069 5.90436 2.14672 4.49124C2.81018 3.1263 3.77811 1.93188 4.97596 1L6.3981 2.43215C5.38218 3.21086 4.551 4.20454 3.96406 5.34207C3.37712 6.47959 3.04893 7.73282 3.003 9.01202Z" fill="white"/>
</svg>
