<svg width="26" height="26" viewBox="0 0 26 26" fill="none" xmlns="http://www.w3.org/2000/svg">
<path d="M3 18C3 17.6022 3.15804 17.2206 3.43934 16.9393C3.72064 16.658 4.10218 16.5 4.5 16.5H7.5C7.89782 16.5 8.27936 16.658 8.56066 16.9393C8.84196 17.2206 9 17.6022 9 18V22.5C9 22.8978 8.84196 23.2794 8.56066 23.5607C8.27936 23.842 7.89782 24 7.5 24H4.5C4.10218 24 3.72064 23.842 3.43934 23.5607C3.15804 23.2794 3 22.8978 3 22.5V18ZM10.5 12C10.5 11.6022 10.658 11.2206 10.9393 10.9393C11.2206 10.658 11.6022 10.5 12 10.5H15C15.3978 10.5 15.7794 10.658 16.0607 10.9393C16.342 11.2206 16.5 11.6022 16.5 12V22.5C16.5 22.8978 16.342 23.2794 16.0607 23.5607C15.7794 23.842 15.3978 24 15 24H12C11.6022 24 11.2206 23.842 10.9393 23.5607C10.658 23.2794 10.5 22.8978 10.5 22.5V12ZM18 4.5C18 4.10218 18.158 3.72064 18.4393 3.43934C18.7206 3.15804 19.1022 3 19.5 3H22.5C22.8978 3 23.2794 3.15804 23.5607 3.43934C23.842 3.72064 24 4.10218 24 4.5V22.5C24 22.8978 23.842 23.2794 23.5607 23.5607C23.2794 23.842 22.8978 24 22.5 24H19.5C19.1022 24 18.7206 23.842 18.4393 23.5607C18.158 23.2794 18 22.8978 18 22.5V4.5Z" fill="white"/>
</svg>
