<svg width="12" height="12" viewBox="0 0 12 12" fill="none" xmlns="http://www.w3.org/2000/svg">
<g clip-path="url(#clip0_1_940)">
<path d="M10.1137 1.07325C10.3192 0.865844 10.5984 0.748213 10.8904 0.746063C11.1823 0.743912 11.4632 0.857417 11.6718 1.06177C11.8803 1.26613 11.9994 1.54471 12.0032 1.83665C12.0069 2.12858 11.8949 2.41012 11.6917 2.61975L5.8117 9.9705C5.71069 10.0793 5.58879 10.1665 5.45329 10.2271C5.3178 10.2878 5.17148 10.3204 5.02307 10.3232C4.87466 10.326 4.72722 10.2989 4.58953 10.2434C4.45184 10.188 4.32674 10.1054 4.2217 10.0005L0.323199 6.1035C0.116031 5.89623 -0.000314435 5.61516 -0.000244109 5.32211C-0.000173783 5.02906 0.116307 4.74804 0.323574 4.54087C0.53084 4.33371 0.811915 4.21736 1.10496 4.21743C1.39801 4.2175 1.67903 4.33398 1.8862 4.54125L4.96945 7.62525L10.0844 1.10775C10.0937 1.09589 10.1038 1.08462 10.1144 1.074L10.1137 1.07325Z" fill="white"/>
</g>
<defs>
<clipPath id="clip0_1_940">
<rect width="12" height="12" fill="white"/>
</clipPath>
</defs>
</svg>
