<svg width="26" height="27" viewBox="0 0 26 27" fill="none" xmlns="http://www.w3.org/2000/svg">
<path d="M13 3.00001C10.7123 2.99739 8.47163 3.6495 6.54262 4.87934C4.61361 6.10917 3.07684 7.86535 2.1138 9.94047C1.15076 12.0156 0.801685 14.323 1.10779 16.5901C1.4139 18.8572 2.36241 20.9894 3.8413 22.7348L4.05937 22.9892H21.9406L22.1587 22.7348C23.6376 20.9894 24.5861 18.8572 24.8922 16.5901C25.1983 14.323 24.8492 12.0156 23.8862 9.94047C22.9232 7.86535 21.3864 6.10917 19.4574 4.87934C17.5284 3.6495 15.2877 2.99739 13 3.00001ZM19.2512 9.89083L14.948 14.114C15.168 14.579 15.2165 15.1067 15.085 15.604C14.9534 16.1013 14.6504 16.536 14.2293 16.8315C13.8083 17.1269 13.2963 17.264 12.784 17.2185C12.2716 17.1731 11.7918 16.9479 11.4294 16.5829C11.067 16.2179 10.8453 15.7366 10.8034 15.2239C10.7615 14.7113 10.9022 14.2003 11.2006 13.7813C11.4991 13.3624 11.936 13.0624 12.4341 12.9344C12.9323 12.8064 13.4597 12.8586 13.9231 13.0818L18.219 8.85866L19.2512 9.89083ZM2.53292 14.3757H5.00431V15.8294H2.50384C2.50384 15.546 2.4675 15.2698 2.4675 14.979C2.4675 14.6882 2.48204 14.5792 2.49658 14.3757H2.53292ZM6.0801 7.10688L7.86822 8.89501L6.79971 9.8981L5.00431 8.11725C5.32656 7.74961 5.67387 7.40473 6.04375 7.08508L6.0801 7.10688ZM13.7269 7.02693H12.2731V4.48284H13C13.2689 4.48284 13.5088 4.48284 13.7269 4.51919V7.02693ZM23.5325 14.9863C23.5325 15.2698 23.5325 15.5605 23.4962 15.8367H20.9375V14.383H23.5034C23.518 14.5792 23.5325 14.7827 23.5325 14.9863Z" fill="white"/>
</svg>
