<svg width="24" height="25" viewBox="0 0 24 25" fill="none" xmlns="http://www.w3.org/2000/svg">
<path d="M12 17.2508C11.7447 17.2495 11.4929 17.1906 11.2629 17.0782C11.0328 16.9659 10.8303 16.803 10.67 16.6014L6.46001 11.4261C6.214 11.1146 6.05919 10.7391 6.01323 10.3426C5.96726 9.94614 6.03198 9.54451 6.20001 9.18352C6.33629 8.86978 6.55868 8.60248 6.84063 8.41355C7.12257 8.22461 7.45215 8.12202 7.79001 8.11803H16.21C16.5479 8.12202 16.8774 8.22461 17.1594 8.41355C17.4413 8.60248 17.6637 8.86978 17.8 9.18352C17.968 9.54451 18.0328 9.94614 17.9868 10.3426C17.9408 10.7391 17.786 11.1146 17.54 11.4261L13.33 16.6014C13.1697 16.803 12.9672 16.9659 12.7371 17.0782C12.5071 17.1906 12.2553 17.2495 12 17.2508Z" fill="#5C86A9" fill-opacity="0.56"/>
</svg>
