<svg width="24" height="24" viewBox="0 0 24 24" fill="none" xmlns="http://www.w3.org/2000/svg">
<mask id="mask0_27_2" style="mask-type:luminance" maskUnits="userSpaceOnUse" x="0" y="1" width="24" height="22">
<path d="M24 1H0V22.3333H24V1Z" fill="white"/>
</mask>
<g mask="url(#mask0_27_2)">
<path d="M16.775 4.46665L20.5333 8.22498C20.6917 8.38332 20.6917 8.64165 20.5333 8.79998L11.4333 17.9L7.56667 18.3292C7.05 18.3875 6.6125 17.95 6.67083 17.4333L7.1 13.5667L16.2 4.46665C16.3583 4.30832 16.6167 4.30832 16.775 4.46665ZM23.525 3.51248L21.4917 1.47915C20.8583 0.845817 19.8292 0.845817 19.1917 1.47915L17.7167 2.95415C17.5583 3.11248 17.5583 3.37082 17.7167 3.52915L21.475 7.28748C21.6333 7.44582 21.8917 7.44582 22.05 7.28748L23.525 5.81248C24.1583 5.17498 24.1583 4.14582 23.525 3.51248ZM16 15.425V19.6667H2.66667V6.33332H12.2417C12.375 6.33332 12.5 6.27915 12.5958 6.18748L14.2625 4.52082C14.5792 4.20415 14.3542 3.66665 13.9083 3.66665H2C0.895833 3.66665 0 4.56248 0 5.66665V20.3333C0 21.4375 0.895833 22.3333 2 22.3333H16.6667C17.7708 22.3333 18.6667 21.4375 18.6667 20.3333V13.7583C18.6667 13.3125 18.1292 13.0917 17.8125 13.4042L16.1458 15.0708C16.0542 15.1667 16 15.2917 16 15.425Z" fill="url(#paint0_linear_27_2)"/>
</g>
<defs>
<linearGradient id="paint0_linear_27_2" x1="5.83826e-09" y1="11.6688" x2="23.9879" y2="12.4961" gradientUnits="userSpaceOnUse">
<stop stop-color="#1669AD"/>
<stop offset="1" stop-color="#4484BA"/>
</linearGradient>
</defs>
</svg>
