<svg width="49" height="48" viewBox="0 0 49 48" fill="none" xmlns="http://www.w3.org/2000/svg">
<path d="M48.0718 24C48.0718 36.9811 37.6022 47.5 24.6927 47.5C11.7832 47.5 1.3136 36.9811 1.3136 24C1.3136 11.0189 11.7832 0.5 24.6927 0.5C37.6022 0.5 48.0718 11.0189 48.0718 24Z" fill="#FFFCFC" stroke="#1A6BAF"/>
<path fill-rule="evenodd" clip-rule="evenodd" d="M19.4 12.8C18.6574 12.8 17.9452 13.095 17.4201 13.6201C16.895 14.1452 16.6 14.8574 16.6 15.6V32.4C16.6 33.1426 16.895 33.8548 17.4201 34.3799C17.9452 34.905 18.6574 35.2 19.4 35.2H30.6C31.3426 35.2 32.0548 34.905 32.5799 34.3799C33.105 33.8548 33.4 33.1426 33.4 32.4V20.3796C33.3998 19.6371 33.1047 18.925 32.5796 18.4L27.8 13.6204C27.275 13.0953 26.563 12.8002 25.8204 12.8H19.4ZM22.2 26.8C22.2 26.4287 22.0525 26.0726 21.79 25.81C21.5274 25.5475 21.1713 25.4 20.8 25.4C20.4287 25.4 20.0726 25.5475 19.8101 25.81C19.5475 26.0726 19.4 26.4287 19.4 26.8V31C19.4 31.3713 19.5475 31.7274 19.8101 31.9899C20.0726 32.2525 20.4287 32.4 20.8 32.4C21.1713 32.4 21.5274 32.2525 21.79 31.9899C22.0525 31.7274 22.2 31.3713 22.2 31V26.8ZM25 22.6C25.3713 22.6 25.7274 22.7475 25.99 23.01C26.2525 23.2726 26.4 23.6287 26.4 24V31C26.4 31.3713 26.2525 31.7274 25.99 31.9899C25.7274 32.2525 25.3713 32.4 25 32.4C24.6287 32.4 24.2726 32.2525 24.0101 31.9899C23.7475 31.7274 23.6 31.3713 23.6 31V24C23.6 23.6287 23.7475 23.2726 24.0101 23.01C24.2726 22.7475 24.6287 22.6 25 22.6V22.6ZM30.6 21.2C30.6 20.8287 30.4525 20.4726 30.19 20.21C29.9274 19.9475 29.5713 19.8 29.2 19.8C28.8287 19.8 28.4726 19.9475 28.2101 20.21C27.9475 20.4726 27.8 20.8287 27.8 21.2V31C27.8 31.3713 27.9475 31.7274 28.2101 31.9899C28.4726 32.2525 28.8287 32.4 29.2 32.4C29.5713 32.4 29.9274 32.2525 30.19 31.9899C30.4525 31.7274 30.6 31.3713 30.6 31V21.2Z" fill="#1A6BAF"/>
</svg>
