<svg width="190" height="42" viewBox="0 0 190 42" fill="none" xmlns="http://www.w3.org/2000/svg">
<path d="M40.5 21C40.5 32.0457 31.5457 41 20.5 41C9.4543 41 0.5 32.0457 0.5 21C0.5 9.9543 9.4543 1 20.5 1C31.5457 1 40.5 9.9543 40.5 21ZM7.56405 21C7.56405 28.1443 13.3557 33.936 20.5 33.936C27.6443 33.936 33.436 28.1443 33.436 21C33.436 13.8557 27.6443 8.06405 20.5 8.06405C13.3557 8.06405 7.56405 13.8557 7.56405 21Z" fill="url(#paint0_linear_1_238)"/>
<path d="M73.096 11.54V31H69.904V17.672L63.968 31H61.756L55.792 17.672V31H52.6V11.54H56.044L62.876 26.8L69.68 11.54H73.096ZM91.7114 11.54L85.2714 23.944V31H82.0794V23.944L75.6114 11.54H79.1674L83.6754 21.088L88.1834 11.54H91.7114ZM114.09 11.54V14.144H108.91V31H105.718V14.144H100.51V11.54H114.09ZM132.863 11.54V31H129.671V22.488H120.515V31H117.323V11.54H120.515V19.884H129.671V11.54H132.863ZM140.257 14.116V19.828H146.977V22.432H140.257V28.396H147.817V31H137.065V11.512H147.817V14.116H140.257ZM172.244 11.54V31H169.052V17.672L163.116 31H160.904L154.94 17.672V31H151.748V11.54H155.192L162.024 26.8L168.828 11.54H172.244ZM179.632 14.116V19.828H186.352V22.432H179.632V28.396H187.192V31H176.44V11.512H187.192V14.116H179.632Z" fill="#1A6BAF"/>
<defs>
<linearGradient id="paint0_linear_1_238" x1="0.5" y1="21" x2="40.4899" y2="22.2257" gradientUnits="userSpaceOnUse">
<stop stop-color="#1669AD"/>
<stop offset="1" stop-color="#4484BA"/>
</linearGradient>
</defs>
</svg>
