<svg width="24" height="24" viewBox="0 0 24 24" fill="none" xmlns="http://www.w3.org/2000/svg">
<g opacity="0.99">
<path d="M22.125 19.5C22.125 19.7984 22.0065 20.0845 21.7955 20.2955C21.5845 20.5065 21.2984 20.625 21 20.625H3C2.70163 20.625 2.41548 20.5065 2.2045 20.2955C1.99353 20.0845 1.875 19.7984 1.875 19.5V4.5C1.875 4.20163 1.99353 3.91548 2.2045 3.7045C2.41548 3.49353 2.70163 3.375 3 3.375C3.29837 3.375 3.58452 3.49353 3.7955 3.7045C4.00647 3.91548 4.125 4.20163 4.125 4.5V13.7843L8.20472 9.70453C8.41569 9.49357 8.70183 9.37505 9.00019 9.37505C9.29854 9.37505 9.58468 9.49357 9.79566 9.70453L12.0002 11.909L16.7843 7.125H15.7502C15.4518 7.125 15.1657 7.00647 14.9547 6.7955C14.7437 6.58452 14.6252 6.29837 14.6252 6C14.6252 5.70163 14.7437 5.41548 14.9547 5.2045C15.1657 4.99353 15.4518 4.875 15.7502 4.875H19.5002L19.5044 4.87519C19.54 4.87537 19.5756 4.87719 19.6111 4.88063C19.6283 4.88231 19.6448 4.8855 19.6619 4.88794C19.6813 4.89075 19.7007 4.893 19.72 4.89675C19.7389 4.9005 19.7572 4.90575 19.7758 4.91044C19.7929 4.91475 19.81 4.91841 19.8268 4.92356C19.8448 4.929 19.8622 4.93575 19.8798 4.94203C19.8968 4.94813 19.9141 4.95375 19.9309 4.96078C19.9472 4.96753 19.9627 4.97541 19.9787 4.98291C19.9961 4.99116 20.0137 4.99884 20.0306 5.00794C20.0456 5.016 20.06 5.02528 20.0747 5.034C20.0916 5.04403 20.1086 5.05369 20.125 5.06456C20.1409 5.07516 20.1557 5.08697 20.1709 5.09831C20.1851 5.10891 20.1997 5.11884 20.2135 5.13019C20.2402 5.15213 20.2657 5.17538 20.2903 5.19956C20.2921 5.20125 20.2941 5.20275 20.2957 5.20453C20.2976 5.20641 20.299 5.20828 20.3008 5.21016C20.325 5.23453 20.3482 5.26012 20.3702 5.28675C20.3814 5.30062 20.3914 5.31516 20.402 5.32931C20.4132 5.3445 20.425 5.35931 20.4355 5.37506C20.4468 5.39184 20.4565 5.40909 20.4667 5.42634C20.4752 5.44069 20.4843 5.45466 20.4922 5.46947C20.5015 5.48681 20.5094 5.50462 20.5177 5.52234C20.5251 5.53791 20.5328 5.55328 20.5394 5.56922C20.5466 5.58647 20.5523 5.60409 20.5585 5.62153C20.5647 5.63878 20.5713 5.65566 20.5766 5.67309C20.582 5.69081 20.5859 5.70872 20.5903 5.72662C20.5948 5.74434 20.5998 5.76188 20.6034 5.77988C20.6075 5.80059 20.61 5.8215 20.6129 5.84241C20.6152 5.85788 20.6181 5.87316 20.6196 5.88881C20.6233 5.92594 20.6252 5.96316 20.6252 6.00037V9.75C20.6252 10.0484 20.5067 10.3345 20.2957 10.5455C20.0847 10.7565 19.7986 10.875 19.5002 10.875C19.2018 10.875 18.9157 10.7565 18.7047 10.5455C18.4937 10.3345 18.3752 10.0484 18.3752 9.75V8.71594L12.7958 14.2955C12.5848 14.5064 12.2986 14.6249 12.0003 14.6249C11.7019 14.6249 11.4158 14.5064 11.2048 14.2955L9.00019 12.091L4.125 16.9663V18.375H21C21.2984 18.375 21.5845 18.4935 21.7955 18.7045C22.0065 18.9155 22.125 19.2016 22.125 19.5Z" fill="white"/>
</g>
</svg>
