<svg width="26" height="26" viewBox="0 0 26 26" fill="none" xmlns="http://www.w3.org/2000/svg">
<path d="M13.0046 9.21958C12.1578 9.21958 11.3649 9.5481 10.7645 10.1485C10.1669 10.7489 9.8356 11.5418 9.8356 12.3886C9.8356 13.2354 10.1669 14.0283 10.7645 14.6287C11.3649 15.2263 12.1578 15.5576 13.0046 15.5576C13.8514 15.5576 14.6443 15.2263 15.2447 14.6287C15.8423 14.0283 16.1736 13.2354 16.1736 12.3886C16.1736 11.5418 15.8423 10.7489 15.2447 10.1485C14.9515 9.85298 14.6024 9.61869 14.2179 9.45923C13.8333 9.29977 13.4209 9.21831 13.0046 9.21958ZM24.681 15.8889L22.8288 14.3059C22.9166 13.7678 22.9619 13.2184 22.9619 12.6718C22.9619 12.1252 22.9166 11.573 22.8288 11.0377L24.681 9.45464C24.8209 9.33486 24.921 9.17534 24.968 8.99727C25.0151 8.8192 25.0068 8.63103 24.9443 8.45778L24.9188 8.38414C24.4091 6.95877 23.6454 5.63754 22.6646 4.48448L22.6136 4.425C22.4945 4.28497 22.3358 4.1843 22.1583 4.13627C21.9809 4.08825 21.793 4.09511 21.6196 4.15596L19.32 4.97441C18.4704 4.27774 17.5245 3.72833 16.4993 3.34601L16.0547 0.941641C16.0211 0.760512 15.9333 0.593878 15.8028 0.463876C15.6722 0.333874 15.5053 0.246658 15.324 0.213816L15.2476 0.199656C13.7749 -0.0665521 12.223 -0.0665521 10.7503 0.199656L10.6739 0.213816C10.4926 0.246658 10.3256 0.333874 10.1951 0.463876C10.0646 0.593878 9.97676 0.760512 9.94321 0.941641L9.49576 3.35734C8.48028 3.74271 7.5343 4.29078 6.69491 4.98008L4.37833 4.15596C4.20491 4.09463 4.01694 4.08752 3.83938 4.13557C3.66183 4.18363 3.5031 4.28458 3.38429 4.425L3.33332 4.48448C2.35427 5.63877 1.59071 6.95967 1.07904 8.38414L1.05356 8.45778C0.926116 8.81178 1.0309 9.20826 1.31693 9.45464L3.19172 11.0547C3.10393 11.5871 3.06145 12.1309 3.06145 12.669C3.06145 13.2127 3.10393 13.7565 3.19172 14.2832L1.3226 15.8833C1.18268 16.0031 1.08255 16.1626 1.0355 16.3407C0.988453 16.5187 0.996726 16.7069 1.05922 16.8801L1.08471 16.9538C1.5973 18.3783 2.35345 19.6952 3.33898 20.8534L3.38996 20.9129C3.50906 21.053 3.66779 21.1536 3.84524 21.2017C4.02269 21.2497 4.21052 21.2428 4.38399 21.182L6.70057 20.3578C7.54451 21.0517 8.48473 21.6011 9.50142 21.9806L9.94888 24.3963C9.98242 24.5774 10.0703 24.744 10.2008 24.8741C10.3313 25.0041 10.4983 25.0913 10.6795 25.1241L10.756 25.1383C12.2431 25.4059 13.7661 25.4059 15.2532 25.1383L15.3297 25.1241C15.5109 25.0913 15.6779 25.0041 15.8084 24.8741C15.9389 24.744 16.0268 24.5774 16.0603 24.3963L16.505 21.9919C17.5301 21.6068 18.476 21.0602 19.3256 20.3635L21.6252 21.182C21.7986 21.2433 21.9866 21.2504 22.1642 21.2024C22.3417 21.1543 22.5004 21.0533 22.6193 20.9129L22.6702 20.8534C23.6558 19.6895 24.4119 18.3783 24.9245 16.9538L24.95 16.8801C25.0718 16.529 24.967 16.1353 24.681 15.8889ZM13.0046 17.3673C10.2547 17.3673 8.02595 15.1385 8.02595 12.3886C8.02595 9.63872 10.2547 7.40993 13.0046 7.40993C15.7545 7.40993 17.9833 9.63872 17.9833 12.3886C17.9833 15.1385 15.7545 17.3673 13.0046 17.3673Z" fill="white"/>
</svg>
