<svg width="32" height="32" viewBox="0 0 32 32" fill="none" xmlns="http://www.w3.org/2000/svg">
<g clip-path="url(#clip0_1_963)">
<path d="M15.9999 0C12.8354 0 9.74195 0.938383 7.11076 2.69649C4.47957 4.45459 2.42881 6.95345 1.21781 9.87706C0.00681042 12.8007 -0.310043 16.0177 0.307321 19.1214C0.924684 22.2251 2.44854 25.0761 4.68618 27.3137C6.92382 29.5513 9.77474 31.0752 12.8784 31.6926C15.9821 32.3099 19.1992 31.9931 22.1228 30.7821C25.0464 29.5711 27.5453 27.5203 29.3034 24.8891C31.0615 22.2579 31.9999 19.1645 31.9999 16C31.9999 11.7565 30.3142 7.68687 27.3136 4.68629C24.313 1.68571 20.2433 0 15.9999 0ZM26.4499 10.63L13.3099 23.76L5.54988 16C5.28467 15.7348 5.13567 15.3751 5.13567 15C5.13567 14.6249 5.28467 14.2652 5.54988 14C5.8151 13.7348 6.17481 13.5858 6.54988 13.5858C6.92496 13.5858 7.28467 13.7348 7.54988 14L13.3299 19.78L24.4699 8.65C24.6012 8.51868 24.7571 8.41451 24.9287 8.34344C25.1003 8.27236 25.2842 8.23578 25.4699 8.23578C25.6556 8.23578 25.8395 8.27236 26.0111 8.34344C26.1827 8.41451 26.3386 8.51868 26.4699 8.65C26.6012 8.78132 26.7054 8.93722 26.7764 9.1088C26.8475 9.28038 26.8841 9.46428 26.8841 9.65C26.8841 9.83571 26.8475 10.0196 26.7764 10.1912C26.7054 10.3628 26.6012 10.5187 26.4699 10.65L26.4499 10.63Z" fill="#157015"/>
</g>
<defs>
<clipPath id="clip0_1_963">
<rect width="32" height="32" fill="white"/>
</clipPath>
</defs>
</svg>
