<svg width="32" height="32" viewBox="0 0 32 32" fill="none" xmlns="http://www.w3.org/2000/svg">
<g clip-path="url(#clip0_1_990)">
<path d="M31.8455 28.2842L16.9892 2.5714C16.7678 2.18928 16.3857 2 16 2C15.6143 2 15.2286 2.18928 15.0108 2.5714L0.154468 28.2842C-0.284793 29.0485 0.265176 29.9984 1.1437 29.9984H30.8563C31.7348 29.9984 32.2848 29.0485 31.8455 28.2842ZM14.8572 12.5708C14.8572 12.4137 14.9858 12.2851 15.1429 12.2851H16.8571C17.0142 12.2851 17.1428 12.4137 17.1428 12.5708V19.1419C17.1428 19.299 17.0142 19.4276 16.8571 19.4276H15.1429C14.9858 19.4276 14.8572 19.299 14.8572 19.1419V12.5708ZM16 25.1416C15.5514 25.1324 15.1243 24.9478 14.8103 24.6273C14.4963 24.3068 14.3204 23.876 14.3204 23.4274C14.3204 22.9787 14.4963 22.5479 14.8103 22.2274C15.1243 21.907 15.5514 21.7223 16 21.7132C16.4486 21.7223 16.8757 21.907 17.1897 22.2274C17.5037 22.5479 17.6796 22.9787 17.6796 23.4274C17.6796 23.876 17.5037 24.3068 17.1897 24.6273C16.8757 24.9478 16.4486 25.1324 16 25.1416Z" fill="#E18102"/>
</g>
<defs>
<clipPath id="clip0_1_990">
<rect width="32" height="32" fill="white"/>
</clipPath>
</defs>
</svg>
