<svg width="624" height="600" viewBox="0 0 624 600" fill="none" xmlns="http://www.w3.org/2000/svg">
<circle cx="306" cy="300" r="300" fill="white" fill-opacity="0.3"/>
<path d="M623.431 482.871H0V483.195H623.431V482.871Z" fill="#E6E6E6"/>
<path d="M155.633 502.506H114.337V502.829H155.633V502.506Z" fill="#E6E6E6"/>
<path d="M101.27 502.506H77.3428V502.829H101.27V502.506Z" fill="#E6E6E6"/>
<path d="M262.527 507.281H238.599V507.605H262.527V507.281Z" fill="#E6E6E6"/>
<path d="M387.288 514.522H333.436V514.846H387.288V514.522Z" fill="#E6E6E6"/>
<path d="M322.339 514.522H314.446V514.846H322.339V514.522Z" fill="#E6E6E6"/>
<path d="M565.265 507.281H448.459V507.605H565.265V507.281Z" fill="#E6E6E6"/>
<path d="M295.506 424.993H54.7497C52.8636 424.99 51.0559 424.208 49.7234 422.818C48.391 421.429 47.6426 419.546 47.6426 417.583V65.3451C47.659 63.3933 48.4146 61.5272 49.7453 60.1519C51.0761 58.7766 52.8744 58.0033 54.7497 58H295.506C297.394 58 299.205 58.7807 300.541 60.1703C301.876 61.56 302.626 63.4447 302.626 65.4099V417.583C302.626 419.549 301.876 421.433 300.541 422.823C299.205 424.213 297.394 424.993 295.506 424.993ZM54.7497 58.2595C52.9463 58.263 51.2179 59.011 49.9439 60.3394C48.6698 61.6678 47.9543 63.4681 47.9543 65.3451V417.583C47.9543 419.46 48.6698 421.261 49.9439 422.589C51.2179 423.917 52.9463 424.665 54.7497 424.669H295.506C297.311 424.665 299.04 423.918 300.316 422.59C301.592 421.262 302.311 419.461 302.314 417.583V65.3451C302.311 63.4669 301.592 61.6667 300.316 60.3386C299.04 59.0106 297.311 58.263 295.506 58.2595H54.7497Z" fill="#E6E6E6"/>
<path d="M565.215 424.993H324.446C322.559 424.99 320.75 424.208 319.415 422.819C318.081 421.43 317.329 419.548 317.326 417.583V65.3451C317.346 63.3921 318.104 61.526 319.437 60.1511C320.77 58.7762 322.569 58.0033 324.446 58H565.215C567.088 58.0068 568.883 58.7815 570.211 60.1564C571.539 61.5313 572.293 63.3956 572.309 65.3451V417.583C572.309 419.544 571.563 421.425 570.233 422.814C568.903 424.203 567.099 424.986 565.215 424.993ZM324.446 58.2595C322.641 58.263 320.912 59.0106 319.635 60.3386C318.359 61.6667 317.641 63.4669 317.638 65.3451V417.583C317.641 419.461 318.359 421.262 319.635 422.59C320.912 423.918 322.641 424.665 324.446 424.669H565.215C567.019 424.665 568.749 423.918 570.025 422.59C571.301 421.262 572.019 419.461 572.023 417.583V65.3451C572.019 63.4669 571.301 61.6667 570.025 60.3386C568.749 59.0106 567.019 58.263 565.215 58.2595H324.446Z" fill="#E6E6E6"/>
<path d="M333.411 372.021H305.992V485.22H333.411V372.021Z" fill="#E0E0E0"/>
<path d="M328.199 485.22H333.411V469.803H322.738L328.199 485.22Z" fill="#FAFAFA"/>
<path d="M213.263 372.021H185.845V485.22H213.263V372.021Z" fill="#E0E0E0"/>
<path d="M333.411 372.021H208.725V475.76H333.411V372.021Z" fill="#FAFAFA"/>
<path d="M328.885 377.121V404.567H213.213V377.121H328.847H328.885ZM329.334 376.615H212.764V405.06H329.371V376.615H329.334Z" fill="#E0E0E0"/>
<path d="M213.924 485.22H208.725V469.803H219.385L213.924 485.22Z" fill="#FAFAFA"/>
<path d="M268.312 390.837C268.312 391.405 268.474 391.959 268.776 392.431C269.079 392.902 269.51 393.27 270.013 393.487C270.517 393.704 271.071 393.761 271.605 393.65C272.14 393.54 272.631 393.266 273.016 392.865C273.401 392.464 273.664 391.953 273.77 391.397C273.877 390.841 273.822 390.264 273.613 389.74C273.405 389.216 273.052 388.768 272.598 388.453C272.145 388.138 271.613 387.969 271.068 387.969C270.337 387.969 269.636 388.272 269.119 388.81C268.602 389.347 268.312 390.077 268.312 390.837Z" fill="#E6E6E6"/>
<path d="M328.885 410.16V437.607H213.213V410.16H328.847H328.885ZM329.334 409.667H212.764V438.113H329.371V409.68L329.334 409.667Z" fill="#E0E0E0"/>
<path d="M268.312 423.955C268.312 424.522 268.474 425.077 268.776 425.548C269.079 426.02 269.51 426.388 270.013 426.605C270.517 426.822 271.071 426.879 271.605 426.768C272.14 426.657 272.631 426.384 273.016 425.983C273.401 425.582 273.664 425.071 273.77 424.515C273.877 423.958 273.822 423.382 273.613 422.858C273.405 422.334 273.052 421.886 272.598 421.57C272.145 421.255 271.613 421.087 271.068 421.087C270.337 421.087 269.636 421.389 269.119 421.927C268.602 422.465 268.312 423.194 268.312 423.955Z" fill="#E6E6E6"/>
<path d="M328.885 443.213V470.673H213.213V443.213H328.847H328.885ZM329.334 442.707H212.764V471.166H329.371V442.707H329.334Z" fill="#E0E0E0"/>
<path d="M268.312 456.943C268.315 457.51 268.478 458.063 268.782 458.533C269.087 459.003 269.518 459.368 270.022 459.583C270.525 459.798 271.079 459.853 271.613 459.741C272.146 459.629 272.636 459.355 273.02 458.953C273.405 458.552 273.666 458.041 273.771 457.485C273.876 456.929 273.821 456.353 273.612 455.83C273.403 455.306 273.05 454.859 272.597 454.545C272.144 454.23 271.612 454.062 271.068 454.062C270.705 454.062 270.345 454.137 270.01 454.282C269.675 454.427 269.371 454.639 269.115 454.907C268.859 455.174 268.656 455.492 268.518 455.841C268.38 456.191 268.31 456.565 268.312 456.943Z" fill="#E6E6E6"/>
<path d="M196.518 306.278H169.099V485.233H196.518V306.278Z" fill="#E0E0E0"/>
<path d="M191.306 485.22H196.518V469.803H185.857L191.306 485.22Z" fill="#FAFAFA"/>
<path d="M94.0508 306.278H66.6323V485.233H94.0508V306.278Z" fill="#E0E0E0"/>
<path d="M196.518 306.278H89.4998V475.773H196.518V306.278Z" fill="#FAFAFA"/>
<path d="M191.905 311.054V349.427H94.1131V311.054H191.905ZM192.478 310.47H93.5146V349.985H192.453V310.483L192.478 310.47Z" fill="#E0E0E0"/>
<path d="M191.905 354.112V455.892H145.322V354.112H191.905ZM192.478 353.515H144.761V456.489H192.478V353.515Z" fill="#E0E0E0"/>
<path d="M140.696 354.112V455.892H94.1131V354.112H140.696ZM141.257 353.515H93.5146V456.489H141.232V353.515H141.257Z" fill="#E0E0E0"/>
<path d="M94.7116 485.22H89.4998V469.803H100.173L94.7116 485.22Z" fill="#FAFAFA"/>
<path d="M140.247 330.26C140.245 330.831 140.405 331.389 140.708 331.864C141.01 332.34 141.442 332.711 141.947 332.931C142.453 333.151 143.01 333.21 143.547 333.1C144.085 332.991 144.58 332.717 144.968 332.315C145.356 331.913 145.621 331.399 145.729 330.84C145.837 330.281 145.783 329.701 145.574 329.174C145.364 328.647 145.01 328.196 144.554 327.879C144.099 327.562 143.563 327.392 143.015 327.392C142.283 327.392 141.581 327.694 141.062 328.232C140.543 328.769 140.25 329.498 140.247 330.26Z" fill="#E6E6E6"/>
<path d="M150.122 402.582C150.122 403.152 150.285 403.71 150.589 404.184C150.894 404.658 151.327 405.027 151.834 405.245C152.34 405.462 152.897 405.519 153.435 405.406C153.972 405.294 154.465 405.018 154.852 404.614C155.238 404.21 155.501 403.696 155.606 403.136C155.712 402.576 155.655 401.996 155.444 401.47C155.232 400.944 154.876 400.495 154.419 400.18C153.962 399.865 153.426 399.698 152.878 399.701C152.515 399.701 152.155 399.775 151.82 399.92C151.485 400.065 151.181 400.278 150.925 400.545C150.669 400.813 150.466 401.131 150.328 401.48C150.191 401.83 150.12 402.204 150.122 402.582Z" fill="#E6E6E6"/>
<path d="M130.384 402.582C130.387 403.148 130.55 403.702 130.855 404.172C131.159 404.641 131.59 405.007 132.094 405.222C132.598 405.437 133.151 405.492 133.685 405.38C134.219 405.268 134.709 404.994 135.093 404.592C135.477 404.19 135.738 403.679 135.843 403.124C135.949 402.568 135.893 401.992 135.684 401.468C135.476 400.945 135.122 400.498 134.669 400.183C134.217 399.869 133.684 399.701 133.14 399.701C132.777 399.701 132.418 399.775 132.082 399.92C131.747 400.065 131.443 400.278 131.187 400.545C130.931 400.813 130.728 401.131 130.59 401.48C130.453 401.83 130.383 402.204 130.384 402.582Z" fill="#E6E6E6"/>
<path d="M127.267 256.381H115.709C116.774 262.217 117.445 268.123 117.716 274.056C117.716 280.545 108.913 306.278 121.457 306.278C134 306.278 125.197 280.61 125.197 274.056C125.489 268.122 126.181 262.215 127.267 256.381Z" fill="#E0E0E0"/>
<path d="M83.2903 282.699V290.485C83.3034 294.659 84.9024 298.659 87.7383 301.61C90.5742 304.562 94.4167 306.226 98.4272 306.24H105.908C109.919 306.226 113.761 304.562 116.597 301.61C119.433 298.659 121.032 294.659 121.045 290.485V282.699H83.2903Z" fill="#F5F5F5"/>
<path d="M243.973 355.514C243.973 364.598 253.736 372.021 265.669 372.021H276.442C288.374 372.021 298.137 364.598 298.137 355.514H243.973Z" fill="#E0E0E0"/>
<path d="M529.43 342.199C522.896 347.753 513.869 357.914 505.615 372.215C500.104 381.74 496.787 391.681 495.328 404.892C495.328 389.968 495.415 373.941 495.465 358.81C497.124 354.917 500.914 345.937 503.632 338.851C512.697 315.194 516.101 309.367 524.243 288.967C535.128 261.715 546.275 229.454 543.083 232.036C536.574 237.292 511.637 285.891 508.944 292.847C501.603 311.41 497.065 331.043 495.49 351.05C495.49 336.775 495.59 323.798 495.64 313.727C495.814 280.882 496.351 270.28 496.612 267.01C497.622 265.349 498.807 263.415 499.505 262.377C505.365 253.552 507.622 246.052 513.133 232.893C520.964 214.271 527.697 181.192 525.727 182.853C517.522 189.809 511.064 204.732 502.56 223.77C494.056 242.807 496.488 253.747 494.804 269.994C494.455 273.187 494.181 285.23 493.982 301.905C491.787 284.127 487.647 272.421 480.104 261.78C470.827 248.686 461.85 239.849 455.267 235.229C448.683 230.609 466.638 262.766 475.216 276.756C482.86 289.265 489.904 300.283 493.919 311.145C493.707 333.764 493.607 362.392 493.607 389.008C491.637 376.887 488.421 363.819 484.131 353.71C478.969 341.563 471.039 322.928 464.718 316.608C463.209 315.09 471.326 351.335 476.538 360.964C481.75 370.593 485.578 379.69 488.857 385.153C489.618 386.451 492.161 391.344 493.607 394.173C493.607 426.706 493.782 455.412 494.056 465.183H495.403C495.316 462.666 495.291 446.107 495.328 424.202C498.582 412.315 506.014 398.741 512.148 386.36C518.831 372.955 535.963 336.684 529.43 342.199Z" fill="#E0E0E0"/>
<path d="M514.256 485.22H475.179L472.224 445.354H517.211L514.256 485.22Z" fill="#F0F0F0"/>
<path d="M520.116 450H469.306L467.86 436.543H521.575L520.116 450Z" fill="#F5F5F5"/>
<path d="M154.935 84.6031H85.0483V164.477H154.935V84.6031Z" fill="#E0E0E0"/>
<path d="M162.504 84.6031H90.3103V164.477H162.504V84.6031Z" fill="#F5F5F5"/>
<path d="M156.456 158.183V90.897H96.3576V158.183H156.456Z" fill="white"/>
<path d="M141.88 141.858V107.196H110.921V141.858H141.88Z" fill="#F5F5F5"/>
<path d="M511.275 93.9077H446.351V168.111H511.275V93.9077Z" fill="#E0E0E0"/>
<path d="M518.308 93.9077H451.252V168.111H518.308V93.9077Z" fill="#F5F5F5"/>
<path d="M512.697 162.258V99.7604H456.875V162.258H512.697Z" fill="white"/>
<path d="M484.78 149.138C494.4 149.138 502.198 141.022 502.198 131.009C502.198 120.997 494.4 112.88 484.78 112.88C475.16 112.88 467.361 120.997 467.361 131.009C467.361 141.022 475.16 149.138 484.78 149.138Z" fill="#F5F5F5"/>
<path d="M227.54 132.229H175.695V191.483H227.54V132.229Z" fill="#E0E0E0"/>
<path d="M233.151 132.229H179.598V191.483H233.151V132.229Z" fill="#F5F5F5"/>
<path d="M228.662 186.811V136.901H184.087V186.811H228.662Z" fill="white"/>
<path d="M206.381 149.229L194.186 171.213H218.575L206.381 149.229Z" fill="#F5F5F5"/>
<path d="M311.715 541.476C445.232 541.476 553.469 534.899 553.469 526.786C553.469 518.673 445.232 512.096 311.715 512.096C178.198 512.096 69.9614 518.673 69.9614 526.786C69.9614 534.899 178.198 541.476 311.715 541.476Z" fill="#F5F5F5"/>
<path d="M435.466 198.711L423.098 193.52C423.098 193.52 406.776 224.497 402.1 226.067C395.741 228.195 382.575 234.113 374.769 235.151C373.709 236.449 371.976 240.484 372.138 241.951C382.624 245.597 405.666 240.757 410.604 236.942C421.838 228.286 435.466 198.711 435.466 198.711Z" fill="#E58A7B"/>
<path d="M439.269 191.664C441.576 200.528 429.082 218.358 429.082 218.358L412.711 208.807C412.711 208.807 415.778 201.475 419.519 194.013C425.516 181.958 436.638 181.555 439.269 191.664Z" fill="#407BFF"/>
<path opacity="0.2" d="M439.269 191.664C441.576 200.528 429.082 218.358 429.082 218.358L412.711 208.807C412.711 208.807 415.778 201.475 419.519 194.013C425.516 181.958 436.638 181.555 439.269 191.664Z" fill="black"/>
<path opacity="0.2" d="M419.207 212.623L425.654 216.386L426.788 195.791C423.035 198.789 420.392 207.821 419.207 212.623Z" fill="black"/>
<path d="M428.496 184.994C428.496 184.994 415.754 214.504 423.185 269.449H473.396C474.194 261.43 471.551 222.291 481.114 184.501C475.606 183.381 470.033 182.639 464.431 182.282C457.326 181.853 450.202 181.853 443.097 182.282C438.172 182.803 433.291 183.709 428.496 184.994Z" fill="#407BFF"/>
<path opacity="0.2" d="M428.496 184.994C428.496 184.994 415.754 214.504 423.185 269.449H473.396C474.194 261.43 471.551 222.291 481.114 184.501C475.606 183.381 470.033 182.639 464.431 182.282C457.326 181.853 450.202 181.853 443.097 182.282C438.172 182.803 433.291 183.709 428.496 184.994Z" fill="black"/>
<g style="mix-blend-mode:multiply">
<path d="M416.851 527.954C416.776 529.355 435.816 530.484 459.369 530.484C482.922 530.484 502.099 529.355 502.174 527.954C502.248 526.552 483.221 525.436 459.656 525.436C436.09 525.436 416.938 526.565 416.851 527.954Z" fill="#E8ECF1"/>
</g>
<path d="M450.367 491.128L441.462 494.716L449.133 515.342L458.038 511.754L450.367 491.128Z" fill="#E58A7B"/>
<path d="M490.079 517.974H480.69L477.249 495.355H486.638L490.079 517.974Z" fill="#E58A7B"/>
<path d="M480.042 516.845H490.59C490.773 516.846 490.95 516.914 491.089 517.038C491.229 517.161 491.321 517.332 491.351 517.52L492.71 526.202C492.738 526.42 492.722 526.641 492.661 526.852C492.6 527.062 492.496 527.257 492.356 527.422C492.217 527.587 492.045 527.718 491.852 527.808C491.659 527.898 491.45 527.943 491.238 527.941C487.56 527.876 485.79 527.642 481.151 527.642C478.296 527.642 472.423 527.954 468.458 527.954C464.493 527.954 464.231 523.905 465.865 523.529C473.196 521.881 476.039 519.635 478.483 517.455C478.914 517.061 479.468 516.845 480.042 516.845Z" fill="#263238"/>
<path d="M448.87 513.497L458.845 510.461C459.023 510.408 459.213 510.421 459.383 510.497C459.553 510.572 459.693 510.706 459.78 510.876L463.521 518.662C463.608 518.86 463.652 519.075 463.651 519.292C463.65 519.509 463.603 519.724 463.514 519.92C463.425 520.117 463.296 520.29 463.135 520.43C462.975 520.569 462.787 520.67 462.586 520.726C458.957 521.764 456.526 522.4 451.987 523.775C448.858 524.723 445.666 526.267 442.574 527.292C440.429 528.006 435.392 528.032 432.786 528.032C428.933 528.032 428.073 523.801 429.731 523.606C433.908 523.126 434.469 523.347 436.776 522.14C440.55 520.423 443.971 517.964 446.85 514.899C447.393 514.255 448.09 513.771 448.87 513.497Z" fill="#263238"/>
<path d="M376.34 235.099L366.016 230.596L361.765 242.509C365.996 243.18 370.301 243.18 374.532 242.509L376.34 235.099Z" fill="#E58A7B"/>
<path d="M358.336 230.284L358.061 238.2L361.764 242.483L366.016 230.57L358.336 230.284Z" fill="#E58A7B"/>
<path d="M451.589 492.88L442.656 496.469L446.612 507.135L455.545 503.545L451.589 492.88Z" fill="#CF6F64"/>
<path d="M486.638 495.355H477.249L479.032 507.022H488.421L486.638 495.355Z" fill="#CF6F64"/>
<path opacity="0.2" d="M421.589 254.591C421.776 256.939 421.988 259.34 422.262 261.806L459.593 249.192C465.423 247.394 470.49 243.581 473.957 238.382C474.107 234.917 474.294 231.271 474.58 227.468C474.705 225.626 474.855 223.731 475.017 221.81C475.179 219.89 475.403 217.761 475.64 215.711L421.589 254.591Z" fill="black"/>
<path d="M433.783 212.026L432.536 211.87C433.272 205.381 437.923 200.268 442.823 200.398V201.696C438.534 201.605 434.444 206.212 433.783 212.026Z" fill="white"/>
<path d="M440.429 224.003H440.217V222.706C444.506 222.874 448.534 218.216 449.194 212.415L450.441 212.571C449.78 218.916 445.279 224.003 440.429 224.003Z" fill="white"/>
<path d="M463.733 157.275C461.975 164.425 459.905 177.519 464.431 182.282C464.431 182.282 461.264 189.536 448.509 189.536C436.85 189.536 443.097 182.282 443.097 182.282C450.853 180.387 450.99 174.496 449.967 168.916L463.733 157.275Z" fill="#E58A7B"/>
<path d="M458.122 162.025L449.98 168.916C450.232 170.198 450.378 171.5 450.416 172.809C452.798 175.274 457.573 169.032 458.059 165.84C458.307 164.583 458.328 163.29 458.122 162.025Z" fill="#CF6F64"/>
<path d="M435.978 157.184C436.544 158.206 437.307 159.096 438.219 159.797C439.131 160.498 440.172 160.996 441.277 161.259C444.269 161.947 445.766 159.079 444.943 156.198C444.207 153.603 441.751 150.112 438.708 150.709C438.057 150.848 437.447 151.149 436.929 151.584C436.412 152.02 436.003 152.578 435.735 153.212C435.468 153.846 435.35 154.538 435.392 155.229C435.435 155.92 435.635 156.59 435.978 157.184Z" fill="#CF6F64"/>
<path d="M440.928 134.306C436.264 136.525 434.619 155.809 440.479 158.664C446.339 161.519 449.755 130.088 440.928 134.306Z" fill="#263238"/>
<path d="M465.154 146.517C464.032 156.198 463.907 161.895 458.92 166.852C457.374 168.497 455.422 169.666 453.279 170.229C451.135 170.792 448.884 170.727 446.774 170.043C444.663 169.358 442.776 168.08 441.319 166.349C439.863 164.618 438.895 162.502 438.521 160.234C437.013 151.539 439.095 137.174 448.421 133.319C450.381 132.42 452.536 132.082 454.663 132.341C456.79 132.6 458.812 133.447 460.519 134.793C462.226 136.14 463.556 137.937 464.371 139.998C465.186 142.059 465.456 144.31 465.154 146.517Z" fill="#E58A7B"/>
<path d="M449.83 139.315C456.738 137.485 461.813 136.239 459.992 142.222C457.586 150.216 454.693 157.95 458.571 158.3C460.94 158.521 471.414 153.901 470.079 149.216C468.92 145.141 473.82 144.025 474.693 141.962C477.922 134.487 468.683 135.473 470.329 130.931C471.975 126.389 462.848 119.07 457.86 122.717C449.743 128.609 435.816 128.518 443.135 118.824C448.384 111.907 439.02 113.322 439.02 113.322C439.02 113.322 444.681 116.812 435.155 122.211C425.08 127.973 434.319 143.454 449.83 139.315Z" fill="#263238"/>
<path d="M468.82 157.184C467.456 159.238 465.408 160.69 463.072 161.259C459.992 161.947 458.808 159.079 459.967 156.198C461.002 153.603 463.845 150.112 466.788 150.709C469.73 151.306 470.404 154.641 468.82 157.184Z" fill="#E58A7B"/>
<path d="M423.185 269.449C423.185 269.449 414.756 347.961 414.095 377.757C413.422 408.746 442.661 505.439 442.661 505.439L457.623 498.95C457.623 498.95 440.167 410.602 442.661 380.17C445.304 346.988 456.227 269.501 456.227 269.501L423.185 269.449Z" fill="#407BFF"/>
<path opacity="0.2" d="M444.132 291.004C437.412 305.513 441.938 334.205 445.578 351.205C446.962 339.201 448.608 326.172 450.167 314.117C450.017 295.585 448.633 281.272 444.132 291.004Z" fill="black"/>
<path d="M456.962 493.811C457.037 493.811 458.733 498.768 458.733 498.768L441.476 506.321L438.758 501.052L456.962 493.811Z" fill="#407BFF"/>
<path d="M441.002 269.449C441.002 269.449 447.449 344.12 451.713 372.086C456.401 402.725 474.78 504.764 474.78 504.764H491.974C491.974 504.764 481.675 405.203 479.73 374.863C477.61 341.953 473.396 269.449 473.396 269.449H441.002Z" fill="#407BFF"/>
<path d="M492.236 500.105C492.311 500.105 492.81 505.101 492.81 505.101H473.907L472.561 499.365L492.236 500.105Z" fill="#407BFF"/>
<path opacity="0.2" d="M485.653 494.187C485.614 494.188 485.576 494.174 485.546 494.147C485.516 494.121 485.496 494.085 485.49 494.045C485.391 493.136 476.102 403.205 474.356 375.953C472.461 346.391 468.645 280.817 468.608 280.156C468.606 280.134 468.609 280.112 468.616 280.092C468.622 280.072 468.633 280.053 468.647 280.037C468.661 280.021 468.678 280.008 468.697 280C468.716 279.991 468.737 279.987 468.758 279.987C468.799 279.987 468.838 280.003 468.868 280.032C468.898 280.06 468.917 280.1 468.92 280.143C468.92 280.804 472.772 346.326 474.668 375.94C476.413 403.192 485.702 493.058 485.79 494.032C485.793 494.053 485.792 494.075 485.787 494.096C485.782 494.117 485.773 494.137 485.76 494.154C485.747 494.171 485.731 494.185 485.712 494.196C485.694 494.206 485.673 494.212 485.653 494.213V494.187Z" fill="black"/>
<path d="M450.89 149.216C450.89 150.008 450.416 150.644 449.918 150.644C449.419 150.644 449.057 150.008 449.107 149.216C449.157 148.425 449.581 147.789 450.08 147.789C450.578 147.789 450.94 148.438 450.89 149.216Z" fill="#263238"/>
<path d="M442.337 149.216C442.337 150.008 441.85 150.644 441.364 150.644C440.878 150.644 440.504 150.008 440.541 149.216C440.579 148.425 441.027 147.789 441.526 147.789C442.025 147.789 442.387 148.438 442.337 149.216Z" fill="#263238"/>
<path d="M445.03 149.619C443.989 152.036 442.648 154.3 441.04 156.354C442.287 157.651 444.618 157.054 444.618 157.054L445.03 149.619Z" fill="#DF5753"/>
<path d="M445.254 160.364C445.225 160.364 445.197 160.358 445.17 160.346C445.144 160.334 445.12 160.316 445.1 160.294C445.08 160.273 445.065 160.247 445.055 160.218C445.045 160.19 445.041 160.16 445.042 160.13C445.045 160.067 445.072 160.007 445.116 159.964C445.16 159.921 445.218 159.896 445.279 159.896C446.233 159.903 447.176 159.688 448.039 159.266C448.902 158.843 449.663 158.225 450.267 157.457C450.31 157.417 450.365 157.396 450.422 157.396C450.48 157.396 450.535 157.417 450.578 157.457C450.619 157.5 450.641 157.558 450.641 157.619C450.641 157.679 450.619 157.738 450.578 157.781C449.932 158.598 449.119 159.254 448.198 159.701C447.276 160.148 446.271 160.374 445.254 160.364Z" fill="#263238"/>
<path d="M452.411 146.829C452.351 146.86 452.285 146.877 452.218 146.877C452.151 146.877 452.085 146.86 452.025 146.829C451.558 146.515 451.027 146.319 450.475 146.259C449.923 146.198 449.364 146.273 448.845 146.478C448.795 146.504 448.739 146.52 448.683 146.524C448.626 146.528 448.57 146.52 448.516 146.5C448.463 146.481 448.414 146.451 448.372 146.411C448.33 146.372 448.296 146.324 448.272 146.27C448.225 146.155 448.224 146.025 448.268 145.909C448.313 145.793 448.399 145.699 448.509 145.648C449.16 145.37 449.867 145.261 450.568 145.329C451.269 145.397 451.944 145.64 452.536 146.037C452.584 146.071 452.625 146.114 452.656 146.164C452.688 146.215 452.709 146.271 452.72 146.33C452.73 146.39 452.729 146.45 452.717 146.509C452.705 146.568 452.681 146.623 452.648 146.673C452.585 146.747 452.503 146.801 452.411 146.829Z" fill="#263238"/>
<path d="M439.032 144.233C438.966 144.216 438.905 144.18 438.858 144.129C438.816 144.087 438.783 144.036 438.761 143.981C438.738 143.925 438.727 143.865 438.727 143.805C438.727 143.744 438.738 143.685 438.761 143.629C438.783 143.573 438.816 143.523 438.858 143.48C439.336 142.923 439.931 142.487 440.597 142.208C441.263 141.929 441.982 141.814 442.698 141.871C442.755 141.88 442.81 141.902 442.86 141.934C442.909 141.966 442.951 142.009 442.984 142.058C443.016 142.108 443.039 142.165 443.05 142.224C443.061 142.283 443.06 142.344 443.047 142.403C443.02 142.523 442.953 142.629 442.856 142.701C442.76 142.773 442.641 142.805 442.524 142.793C441.957 142.755 441.39 142.853 440.865 143.078C440.34 143.303 439.871 143.649 439.494 144.09C439.437 144.156 439.364 144.204 439.282 144.229C439.201 144.254 439.114 144.256 439.032 144.233Z" fill="#263238"/>
<path d="M485.939 197.271L472.972 193.676C472.972 193.676 460.254 226.261 455.753 228.377C449.643 231.284 434.17 241.354 427.586 246.116C427.225 247.739 427.511 252.034 428.334 253.215C439.556 251.087 461.04 242.483 465.528 238.11C475.765 228.13 485.939 197.271 485.939 197.271Z" fill="#E58A7B"/>
<path d="M476.887 518.558C476.254 518.61 475.624 518.432 475.104 518.052C474.944 517.901 474.823 517.709 474.756 517.496C474.688 517.282 474.675 517.053 474.718 516.832C474.726 516.695 474.769 516.561 474.844 516.447C474.918 516.333 475.021 516.242 475.142 516.184C476.189 515.626 479.119 517.559 479.456 517.78C479.493 517.803 479.521 517.839 479.537 517.881C479.553 517.923 479.555 517.97 479.543 518.013C479.532 518.059 479.511 518.1 479.48 518.134C479.45 518.168 479.411 518.194 479.368 518.208C478.556 518.416 477.724 518.533 476.887 518.558ZM475.64 516.534C475.546 516.512 475.448 516.512 475.354 516.534C475.306 516.559 475.266 516.598 475.24 516.647C475.213 516.695 475.201 516.751 475.204 516.806C475.171 516.957 475.176 517.115 475.22 517.263C475.264 517.411 475.344 517.545 475.453 517.65C475.94 518.104 477.161 518.156 478.77 517.832C477.812 517.175 476.734 516.733 475.603 516.534H475.64Z" fill="#407BFF"/>
<path d="M479.306 518.208C479.274 518.219 479.239 518.219 479.206 518.208C478.271 517.663 476.513 515.522 476.775 514.432C476.814 514.259 476.908 514.105 477.041 513.994C477.175 513.884 477.34 513.823 477.511 513.822C477.678 513.799 477.848 513.813 478.01 513.865C478.171 513.916 478.32 514.003 478.446 514.12C479.481 515.042 479.543 517.871 479.543 518.013C479.549 518.056 479.541 518.1 479.521 518.137C479.501 518.175 479.469 518.204 479.431 518.221C479.389 518.23 479.345 518.225 479.306 518.208ZM477.635 514.25H477.548C477.261 514.25 477.224 514.419 477.211 514.484C477.062 515.12 478.171 516.742 479.094 517.507C479.09 516.411 478.764 515.342 478.159 514.445C478.014 514.313 477.827 514.244 477.635 514.25Z" fill="#407BFF"/>
<path d="M443.783 516.936C443.02 517.213 442.189 517.213 441.426 516.936C441.253 516.839 441.106 516.697 441 516.525C440.893 516.352 440.829 516.155 440.815 515.95C440.8 515.822 440.816 515.691 440.861 515.571C440.907 515.451 440.981 515.345 441.077 515.262C442.075 514.328 446.152 515.262 446.613 515.444C446.657 515.456 446.696 515.483 446.723 515.52C446.75 515.558 446.764 515.604 446.763 515.652C446.765 515.7 446.753 515.748 446.728 515.79C446.704 515.832 446.668 515.865 446.626 515.885C445.708 516.317 444.757 516.668 443.783 516.936ZM441.751 515.392C441.608 515.422 441.475 515.489 441.364 515.587C441.324 515.618 441.294 515.66 441.276 515.708C441.259 515.756 441.254 515.809 441.264 515.859C441.272 515.995 441.313 516.127 441.383 516.243C441.453 516.359 441.549 516.454 441.663 516.521C442.324 516.884 443.858 516.599 445.84 515.729C444.505 515.379 443.122 515.265 441.751 515.392Z" fill="#407BFF"/>
<path d="M446.589 515.885H446.489C445.242 515.652 442.748 514.159 442.673 513.043C442.673 512.784 442.786 512.42 443.384 512.213C443.586 512.138 443.801 512.106 444.015 512.119C444.229 512.133 444.439 512.191 444.631 512.29C445.978 512.978 446.688 515.47 446.726 515.587C446.734 515.626 446.733 515.667 446.722 515.705C446.711 515.744 446.691 515.779 446.663 515.807C446.645 515.839 446.619 515.866 446.589 515.885ZM443.633 512.602H443.509C443.122 512.745 443.122 512.913 443.122 512.965C443.122 513.64 444.93 514.873 446.189 515.288C445.899 514.246 445.286 513.333 444.444 512.693C444.194 512.56 443.905 512.528 443.633 512.602Z" fill="#407BFF"/>
<path d="M428.646 245.351L415.641 251.58L414.133 255.473L418.933 258.834C418.933 258.834 427.91 257.822 430.467 251.813L428.646 245.351Z" fill="#E58A7B"/>
<path d="M429.195 253.436C428.904 250.835 428.079 248.33 426.776 246.091L428.833 244.481C430.381 247.062 431.368 249.963 431.726 252.981L429.195 253.436Z" fill="#263238"/>
<path d="M431.414 247.194C431.689 247.644 431.824 248.171 431.801 248.704C431.778 249.236 431.597 249.749 431.284 250.171C430.971 250.594 430.541 250.905 430.052 251.064C429.563 251.223 429.038 251.221 428.55 251.058C428.062 250.896 427.634 250.581 427.324 250.156C427.014 249.732 426.837 249.218 426.818 248.685C426.798 248.152 426.937 247.626 427.215 247.178C427.493 246.73 427.897 246.382 428.372 246.181C428.905 245.899 429.523 245.847 430.093 246.036C430.663 246.226 431.137 246.642 431.414 247.194Z" fill="#263238"/>
<path d="M406.851 256.615L408.584 258.432L420.255 253.241L415.641 251.58L406.851 256.615Z" fill="#E58A7B"/>
<path opacity="0.2" d="M456.962 493.811C457.037 493.811 458.733 498.768 458.733 498.768L441.476 506.321L438.758 501.052L456.962 493.811Z" fill="black"/>
<path opacity="0.2" d="M492.236 500.105C492.311 500.105 492.81 505.101 492.81 505.101H473.907L472.561 499.365L492.236 500.105Z" fill="black"/>
<path d="M489.318 193.533C492.747 205.044 479.343 220.785 479.343 220.785L460.828 212.921C463.022 206.268 465.553 199.74 468.408 193.364C474.094 180.608 485.852 181.919 489.318 193.533Z" fill="#407BFF"/>
<path opacity="0.2" d="M489.318 193.533C492.747 205.044 479.343 220.785 479.343 220.785L460.828 212.921C463.022 206.268 465.553 199.74 468.408 193.364C474.094 180.608 485.852 181.919 489.318 193.533Z" fill="black"/>
<path d="M305.331 78.2054H297.364V79.5421H305.331V78.2054Z" fill="#407BFF"/>
<path d="M408.469 131.109L407.505 153.381L408.788 153.441L409.752 131.169L408.469 131.109Z" fill="#407BFF"/>
<path d="M405.99 84.2009H258.861L245.17 403.075H392.3L405.99 84.2009Z" fill="#407BFF"/>
<path opacity="0.56" d="M401.601 88.5872H254.472L240.781 407.461H387.911L401.601 88.5872Z" fill="#FAFAFA"/>
<path opacity="0.07" d="M397.213 92.9604H250.083L236.38 411.835H383.51L397.213 92.9604Z" fill="#407BFF"/>
<path d="M380.467 232.036H254.883L253.836 256.433H379.42L380.467 232.036Z" fill="white"/>
<path d="M323.947 214.232H255.644L255.183 225.146H323.486L323.947 214.232Z" fill="#407BFF"/>
<path d="M377.637 297.882H252.053L251.006 322.279H376.59L377.637 297.882Z" fill="white"/>
<path opacity="0.47" d="M354.607 355.228H270.157L268.898 384.466H353.348L354.607 355.228Z" fill="#407BFF"/>
<path d="M348.959 389.008H264.509C264.472 389.018 264.434 389.018 264.397 389.008C264.384 388.97 264.384 388.929 264.397 388.891L265.644 359.641C265.643 359.621 265.647 359.601 265.655 359.583C265.663 359.564 265.674 359.548 265.688 359.535C265.702 359.521 265.719 359.511 265.737 359.505C265.755 359.498 265.774 359.496 265.793 359.498H350.243C350.259 359.49 350.276 359.486 350.293 359.486C350.31 359.486 350.327 359.49 350.343 359.498C350.352 359.514 350.356 359.531 350.356 359.55C350.356 359.568 350.352 359.586 350.343 359.602L349.121 388.917C349.106 388.947 349.082 388.972 349.053 388.989C349.025 389.005 348.992 389.012 348.959 389.008ZM264.659 388.696H348.809L350.056 359.757H265.905L264.659 388.696Z" fill="white"/>
<path d="M309.196 280.078H252.813L252.352 291.004H308.723L309.196 280.078Z" fill="#407BFF"/>
<path d="M352.999 153.226C352.677 160.327 350.251 167.149 346.054 172.757C342.947 176.993 338.949 180.432 334.367 182.809C329.785 185.187 324.74 186.441 319.62 186.474C315.483 186.507 311.383 185.657 307.573 183.979C303.762 182.3 300.323 179.827 297.465 176.712C294.608 173.597 292.394 169.907 290.959 165.868C289.524 161.828 288.899 157.526 289.122 153.226C289.561 144.303 293.258 135.892 299.458 129.711C305.657 123.531 313.891 120.05 322.476 119.979C326.616 119.939 330.721 120.783 334.536 122.459C338.351 124.134 341.795 126.607 344.655 129.723C347.516 132.839 349.732 136.532 351.167 140.575C352.603 144.617 353.226 148.923 352.999 153.226Z" fill="white"/>
<path d="M356.004 126.935C355.922 128.823 355.277 130.637 354.158 132.125C353.33 133.251 352.267 134.164 351.048 134.796C349.829 135.428 348.488 135.762 347.126 135.772C345.807 135.78 344.506 135.452 343.336 134.817C342.167 134.181 341.165 133.257 340.418 132.125C339.429 130.596 338.939 128.776 339.022 126.935C339.142 124.566 340.126 122.333 341.774 120.694C343.421 119.054 345.607 118.13 347.887 118.11C348.986 118.1 350.076 118.324 351.09 118.768C352.103 119.213 353.018 119.869 353.779 120.696C354.539 121.522 355.129 122.503 355.511 123.576C355.894 124.648 356.062 125.792 356.004 126.935Z" fill="#407BFF"/>
<path d="M268.412 244.235C268.352 245.281 267.913 246.264 267.184 246.986C266.455 247.709 265.491 248.117 264.484 248.128C263.998 248.134 263.516 248.036 263.068 247.841C262.62 247.645 262.215 247.356 261.878 246.991C261.542 246.626 261.281 246.193 261.111 245.719C260.942 245.245 260.868 244.74 260.893 244.235C260.947 243.187 261.384 242.2 262.114 241.477C262.844 240.753 263.812 240.347 264.821 240.342C265.306 240.338 265.787 240.437 266.235 240.633C266.682 240.829 267.086 241.118 267.422 241.483C267.759 241.847 268.02 242.279 268.19 242.753C268.36 243.226 268.435 243.73 268.412 244.235Z" fill="#263238"/>
<path d="M285.219 244.235C285.162 245.282 284.725 246.267 283.995 246.99C283.266 247.713 282.299 248.12 281.292 248.128C280.807 248.132 280.326 248.033 279.879 247.837C279.433 247.64 279.029 247.351 278.694 246.986C278.359 246.622 278.099 246.189 277.93 245.716C277.762 245.243 277.688 244.739 277.713 244.235C277.767 243.189 278.202 242.204 278.93 241.481C279.657 240.758 280.622 240.35 281.628 240.342C282.114 240.336 282.596 240.434 283.044 240.629C283.493 240.825 283.898 241.114 284.234 241.479C284.571 241.844 284.832 242.276 285.001 242.75C285.171 243.225 285.245 243.73 285.219 244.235Z" fill="#263238"/>
<path d="M302.039 244.235C301.982 245.282 301.545 246.267 300.815 246.99C300.086 247.713 299.119 248.12 298.112 248.128C297.626 248.132 297.145 248.033 296.698 247.837C296.25 247.641 295.846 247.352 295.51 246.987C295.174 246.623 294.913 246.19 294.743 245.717C294.573 245.244 294.497 244.74 294.521 244.235C294.578 243.188 295.016 242.203 295.745 241.48C296.475 240.757 297.441 240.35 298.448 240.342C298.934 240.336 299.416 240.434 299.865 240.629C300.313 240.825 300.718 241.114 301.054 241.479C301.391 241.844 301.652 242.276 301.821 242.75C301.991 243.225 302.065 243.73 302.039 244.235Z" fill="#263238"/>
<path d="M265.581 310.081C265.522 311.127 265.083 312.11 264.354 312.832C263.625 313.555 262.66 313.963 261.654 313.974C261.168 313.978 260.687 313.879 260.24 313.683C259.792 313.487 259.388 313.197 259.052 312.833C258.716 312.468 258.455 312.036 258.285 311.563C258.115 311.09 258.039 310.585 258.063 310.081C258.12 309.034 258.558 308.049 259.287 307.326C260.017 306.603 260.983 306.196 261.99 306.188C262.476 306.184 262.957 306.283 263.404 306.479C263.852 306.675 264.256 306.964 264.592 307.329C264.928 307.693 265.19 308.125 265.36 308.599C265.53 309.072 265.605 309.576 265.581 310.081Z" fill="#263238"/>
<path d="M282.389 310.081C282.332 311.125 281.896 312.109 281.169 312.831C280.443 313.554 279.479 313.962 278.474 313.974C277.988 313.98 277.506 313.882 277.058 313.687C276.609 313.491 276.205 313.202 275.868 312.837C275.531 312.472 275.27 312.039 275.101 311.565C274.931 311.091 274.857 310.586 274.883 310.081C274.94 309.034 275.378 308.049 276.107 307.326C276.837 306.603 277.803 306.196 278.81 306.188C279.295 306.183 279.776 306.283 280.223 306.479C280.669 306.675 281.073 306.965 281.408 307.329C281.743 307.694 282.003 308.126 282.172 308.6C282.341 309.073 282.415 309.577 282.389 310.081Z" fill="#263238"/>
<path d="M299.247 310.081C299.19 311.128 298.752 312.113 298.022 312.836C297.293 313.559 296.326 313.966 295.319 313.974C294.834 313.976 294.354 313.876 293.907 313.679C293.461 313.482 293.057 313.193 292.721 312.829C292.386 312.465 292.124 312.033 291.954 311.561C291.783 311.089 291.706 310.585 291.728 310.081C291.788 309.035 292.227 308.052 292.955 307.329C293.684 306.607 294.649 306.199 295.656 306.188C296.142 306.182 296.624 306.279 297.072 306.475C297.52 306.671 297.925 306.96 298.261 307.325C298.598 307.689 298.859 308.122 299.029 308.596C299.198 309.071 299.272 309.576 299.247 310.081Z" fill="#263238"/>
<path d="M316.029 310.081C315.97 311.127 315.531 312.11 314.802 312.832C314.073 313.555 313.108 313.963 312.102 313.974C311.617 313.976 311.137 313.876 310.69 313.679C310.244 313.482 309.84 313.193 309.504 312.829C309.168 312.465 308.907 312.033 308.736 311.561C308.566 311.089 308.489 310.585 308.511 310.081C308.571 309.035 309.009 308.052 309.738 307.329C310.467 306.607 311.432 306.199 312.439 306.188C312.924 306.184 313.405 306.283 313.852 306.479C314.3 306.675 314.704 306.964 315.04 307.329C315.376 307.693 315.638 308.125 315.808 308.599C315.978 309.072 316.053 309.576 316.029 310.081Z" fill="#263238"/>
<path d="M332.912 310.081C332.852 311.127 332.413 312.11 331.684 312.832C330.956 313.555 329.991 313.963 328.984 313.974C328.498 313.98 328.016 313.882 327.568 313.687C327.12 313.491 326.715 313.202 326.378 312.837C326.042 312.472 325.781 312.039 325.611 311.565C325.442 311.091 325.368 310.586 325.393 310.081C325.45 309.034 325.888 308.049 326.617 307.326C327.347 306.603 328.313 306.196 329.321 306.188C329.806 306.184 330.287 306.283 330.735 306.479C331.182 306.675 331.586 306.964 331.923 307.329C332.259 307.693 332.52 308.125 332.69 308.599C332.86 309.072 332.936 309.576 332.912 310.081Z" fill="#263238"/>
<path d="M330.36 151.495C335.579 146.183 335.856 137.669 330.979 132.478C326.101 127.288 317.917 127.386 312.698 132.697C307.479 138.009 307.203 146.523 312.08 151.713C316.957 156.904 325.141 156.806 330.36 151.495Z" fill="#407BFF"/>
<path d="M346.054 172.757C342.947 176.993 338.949 180.432 334.367 182.809C329.785 185.187 324.74 186.441 319.62 186.474C314.655 186.517 309.756 185.289 305.355 182.897C300.954 180.505 297.186 177.022 294.384 172.757C300.444 166.476 310.032 162.375 320.655 162.375C331.278 162.375 340.53 166.476 346.054 172.757Z" fill="#407BFF"/>
<path opacity="0.1" d="M330.36 151.495C335.579 146.183 335.856 137.669 330.979 132.478C326.101 127.288 317.917 127.386 312.698 132.697C307.479 138.009 307.203 146.523 312.08 151.713C316.957 156.904 325.141 156.806 330.36 151.495Z" fill="white"/>
<path opacity="0.1" d="M346.054 172.757C342.947 176.993 338.949 180.432 334.367 182.809C329.785 185.187 324.74 186.441 319.62 186.474C314.655 186.517 309.756 185.289 305.355 182.897C300.954 180.505 297.186 177.022 294.384 172.757C300.444 166.476 310.032 162.375 320.655 162.375C331.278 162.375 340.53 166.476 346.054 172.757Z" fill="white"/>
<path d="M162.603 262.312C161.419 265.011 160.172 267.983 159.087 270.864C158.002 273.745 156.892 276.717 155.932 279.675C153.972 285.506 152.479 291.496 151.469 297.584L151.194 299.491C151.168 299.819 151.198 300.148 151.282 300.465C151.576 301.54 152.039 302.558 152.653 303.475C154.254 305.851 156.112 308.028 158.189 309.964C160.379 312.084 162.677 314.081 165.072 315.946C167.466 317.867 169.985 319.736 172.466 321.501L170.134 326.056C164.209 323.369 158.586 320.014 153.364 316.05C150.578 313.936 148.064 311.459 145.883 308.679C144.59 307.025 143.582 305.15 142.903 303.138C142.508 301.881 142.306 300.567 142.304 299.245C142.304 298.933 142.304 298.479 142.304 298.259V297.623L142.429 296.325C143.144 289.564 144.51 282.895 146.506 276.418C147.479 273.226 148.514 270.046 149.698 266.945C150.883 263.843 152.105 260.807 153.613 257.653L162.603 262.312Z" fill="#E58A7B"/>
<path d="M170.708 320.696L179.523 316.05L177.241 326.121C177.241 326.121 171.194 327.885 168.389 324.823L170.708 320.696Z" fill="#E58A7B"/>
<path d="M187.59 317.698L185.246 326.03L177.241 326.121L179.523 316.05L187.59 317.698Z" fill="#E58A7B"/>
<path d="M200.034 213.726C200.505 215.524 201.162 217.264 201.992 218.916C201.749 219.203 201.437 219.415 201.088 219.532C200.739 219.648 200.366 219.664 200.009 219.578L200.034 213.726Z" fill="#DF5753"/>
<path d="M199.772 213.803C200.289 213.803 200.707 213.135 200.707 212.311C200.707 211.487 200.289 210.819 199.772 210.819C199.256 210.819 198.837 211.487 198.837 212.311C198.837 213.135 199.256 213.803 199.772 213.803Z" fill="#263238"/>
<path d="M199.498 210.871L201.393 210.313C201.393 210.313 200.47 211.844 199.498 210.871Z" fill="#263238"/>
<path d="M175.683 223.251C176.818 229.285 177.952 240.355 173.887 244.391C173.887 244.391 175.483 250.516 186.269 250.516C198.126 250.516 191.93 244.391 191.93 244.391C185.458 242.781 185.62 237.785 186.755 233.087L175.683 223.251Z" fill="#E58A7B"/>
<path d="M172.528 209.495C173.127 219.578 173.177 223.861 178.064 229.039C185.433 236.825 197.204 233.866 199.51 223.848C201.593 214.764 200.271 199.814 190.782 195.804C188.699 194.911 186.432 194.586 184.195 194.859C181.958 195.133 179.824 195.995 177.997 197.366C176.169 198.737 174.708 200.57 173.751 202.692C172.794 204.815 172.373 207.156 172.528 209.495Z" fill="#E58A7B"/>
<path d="M173.488 198.153C168.626 199.996 162.142 198.62 164.686 214.232C167.379 230.765 163.239 236.202 163.239 236.202C163.239 236.202 181.68 240.29 200.508 235.955C200.508 235.955 194.76 225.496 196.368 217.787C198.426 208.055 196.805 204.46 196.805 204.46C196.805 204.46 180.321 195.558 173.488 198.153Z" fill="#263238"/>
<path d="M194.062 214.751C194.067 216.668 194.594 218.544 195.583 220.162C196.904 222.265 198.463 221.46 198.849 219.228C199.199 217.268 198.937 213.803 197.253 212.454C195.57 211.104 194.086 212.428 194.062 214.751Z" fill="#E58A7B"/>
<path d="M169.261 199.853C167.865 195.765 174.523 189.471 188.613 192.067C202.702 194.662 203.313 206.874 203.313 206.874L200.47 203.344L200.595 207.055L186.119 209.949L169.261 199.853Z" fill="#263238"/>
<path d="M170.458 245.078C170.375 244.486 170.518 243.883 170.855 243.398C171.193 242.913 171.699 242.585 172.266 242.483C176.655 241.73 186.63 240.199 191.643 240.926C195.383 241.471 196.356 243.729 196.518 245.584C196.543 245.909 196.502 246.236 196.395 246.543C196.289 246.85 196.121 247.129 195.903 247.363C195.684 247.596 195.42 247.779 195.129 247.897C194.837 248.016 194.524 248.068 194.211 248.05L172.541 247.038C172.03 247.011 171.544 246.801 171.164 246.444C170.785 246.087 170.535 245.605 170.458 245.078Z" fill="#407BFF"/>
<path opacity="0.6" d="M170.458 245.078C170.375 244.486 170.518 243.883 170.855 243.398C171.193 242.913 171.699 242.585 172.266 242.483C176.655 241.73 186.63 240.199 191.643 240.926C195.383 241.471 196.356 243.729 196.518 245.584C196.543 245.909 196.502 246.236 196.395 246.543C196.289 246.85 196.121 247.129 195.903 247.363C195.684 247.596 195.42 247.779 195.129 247.897C194.837 248.016 194.524 248.068 194.211 248.05L172.541 247.038C172.03 247.011 171.544 246.801 171.164 246.444C170.785 246.087 170.535 245.605 170.458 245.078Z" fill="black"/>
<path d="M182.99 471.789L191.032 477.603L204.485 458.617L196.443 452.816L182.99 471.789Z" fill="#E58A7B"/>
<path d="M164.237 471.413L172.728 476.448L184.635 456.372L176.144 451.337L164.237 471.413Z" fill="#E58A7B"/>
<path d="M204.473 458.617L197.54 468.402L189.498 462.601L196.431 452.816L204.473 458.617Z" fill="#CF6F64"/>
<path d="M176.132 451.337L184.635 456.385L178.501 466.728L169.997 461.68L176.132 451.337Z" fill="#CF6F64"/>
<path d="M189.772 308.459C189.772 308.459 221.168 349.635 215.271 389.021C210.52 420.828 182.965 463.899 182.965 463.899L170.01 457.202C179.141 438.159 186.934 418.451 193.326 398.234C195.297 391.958 195.873 385.297 195.009 378.755C194.145 372.213 191.864 365.961 188.338 360.471C172.429 336.295 146.943 350.686 164.087 308.459H189.772Z" fill="#407BFF"/>
<path opacity="0.6" d="M189.772 308.459C189.772 308.459 221.168 349.635 215.271 389.021C210.52 420.828 182.965 463.899 182.965 463.899L170.01 457.202C179.141 438.159 186.934 418.451 193.326 398.234C195.297 391.958 195.873 385.297 195.009 378.755C194.145 372.213 191.864 365.961 188.338 360.471C172.429 336.295 146.943 350.686 164.087 308.459H189.772Z" fill="black"/>
<path opacity="0.4" d="M205.171 334.906L200.608 330.182C200.608 330.559 209.448 387.36 211.929 403.322C213.393 398.659 214.515 393.887 215.283 389.047C218.201 369.724 212.104 349.985 205.171 334.906Z" fill="black"/>
<path d="M203.787 308.459C203.787 308.459 241.592 360.211 242.664 391.24C243.549 417.194 201.518 467.48 201.518 467.48L189.298 459.253C189.298 459.253 213.899 423.54 220.096 394.367C217.702 365.454 167.079 308.459 167.079 308.459H203.787Z" fill="#407BFF"/>
<path opacity="0.6" d="M203.787 308.459C203.787 308.459 241.592 360.211 242.664 391.24C243.549 417.194 201.518 467.48 201.518 467.48L189.298 459.253C189.298 459.253 213.899 423.54 220.096 394.367C217.702 365.454 167.079 308.459 167.079 308.459H203.787Z" fill="black"/>
<path d="M157.017 246.7C152.977 247.7 149.1 262.987 149.1 262.987L164.897 273.965C164.897 273.965 170.159 261.871 168.314 256.576C166.406 251.061 162.092 245.442 157.017 246.7Z" fill="#407BFF"/>
<path opacity="0.2" d="M160.109 256.55L159.012 269.878L164.885 273.978C166.506 270.179 167.707 266.2 168.463 262.117L160.109 256.55Z" fill="black"/>
<path d="M208.463 246.999C208.463 246.999 213.126 248.699 203.787 308.446H164.062C164.735 291.575 164.748 281.194 157.017 246.7C162.58 245.507 168.218 244.735 173.887 244.391C179.894 243.942 185.923 243.942 191.929 244.391C199.685 245.13 208.463 246.999 208.463 246.999Z" fill="#407BFF"/>
<path d="M212.502 256.55C213.4 259.146 214.348 261.936 215.345 264.622C216.343 267.308 217.29 270.072 218.3 272.798L221.355 280.947L222.128 282.985L222.527 283.997L222.714 284.503C222.714 284.594 222.714 284.594 222.714 284.581C222.486 284.246 222.188 283.971 221.841 283.776C221.348 283.474 220.792 283.3 220.221 283.27C219.746 283.255 219.273 283.348 218.837 283.543C218.263 283.815 218.263 283.932 218.275 283.919C218.379 283.832 218.471 283.732 218.55 283.62C219.24 282.677 219.837 281.664 220.333 280.597C220.919 279.403 221.48 278.131 222.041 276.846C223.138 274.251 224.148 271.565 225.158 268.852C226.168 266.14 227.128 263.402 228.063 260.638L230.906 252.359L235.707 253.656C234.759 259.574 233.537 265.336 232.066 271.201C231.355 274.121 230.52 277.015 229.572 279.935C229.098 281.401 228.575 282.855 227.976 284.347C227.352 285.967 226.584 287.522 225.682 288.993C225.35 289.488 224.983 289.956 224.585 290.394C223.948 291.11 223.175 291.68 222.315 292.069C221.552 292.409 220.726 292.569 219.896 292.536C218.967 292.5 218.062 292.218 217.265 291.718C216.326 291.108 215.547 290.265 214.996 289.265C214.809 288.928 214.647 288.591 214.535 288.344L214.298 287.851L213.824 286.839L212.877 284.827C211.63 282.128 210.383 279.403 209.298 276.665C208.213 273.927 207.066 271.149 205.994 268.359C204.922 265.569 203.961 262.779 203.051 259.768L212.502 256.55Z" fill="#E58A7B"/>
<path d="M208.463 246.999C213.238 248.18 218.612 262.87 218.612 262.87L204.41 275.445C204.41 275.445 195.221 259.431 197.079 254.149C199.011 248.647 202.228 245.455 208.463 246.999Z" fill="#407BFF"/>
<path d="M233.163 247.713L238.15 243.378L241.617 248.997L239.061 253.682C239.061 253.682 234.996 257.575 231.405 255.59C230.835 254.256 230.698 252.766 231.016 251.345C231.333 249.923 232.087 248.648 233.163 247.713Z" fill="#E58A7B"/>
<path d="M247.153 243.391L246.779 244.806L238.886 246.181L238.113 243.378L247.153 243.391Z" fill="#E58A7B"/>
<path d="M202.49 468.142L188.251 458.565L190.807 453.945L206.805 464.184L202.49 468.142Z" fill="#407BFF"/>
<path d="M178.301 475.773C177.052 475.614 175.852 475.171 174.785 474.475C174.741 474.459 174.703 474.429 174.676 474.39C174.649 474.35 174.635 474.303 174.635 474.255C174.635 474.206 174.649 474.159 174.676 474.119C174.703 474.08 174.741 474.05 174.785 474.034C175.172 473.904 178.526 472.827 179.498 473.658C179.608 473.752 179.691 473.875 179.739 474.015C179.787 474.154 179.799 474.304 179.773 474.449C179.755 474.683 179.681 474.908 179.557 475.103C179.432 475.299 179.262 475.458 179.062 475.565C178.828 475.698 178.567 475.769 178.301 475.773ZM175.496 474.345C177.054 475.176 178.301 475.474 178.9 475.163C179.03 475.088 179.14 474.979 179.218 474.847C179.297 474.716 179.342 474.565 179.349 474.41C179.349 474.203 179.349 474.112 179.236 474.06C178.713 473.619 176.843 473.956 175.471 474.345H175.496Z" fill="#263238"/>
<path d="M174.872 474.566C174.806 474.565 174.744 474.537 174.698 474.488C174.679 474.452 174.669 474.412 174.669 474.371C174.669 474.33 174.679 474.29 174.698 474.254C174.698 474.138 175.508 471.322 176.78 470.686C176.942 470.609 177.119 470.569 177.297 470.569C177.476 470.569 177.652 470.609 177.815 470.686C177.99 470.743 178.142 470.86 178.245 471.018C178.349 471.175 178.4 471.364 178.388 471.555C178.301 472.723 176.019 474.332 174.972 474.605L174.872 474.566ZM177.291 471.023C177.17 471.027 177.051 471.058 176.942 471.114C176.169 471.503 175.533 473.022 175.221 473.943C176.319 473.463 177.827 472.191 177.877 471.477C177.877 471.361 177.877 471.218 177.59 471.088C177.497 471.036 177.396 471.001 177.291 470.984V471.023Z" fill="#263238"/>
<path d="M196.094 481.379C194.685 481.379 192.727 479.497 191.655 478.342C191.628 478.303 191.613 478.255 191.613 478.206C191.613 478.157 191.628 478.109 191.655 478.07C191.68 478.028 191.715 477.994 191.756 477.971C191.798 477.948 191.845 477.937 191.892 477.94C192.391 477.94 196.717 478.615 197.328 479.887C197.393 480.001 197.427 480.131 197.427 480.263C197.427 480.395 197.393 480.525 197.328 480.639C197.237 480.837 197.098 481.008 196.926 481.135C196.754 481.262 196.553 481.342 196.343 481.366L196.094 481.379ZM192.478 478.524C194.049 480.107 195.433 480.99 196.219 480.886C196.356 480.867 196.487 480.814 196.6 480.73C196.713 480.646 196.805 480.535 196.867 480.406C196.895 480.361 196.91 480.309 196.91 480.256C196.91 480.203 196.895 480.152 196.867 480.107C196.543 479.406 194.236 478.809 192.478 478.524Z" fill="#263238"/>
<path d="M192.615 478.459C192.335 478.467 192.055 478.446 191.78 478.394C191.741 478.388 191.705 478.372 191.674 478.347C191.644 478.322 191.62 478.289 191.605 478.251C191.587 478.213 191.577 478.171 191.577 478.128C191.577 478.085 191.587 478.043 191.605 478.005C191.68 477.914 193.363 475.799 194.959 475.656C195.411 475.619 195.859 475.769 196.206 476.071C196.692 476.513 196.668 476.902 196.543 477.148C196.231 478.031 194.074 478.459 192.615 478.459ZM192.291 477.979C193.687 478.057 195.919 477.577 196.206 476.941C196.206 476.941 196.306 476.733 195.982 476.448C195.853 476.331 195.702 476.243 195.539 476.189C195.376 476.136 195.204 476.118 195.034 476.136C193.959 476.448 193.002 477.096 192.291 477.992V477.979Z" fill="#263238"/>
<path d="M175.209 473.164L164.636 470.05C164.453 469.992 164.257 470.007 164.085 470.091C163.912 470.175 163.775 470.322 163.7 470.504L160.134 478.848C160.051 479.062 160.011 479.292 160.019 479.522C160.027 479.753 160.081 479.98 160.179 480.187C160.277 480.394 160.415 480.577 160.586 480.724C160.757 480.872 160.956 480.98 161.169 481.042C164.91 482.054 166.705 482.339 171.356 483.728C174.224 484.558 178.314 486.103 182.266 487.271C186.219 488.438 187.54 484.429 186.007 483.572C179.074 479.757 178.526 477.083 176.63 474.229C176.291 473.711 175.788 473.335 175.209 473.164Z" fill="#407BFF"/>
<path d="M191.942 476.824L182.914 470.335C182.761 470.219 182.573 470.166 182.384 470.185C182.196 470.204 182.021 470.295 181.892 470.439L175.907 477.135C175.761 477.308 175.652 477.512 175.588 477.732C175.523 477.952 175.505 478.184 175.533 478.413C175.561 478.641 175.636 478.86 175.752 479.056C175.868 479.252 176.023 479.42 176.206 479.549C179.386 481.768 181.032 482.664 185.009 485.532C187.503 487.297 192.328 491.216 195.695 493.655C199.061 496.095 201.567 492.747 200.371 491.423C195.009 485.467 193.837 481.729 192.952 478.342C192.798 477.728 192.44 477.19 191.942 476.824Z" fill="#407BFF"/>
<path d="M184.623 464.755L168.351 456.333L170.035 451.739L187.416 460.615L184.623 464.755Z" fill="#407BFF"/>
<path d="M163.464 306.019L162.092 309.756C161.955 310.042 162.279 310.34 162.74 310.34H203.987C204.348 310.34 204.647 310.159 204.672 309.925L205.021 306.214C205.021 305.967 204.735 305.746 204.348 305.746H164.112C163.991 305.735 163.869 305.753 163.756 305.801C163.643 305.848 163.543 305.923 163.464 306.019Z" fill="#407BFF"/>
<path opacity="0.4" d="M163.464 306.019L162.092 309.756C161.955 310.042 162.279 310.34 162.74 310.34H203.987C204.348 310.34 204.647 310.159 204.672 309.925L205.021 306.214C205.021 305.967 204.735 305.746 204.348 305.746H164.112C163.991 305.735 163.869 305.753 163.756 305.801C163.643 305.848 163.543 305.923 163.464 306.019Z" fill="white"/>
<path d="M169.96 310.704H168.875C168.663 310.704 168.501 310.587 168.513 310.444L169.025 305.63C169.025 305.5 169.224 305.383 169.436 305.383H170.521C170.733 305.383 170.895 305.5 170.882 305.63L170.371 310.444C170.359 310.587 170.172 310.704 169.96 310.704Z" fill="#407BFF"/>
<path d="M195.396 310.704H194.323C194.111 310.704 193.949 310.587 193.962 310.444L194.461 305.63C194.461 305.5 194.673 305.383 194.885 305.383H195.957C196.169 305.383 196.343 305.5 196.318 305.63L195.82 310.444C195.757 310.587 195.62 310.704 195.396 310.704Z" fill="#407BFF"/>
<g style="mix-blend-mode:multiply">
<path d="M169.012 530.471C187.46 530.471 202.415 529.344 202.415 527.954C202.415 526.563 187.46 525.436 169.012 525.436C150.564 525.436 135.609 526.563 135.609 527.954C135.609 529.344 150.564 530.471 169.012 530.471Z" fill="#F5F5F5"/>
</g>
<path d="M189.361 524.398C183.451 522.607 176.892 520.31 172.927 517.91C172.815 517.832 172.69 517.793 172.578 517.728V489.879H184.535C185.443 489.823 186.296 489.408 186.92 488.72C187.543 488.031 187.891 487.12 187.891 486.174C187.891 485.228 187.543 484.317 186.92 483.628C186.296 482.94 185.443 482.525 184.535 482.469H172.64V355.527H165.458V482.469H153.576C153.091 482.439 152.605 482.513 152.148 482.685C151.691 482.858 151.273 483.126 150.919 483.473C150.565 483.82 150.284 484.239 150.091 484.703C149.898 485.168 149.799 485.668 149.799 486.174C149.799 486.68 149.898 487.18 150.091 487.645C150.284 488.109 150.565 488.528 150.919 488.875C151.273 489.222 151.691 489.49 152.148 489.663C152.605 489.835 153.091 489.909 153.576 489.879H165.458V517.689C165.346 517.689 165.234 517.793 165.122 517.871C161.094 520.31 154.586 522.607 148.676 524.359C148.276 524.485 147.934 524.755 147.709 525.121C147.485 525.487 147.394 525.924 147.453 526.354C147.511 526.784 147.716 527.178 148.03 527.464C148.343 527.75 148.745 527.91 149.162 527.915H188.875C189.273 527.887 189.65 527.717 189.943 527.434C190.236 527.151 190.427 526.773 190.484 526.361C190.541 525.95 190.46 525.53 190.256 525.173C190.051 524.816 189.736 524.542 189.361 524.398Z" fill="#E0E0E0"/>
<path d="M191.194 342.602H146.855C143.288 342.602 140.396 345.611 140.396 349.324V363.04C140.396 366.753 143.288 369.763 146.855 369.763H191.194C194.761 369.763 197.652 366.753 197.652 363.04V349.324C197.652 345.611 194.761 342.602 191.194 342.602Z" fill="#407BFF"/>
<path d="M146.444 369.776V372.137C146.444 374.084 148.476 375.667 150.97 375.667H187.129C189.623 375.667 191.655 374.084 191.655 372.137V369.776H146.444Z" fill="#407BFF"/>
<path opacity="0.3" d="M146.444 369.776V372.137C146.444 374.084 148.476 375.667 150.97 375.667H187.129C189.623 375.667 191.655 374.084 191.655 372.137V369.776H146.444Z" fill="white"/>
</svg>
