<svg width="24" height="24" viewBox="0 0 24 24" fill="none" xmlns="http://www.w3.org/2000/svg">
<path d="M15.568 6.016C16.6374 7.08664 17.3067 8.49201 17.4639 9.99702C17.6212 11.502 17.2569 13.0154 16.432 14.284C16.576 14.404 16.696 14.536 16.864 14.656C17.104 14.848 17.428 15.088 17.836 15.364C18.244 15.652 18.508 15.832 18.628 15.928C19.132 16.3 19.504 16.612 19.756 16.864C20.14 17.248 20.476 17.644 20.764 18.064C21.064 18.484 21.292 18.892 21.472 19.312C21.64 19.732 21.724 20.128 21.688 20.512C21.664 20.896 21.52 21.22 21.256 21.484C20.992 21.748 20.668 21.892 20.284 21.916C19.912 21.94 19.504 21.868 19.096 21.688C18.676 21.52 18.256 21.28 17.848 20.98C17.428 20.692 17.032 20.356 16.648 19.972C16.396 19.72 16.084 19.348 15.724 18.856C15.604 18.7 15.424 18.436 15.16 18.064C14.896 17.68 14.68 17.38 14.488 17.128C14.296 16.888 14.14 16.708 13.96 16.528C12.7145 17.1802 11.2933 17.4178 9.90333 17.2063C8.51337 16.9948 7.22719 16.3452 6.23203 15.352C3.66403 12.772 3.66403 8.584 6.23203 6.016C6.84478 5.40252 7.57244 4.91583 8.37341 4.58378C9.17439 4.25172 10.033 4.08081 10.9 4.08081C11.7671 4.08081 12.6257 4.25172 13.4266 4.58378C14.2276 4.91583 14.9553 5.40252 15.568 6.016ZM13.876 13.648C14.66 12.8583 15.0999 11.7907 15.0999 10.678C15.0999 9.56527 14.66 8.49767 13.876 7.708C13.4864 7.31723 13.0235 7.00719 12.5139 6.79564C12.0042 6.5841 11.4578 6.4752 10.906 6.4752C10.3542 6.4752 9.80783 6.5841 9.29818 6.79564C8.78853 7.00719 8.32564 7.31723 7.93603 7.708C7.54526 8.09761 7.23522 8.5605 7.02368 9.07015C6.81213 9.5798 6.70324 10.1262 6.70324 10.678C6.70324 11.2298 6.81213 11.7762 7.02368 12.2858C7.23522 12.7955 7.54526 13.2584 7.93603 13.648C8.32564 14.0388 8.78853 14.3488 9.29818 14.5604C9.80783 14.7719 10.3542 14.8808 10.906 14.8808C11.4578 14.8808 12.0042 14.7719 12.5139 14.5604C13.0235 14.3488 13.4864 14.0388 13.876 13.648Z" fill="white"/>
</svg>
