<svg width="48" height="48" viewBox="0 0 48 48" fill="none" xmlns="http://www.w3.org/2000/svg">
<path fill-rule="evenodd" clip-rule="evenodd" d="M14.4 4.80005C13.127 4.80005 11.9061 5.30576 11.0059 6.20594C10.1057 7.10611 9.60001 8.32701 9.60001 9.60005V38.4C9.60001 39.6731 10.1057 40.894 11.0059 41.7942C11.9061 42.6943 13.127 43.2 14.4 43.2H33.6C34.873 43.2 36.0939 42.6943 36.9941 41.7942C37.8943 40.894 38.4 39.6731 38.4 38.4V17.7936C38.3997 16.5207 37.8938 15.3 36.9936 14.4L28.8 6.20645C27.9 5.30621 26.6793 4.80032 25.4064 4.80005H14.4ZM19.2 28.8C19.2 28.1635 18.9471 27.5531 18.4971 27.103C18.047 26.6529 17.4365 26.4 16.8 26.4C16.1635 26.4 15.553 26.6529 15.103 27.103C14.6529 27.5531 14.4 28.1635 14.4 28.8V36C14.4 36.6366 14.6529 37.247 15.103 37.6971C15.553 38.1472 16.1635 38.4 16.8 38.4C17.4365 38.4 18.047 38.1472 18.4971 37.6971C18.9471 37.247 19.2 36.6366 19.2 36V28.8ZM24 21.6C24.6365 21.6 25.247 21.8529 25.6971 22.303C26.1471 22.7531 26.4 23.3635 26.4 24V36C26.4 36.6366 26.1471 37.247 25.6971 37.6971C25.247 38.1472 24.6365 38.4 24 38.4C23.3635 38.4 22.753 38.1472 22.303 37.6971C21.8529 37.247 21.6 36.6366 21.6 36V24C21.6 23.3635 21.8529 22.7531 22.303 22.303C22.753 21.8529 23.3635 21.6 24 21.6V21.6ZM33.6 19.2C33.6 18.5635 33.3472 17.9531 32.8971 17.503C32.447 17.0529 31.8365 16.8 31.2 16.8C30.5635 16.8 29.953 17.0529 29.503 17.503C29.0529 17.9531 28.8 18.5635 28.8 19.2V36C28.8 36.6366 29.0529 37.247 29.503 37.6971C29.953 38.1472 30.5635 38.4 31.2 38.4C31.8365 38.4 32.447 38.1472 32.8971 37.6971C33.3472 37.247 33.6 36.6366 33.6 36V19.2Z" fill="white"/>
</svg>
