<svg width="24" height="24" viewBox="0 0 24 24" fill="none" xmlns="http://www.w3.org/2000/svg">
<path d="M0.75 15.163C0.948912 15.163 1.13968 15.235 1.28033 15.3631C1.42098 15.4912 1.5 15.665 1.5 15.8462V19.2625C1.5 19.6249 1.65804 19.9725 1.93934 20.2288C2.22064 20.4851 2.60218 20.629 3 20.629H21C21.3978 20.629 21.7794 20.4851 22.0607 20.2288C22.342 19.9725 22.5 19.6249 22.5 19.2625V15.8462C22.5 15.665 22.579 15.4912 22.7197 15.3631C22.8603 15.235 23.0511 15.163 23.25 15.163C23.4489 15.163 23.6397 15.235 23.7803 15.3631C23.921 15.4912 24 15.665 24 15.8462V19.2625C24 19.9874 23.6839 20.6825 23.1213 21.1951C22.5587 21.7076 21.7956 21.9955 21 21.9955H3C2.20435 21.9955 1.44129 21.7076 0.87868 21.1951C0.316071 20.6825 0 19.9874 0 19.2625V15.8462C0 15.665 0.0790176 15.4912 0.21967 15.3631C0.360322 15.235 0.551088 15.163 0.75 15.163V15.163Z" fill="white"/>
<path d="M11.469 3.20073C11.5386 3.1371 11.6214 3.08662 11.7125 3.05217C11.8036 3.01773 11.9013 3 12 3C12.0986 3 12.1963 3.01773 12.2874 3.05217C12.3785 3.08662 12.4613 3.1371 12.531 3.20073L17.031 7.30019C17.1718 7.42849 17.2509 7.60249 17.2509 7.78393C17.2509 7.96537 17.1718 8.13937 17.031 8.26767C16.8901 8.39596 16.6991 8.46804 16.5 8.46804C16.3008 8.46804 16.1098 8.39596 15.969 8.26767L12.75 5.33382V17.3493C12.75 17.5306 12.671 17.7043 12.5303 17.8325C12.3896 17.9606 12.1989 18.0326 12 18.0326C11.8011 18.0326 11.6103 17.9606 11.4696 17.8325C11.329 17.7043 11.25 17.5306 11.25 17.3493V5.33382L8.03097 8.26767C7.96124 8.33119 7.87846 8.38158 7.78735 8.41596C7.69624 8.45034 7.59859 8.46804 7.49997 8.46804C7.40136 8.46804 7.3037 8.45034 7.2126 8.41596C7.12149 8.38158 7.0387 8.33119 6.96897 8.26767C6.89924 8.20414 6.84392 8.12873 6.80619 8.04573C6.76845 7.96273 6.74902 7.87377 6.74902 7.78393C6.74902 7.69409 6.76845 7.60513 6.80619 7.52213C6.84392 7.43913 6.89924 7.36372 6.96897 7.30019L11.469 3.20073Z" fill="white"/>
</svg>
