<svg width="249" height="250" viewBox="0 0 249 250" fill="none" xmlns="http://www.w3.org/2000/svg">
<path d="M238.309 125C244.378 125 249.347 129.929 248.817 135.974C246.737 159.703 237.942 182.424 223.364 201.398C206.552 223.281 182.995 238.944 156.381 245.936C129.766 252.929 101.597 250.855 76.2798 240.041C50.963 229.227 29.9277 210.282 16.4661 186.17C3.00446 162.059 -2.12397 134.143 1.88342 106.79C5.8908 79.4374 18.8078 54.1917 38.6131 35.004C58.4183 15.8162 83.9941 3.76927 111.338 0.74839C135.036 -1.8697 158.903 2.41983 180.13 12.9878C185.565 15.6937 187.182 22.5033 184.03 27.6926C180.858 32.9149 174.065 34.5029 168.542 31.8895C151.53 23.8401 132.57 20.6228 113.739 22.7032C91.2267 25.1903 70.1701 35.1086 53.8644 50.9059C37.5587 66.7033 26.924 87.4882 23.6247 110.008C20.3254 132.528 24.5477 155.511 35.6307 175.362C46.7137 195.213 64.0321 210.81 84.8755 219.714C105.719 228.617 128.911 230.324 150.823 224.567C172.734 218.811 192.129 205.915 205.971 187.899C217.577 172.793 224.73 154.803 226.738 135.968C227.382 129.933 232.241 125 238.309 125Z" fill="url(#paint0_linear_1_455)"/>
<defs>
<linearGradient id="paint0_linear_1_455" x1="0.556641" y1="125" x2="249.237" y2="132.584" gradientUnits="userSpaceOnUse">
<stop stop-color="#1669AD"/>
<stop offset="1" stop-color="#4484BA"/>
</linearGradient>
</defs>
</svg>
