<svg width="24" height="22" viewBox="0 0 24 22" fill="none" xmlns="http://www.w3.org/2000/svg">
<g clip-path="url(#clip0_1_576)">
<path d="M16.775 3.46668L20.5333 7.22501C20.6917 7.38335 20.6917 7.64168 20.5333 7.80001L11.4333 16.9L7.56667 17.3292C7.05 17.3875 6.6125 16.95 6.67083 16.4333L7.1 12.5667L16.2 3.46668C16.3583 3.30835 16.6167 3.30835 16.775 3.46668ZM23.525 2.51251L21.4917 0.479181C20.8583 -0.154152 19.8292 -0.154152 19.1917 0.479181L17.7167 1.95418C17.5583 2.11251 17.5583 2.37085 17.7167 2.52918L21.475 6.28751C21.6333 6.44585 21.8917 6.44585 22.05 6.28751L23.525 4.81251C24.1583 4.17501 24.1583 3.14585 23.525 2.51251ZM16 14.425V18.6667H2.66667V5.33335H12.2417C12.375 5.33335 12.5 5.27918 12.5958 5.18751L14.2625 3.52085C14.5792 3.20418 14.3542 2.66668 13.9083 2.66668H2C0.895833 2.66668 0 3.56251 0 4.66668V19.3333C0 20.4375 0.895833 21.3333 2 21.3333H16.6667C17.7708 21.3333 18.6667 20.4375 18.6667 19.3333V12.7583C18.6667 12.3125 18.1292 12.0917 17.8125 12.4042L16.1458 14.0708C16.0542 14.1667 16 14.2917 16 14.425Z" fill="url(#paint0_linear_1_576)"/>
</g>
<defs>
<linearGradient id="paint0_linear_1_576" x1="-6.63692e-10" y1="10.6688" x2="23.9879" y2="11.4961" gradientUnits="userSpaceOnUse">
<stop stop-color="#1669AD"/>
<stop offset="1" stop-color="#4484BA"/>
</linearGradient>
<clipPath id="clip0_1_576">
<rect width="24" height="21.3333" fill="white"/>
</clipPath>
</defs>
</svg>
