<svg width="49" height="48" viewBox="0 0 49 48" fill="none" xmlns="http://www.w3.org/2000/svg">
<path d="M48.0819 24C48.0819 36.9811 37.6124 47.5 24.7028 47.5C11.7933 47.5 1.32373 36.9811 1.32373 24C1.32373 11.0189 11.7933 0.5 24.7028 0.5C37.6124 0.5 48.0819 11.0189 48.0819 24Z" fill="#FFFCFC" stroke="#1A6BAF"/>
<path d="M13 18C13 17.2044 13.3161 16.4413 13.8787 15.8787C14.4413 15.3161 15.2044 15 16 15H34C34.7956 15 35.5587 15.3161 36.1213 15.8787C36.6839 16.4413 37 17.2044 37 18V19.5H13V18ZM13 22.5V30C13 30.7956 13.3161 31.5587 13.8787 32.1213C14.4413 32.6839 15.2044 33 16 33H34C34.7956 33 35.5587 32.6839 36.1213 32.1213C36.6839 31.5587 37 30.7956 37 30V22.5H13ZM17.5 25.5H19C19.3978 25.5 19.7794 25.658 20.0607 25.9393C20.342 26.2206 20.5 26.6022 20.5 27V28.5C20.5 28.8978 20.342 29.2794 20.0607 29.5607C19.7794 29.842 19.3978 30 19 30H17.5C17.1022 30 16.7206 29.842 16.4393 29.5607C16.158 29.2794 16 28.8978 16 28.5V27C16 26.6022 16.158 26.2206 16.4393 25.9393C16.7206 25.658 17.1022 25.5 17.5 25.5Z" fill="#1A6BAF"/>
</svg>
