<svg width="48" height="48" viewBox="0 0 48 48" fill="none" xmlns="http://www.w3.org/2000/svg">
<path d="M47.2582 24C47.2582 36.9811 36.7886 47.5 23.8791 47.5C10.9696 47.5 0.5 36.9811 0.5 24C0.5 11.0189 10.9696 0.5 23.8791 0.5C36.7886 0.5 47.2582 11.0189 47.2582 24Z" fill="#FFFCFC" stroke="#1A6BAF"/>
<path d="M17 15.25C16.0717 15.25 15.1815 15.6187 14.5251 16.2751C13.8687 16.9315 13.5 17.8217 13.5 18.75V19.1018L24 24.756L34.5 19.1035V18.75C34.5 17.8217 34.1312 16.9315 33.4749 16.2751C32.8185 15.6187 31.9283 15.25 31 15.25H17Z" fill="#1A6BAF"/>
<path d="M34.5 21.0898L24.4148 26.52C24.2873 26.5886 24.1448 26.6245 24 26.6245C23.8552 26.6245 23.7127 26.5886 23.5852 26.52L13.5 21.0898V29.25C13.5 30.1783 13.8687 31.0685 14.5251 31.7249C15.1815 32.3813 16.0717 32.75 17 32.75H31C31.9283 32.75 32.8185 32.3813 33.4749 31.7249C34.1313 31.0685 34.5 30.1783 34.5 29.25V21.0898Z" fill="#1A6BAF"/>
</svg>
