<svg width="20" height="20" viewBox="0 0 20 20" fill="none" xmlns="http://www.w3.org/2000/svg">
<path d="M14.8559 5.91667L19.3518 10.35L14.8559 14.75V11.8H8.12839V8.86667H14.8559V5.91667ZM12.1519 14.45L13.8785 16.2333C12.1844 17.8555 10.3492 18.6666 8.37273 18.6666C6.0162 18.6666 4.03162 17.8694 2.41897 16.275C0.806323 14.6805 0 12.6888 0 10.3C0 8.8 0.369225 7.41111 1.10768 6.13333C1.84613 4.85556 2.84249 3.84722 4.09677 3.10833C5.35105 2.36945 6.71122 2 8.17726 2C10.1754 2 12.0704 2.82222 13.8622 4.46667L12.1519 6.23333C10.9139 5.07778 9.59443 4.5 8.19355 4.5C6.57547 4.5 5.20988 5.07778 4.09677 6.23333C2.98367 7.38889 2.42711 8.8 2.42711 10.4667C2.42711 12.0222 2.99996 13.3611 4.14564 14.4833C5.29133 15.6055 6.6352 16.1666 8.17726 16.1666C9.59986 16.1666 10.9247 15.5944 12.1519 14.45Z" fill="#A2A2A2"/>
</svg>
