<svg width="189" height="44" viewBox="0 0 189 44" fill="none" xmlns="http://www.w3.org/2000/svg">
<path d="M40 22.0032C40 33.2119 31.0457 42.2983 20 42.2983C8.9543 42.2983 0 33.2119 0 22.0032C0 10.7945 8.9543 1.70813 20 1.70813C31.0457 1.70813 40 10.7945 40 22.0032ZM7.06405 22.0032C7.06405 29.2529 12.8557 35.13 20 35.13C27.1443 35.13 32.936 29.2529 32.936 22.0032C32.936 14.7535 27.1443 8.8764 20 8.8764C12.8557 8.8764 7.06405 14.7535 7.06405 22.0032Z" fill="white"/>
<path d="M72.596 12.2335V31.6935H69.404V18.3655L63.468 31.6935H61.256L55.292 18.3655V31.6935H52.1V12.2335H55.544L62.376 27.4935L69.18 12.2335H72.596ZM91.2114 12.2335L84.7714 24.6375V31.6935H81.5794V24.6375L75.1114 12.2335H78.6674L83.1754 21.7815L87.6834 12.2335H91.2114ZM113.59 12.2335V14.8375H108.41V31.6935H105.218V14.8375H100.01V12.2335H113.59ZM132.363 12.2335V31.6935H129.171V23.1815H120.015V31.6935H116.823V12.2335H120.015V20.5775H129.171V12.2335H132.363ZM139.757 14.8095V20.5215H146.477V23.1255H139.757V29.0895H147.317V31.6935H136.565V12.2055H147.317V14.8095H139.757ZM171.744 12.2335V31.6935H168.552V18.3655L162.616 31.6935H160.404L154.44 18.3655V31.6935H151.248V12.2335H154.692L161.524 27.4935L168.328 12.2335H171.744ZM179.132 14.8095V20.5215H185.852V23.1255H179.132V29.0895H186.692V31.6935H175.94V12.2055H186.692V14.8095H179.132Z" fill="white"/>
</svg>
