<svg width="25" height="24" viewBox="0 0 25 24" fill="none" xmlns="http://www.w3.org/2000/svg">
<path d="M6.5 4.5C5.70435 4.5 4.94129 4.81607 4.37868 5.37868C3.81607 5.94129 3.5 6.70435 3.5 7.5V7.8015L12.5 12.648L21.5 7.803V7.5C21.5 6.70435 21.1839 5.94129 20.6213 5.37868C20.0587 4.81607 19.2956 4.5 18.5 4.5H6.5Z" fill="white"/>
<path d="M21.5 9.50549L12.8555 14.16C12.7462 14.2188 12.6241 14.2496 12.5 14.2496C12.3759 14.2496 12.2538 14.2188 12.1445 14.16L3.5 9.50549V16.5C3.5 17.2956 3.81607 18.0587 4.37868 18.6213C4.94129 19.1839 5.70435 19.5 6.5 19.5H18.5C19.2956 19.5 20.0587 19.1839 20.6213 18.6213C21.1839 18.0587 21.5 17.2956 21.5 16.5V9.50549Z" fill="white"/>
</svg>
