<svg id="e9NTIsgzqiC1" xmlns="http://www.w3.org/2000/svg" xmlns:xlink="http://www.w3.org/1999/xlink" viewBox="0 0 624 600" shape-rendering="geometricPrecision" text-rendering="geometricPrecision"><circle r="300" transform="translate(306 300)" fill="#fff" fill-opacity="0.3"/><path d="M623.431,482.871h-623.431v.324h623.431v-.324Z" fill="#e6e6e6"/><path d="M155.633,502.506h-41.296v.323h41.296v-.323Z" fill="#e6e6e6"/><path d="M101.27,502.506h-23.9272v.323h23.9272v-.323Z" fill="#e6e6e6"/><path d="M262.527,507.281h-23.928v.324h23.928v-.324Z" fill="#e6e6e6"/><path d="M387.288,514.522h-53.852v.324h53.852v-.324Z" fill="#e6e6e6"/><path d="M322.339,514.522h-7.893v.324h7.893v-.324Z" fill="#e6e6e6"/><path d="M565.265,507.281h-116.806v.324h116.806v-.324Z" fill="#e6e6e6"/><path d="M295.506,424.993h-240.7563c-1.8861-.003-3.6938-.785-5.0263-2.175-1.3324-1.389-2.0808-3.272-2.0808-5.235v-352.2379c.0164-1.9518.772-3.8179,2.1027-5.1932s3.1291-2.1486,5.0044-2.1519h240.7563c1.888,0,3.699.7807,5.035,2.1703c1.335,1.3897,2.085,3.2744,2.085,5.2396v352.1731c0,1.966-.75,3.85-2.085,5.24-1.336,1.39-3.147,2.17-5.035,2.17ZM54.7497,58.2595c-1.8034.0035-3.5318.7515-4.8058,2.0799s-1.9896,3.1287-1.9896,5.0057v352.2379c0,1.877.7155,3.678,1.9896,5.006s3.0024,2.076,4.8058,2.08h240.7563c1.805-.004,3.534-.751,4.81-2.079s1.995-3.129,1.998-5.007v-352.2379c-.003-1.8782-.722-3.6784-1.998-5.0065s-3.005-2.0756-4.81-2.0791h-240.7563Z" fill="#e6e6e6"/><path d="M565.215,424.993h-240.769c-1.887-.003-3.696-.785-5.031-2.174-1.334-1.389-2.086-3.271-2.089-5.236v-352.2379c.02-1.953.778-3.8191,2.111-5.194s3.132-2.1478,5.009-2.1511h240.769c1.873.0068,3.668.7815,4.996,2.1564s2.082,3.2392,2.098,5.1887v352.2379c0,1.961-.746,3.842-2.076,5.231s-3.134,2.172-5.018,2.179ZM324.446,58.2595c-1.805.0035-3.534.7511-4.811,2.0791-1.276,1.3281-1.994,3.1283-1.997,5.0065v352.2379c.003,1.878.721,3.679,1.997,5.007c1.277,1.328,3.006,2.075,4.811,2.079h240.769c1.804-.004,3.534-.751,4.81-2.079s1.994-3.129,1.998-5.007v-352.2379c-.004-1.8782-.722-3.6784-1.998-5.0065s-3.006-2.0756-4.81-2.0791h-240.769Z" fill="#e6e6e6"/><path d="M333.411,372.021h-27.419v113.199h27.419v-113.199Z" fill="#e0e0e0"/><path d="M328.199,485.22h5.212v-15.417h-10.673l5.461,15.417Z" fill="#fafafa"/><path d="M213.263,372.021h-27.418v113.199h27.418v-113.199Z" fill="#e0e0e0"/><path d="M333.411,372.021h-124.686v103.739h124.686v-103.739Z" fill="#fafafa"/><path d="M328.885,377.121v27.446h-115.672v-27.446h115.634.038Zm.449-.506h-116.57v28.445h116.607v-28.445h-.037Z" fill="#e0e0e0"/><path d="M213.924,485.22h-5.199v-15.417h10.66l-5.461,15.417Z" fill="#fafafa"/><path d="M268.312,390.837c0,.568.162,1.122.464,1.594.303.471.734.839,1.237,1.056.504.217,1.058.274,1.592.163.535-.11,1.026-.384,1.411-.785s.648-.912.754-1.468c.107-.556.052-1.133-.157-1.657-.208-.524-.561-.972-1.015-1.287-.453-.315-.985-.484-1.53-.484-.731,0-1.432.303-1.949.841-.517.537-.807,1.267-.807,2.027Z" fill="#e6e6e6"/><path d="M328.885,410.16v27.447h-115.672v-27.447h115.634.038Zm.449-.493h-116.57v28.446h116.607v-28.433l-.037-.013Z" fill="#e0e0e0"/><path d="M268.312,423.955c0,.567.162,1.122.464,1.593.303.472.734.84,1.237,1.057.504.217,1.058.274,1.592.163.535-.111,1.026-.384,1.411-.785s.648-.912.754-1.468c.107-.557.052-1.133-.157-1.657-.208-.524-.561-.972-1.015-1.288-.453-.315-.985-.483-1.53-.483-.731,0-1.432.302-1.949.84s-.807,1.267-.807,2.028Z" fill="#e6e6e6"/><path d="M328.885,443.213v27.46h-115.672v-27.46h115.634.038Zm.449-.506h-116.57v28.459h116.607v-28.459h-.037Z" fill="#e0e0e0"/><path d="M268.312,456.943c.003.567.166,1.12.47,1.59.305.47.736.835,1.24,1.05.503.215,1.057.27,1.591.158.533-.112,1.023-.386,1.407-.788.385-.401.646-.912.751-1.468s.05-1.132-.159-1.655c-.209-.524-.562-.971-1.015-1.285-.453-.315-.985-.483-1.529-.483-.363,0-.723.075-1.058.22s-.639.357-.895.625c-.256.267-.459.585-.597.934-.138.35-.208.724-.206,1.102Z" fill="#e6e6e6"/><path d="M196.518,306.278h-27.419v178.955h27.419v-178.955Z" fill="#e0e0e0"/><path d="M191.306,485.22h5.212v-15.417h-10.661l5.449,15.417Z" fill="#fafafa"/><path d="M94.0508,306.278h-27.4185v178.955h27.4185v-178.955Z" fill="#e0e0e0"/><path d="M196.518,306.278h-107.0182v169.495h107.0182v-169.495Z" fill="#fafafa"/><path d="M191.905,311.054v38.373h-97.7919v-38.373h97.7919Zm.573-.584h-98.9634v39.515h98.9384v-39.502l.025-.013Z" fill="#e0e0e0"/><path d="M191.905,354.112v101.78h-46.583v-101.78h46.583Zm.573-.597h-47.717v102.974h47.717v-102.974Z" fill="#e0e0e0"/><path d="M140.696,354.112v101.78h-46.5829v-101.78h46.5829Zm.561-.597h-47.7424v102.974h47.7174v-102.974h.025Z" fill="#e0e0e0"/><path d="M94.7116,485.22h-5.2118v-15.417h10.6732L94.7116,485.22Z" fill="#fafafa"/><path d="M140.247,330.26c-.002.571.158,1.129.461,1.604.302.476.734.847,1.239,1.067.506.22,1.063.279,1.6.169.538-.109,1.033-.383,1.421-.785s.653-.916.761-1.475.054-1.139-.155-1.666c-.21-.527-.564-.978-1.02-1.295-.455-.317-.991-.487-1.539-.487-.732,0-1.434.302-1.953.84-.519.537-.812,1.266-.815,2.028Z" fill="#e6e6e6"/><path d="M150.122,402.582c0,.57.163,1.128.467,1.602.305.474.738.843,1.245,1.061.506.217,1.063.274,1.601.161.537-.112,1.03-.388,1.417-.792.386-.404.649-.918.754-1.478.106-.56.049-1.14-.162-1.666-.212-.526-.568-.975-1.025-1.29s-.993-.482-1.541-.479c-.363,0-.723.074-1.058.219s-.639.358-.895.625c-.256.268-.459.586-.597.935-.137.35-.208.724-.206,1.102Z" fill="#e6e6e6"/><path d="M130.384,402.582c.003.566.166,1.12.471,1.59.304.469.735.835,1.239,1.05s1.057.27,1.591.158s1.024-.386,1.408-.788.645-.913.75-1.468c.106-.556.05-1.132-.159-1.656-.208-.523-.562-.97-1.015-1.285-.452-.314-.985-.482-1.529-.482-.363,0-.722.074-1.058.219-.335.145-.639.358-.895.625-.256.268-.459.586-.597.935-.137.35-.207.724-.206,1.102Z" fill="#e6e6e6"/><path d="M127.267,256.381h-11.558c1.065,5.836,1.736,11.742,2.007,17.675c0,6.489-8.803,32.222,3.741,32.222c12.543,0,3.74-25.668,3.74-32.222.292-5.934.984-11.841,2.07-17.675Z" fill="#e0e0e0"/><path d="M83.2903,282.699v7.786c.0131,4.174,1.6121,8.174,4.448,11.125c2.8359,2.952,6.6784,4.616,10.6889,4.63h7.4808c4.011-.014,7.853-1.678,10.689-4.63c2.836-2.951,4.435-6.951,4.448-11.125v-7.786h-37.7547Z" fill="#f5f5f5"/><path d="M243.973,355.514c0,9.084,9.763,16.507,21.696,16.507h10.773c11.932,0,21.695-7.423,21.695-16.507h-54.164Z" fill="#e0e0e0"/><path id="e9NTIsgzqiC37" d="M508.944,292.847c-7.341,18.563-11.879,38.196-13.454,58.203c0-14.275.1-27.252.15-37.323.174-32.845.711-43.447.972-46.717c1.01-1.661,2.195-3.595,2.893-4.633c5.86-8.825,8.117-16.325,13.628-29.484c7.831-18.622,14.564-51.701,12.594-50.04-8.205,6.956-14.663,21.879-23.167,40.917-8.504,19.037-6.072,29.977-7.756,46.224-.349,3.193-.623,15.236-.822,31.911-2.195-17.778-6.335-29.484-13.878-40.125-9.277-13.094-18.254-21.931-24.837-26.551-6.584-4.62,11.371,27.537,19.949,41.527c7.644,12.509,14.688,23.527,18.703,34.389-.212,22.619-.312,51.247-.312,77.863-1.97-12.121-5.186-25.189-9.476-35.298-5.162-12.147-13.092-30.782-19.413-37.102-1.509-1.518,6.608,34.727,11.82,44.356s9.04,18.726,12.319,24.189c.761,1.298,3.304,6.191,4.75,9.02c0,32.533.175,61.239.449,71.01h1.347c-.087-2.517-.112-19.076-.075-40.981c3.254-11.887,10.686-25.461,16.82-37.842c6.683-13.405,23.815-49.676,17.282-44.161-6.534,5.554-15.561,15.715-23.815,30.016-5.511,9.525-8.828,19.466-10.287,32.677c0-14.924.087-30.951.137-46.082c1.659-3.893,5.449-12.873,8.167-19.959c9.065-23.657,12.469-29.484,20.611-49.884c10.885-27.252,22.032-59.513,18.84-56.931-6.509,5.256-31.446,53.855-34.139,60.811" transform="translate(.000017 0.000001)" fill="#e0e0e0"/><path d="M514.256,485.22h-39.077l-2.955-39.866h44.987l-2.955,39.866Z" fill="#f0f0f0"/><path d="M520.116,450h-50.81l-1.446-13.457h53.715L520.116,450Z" fill="#f5f5f5"/><path d="M154.935,84.6031h-69.8867v79.8739h69.8867v-79.8739Z" fill="#e0e0e0"/><path d="M162.504,84.6031h-72.1937v79.8739h72.1937v-79.8739Z" fill="#f5f5f5"/><path d="M156.456,158.183v-67.286h-60.0984v67.286h60.0984Z" fill="#fff"/><path id="e9NTIsgzqiC43" d="M141.88,141.858v-34.662h-30.959v34.662h30.959Z" opacity="0.3" fill="#f5f5f5"/><path d="M511.275,93.9077h-64.924v74.2033h64.924v-74.2033Z" fill="#e0e0e0"/><path d="M518.308,93.9077h-67.056v74.2033h67.056v-74.2033Z" fill="#f5f5f5"/><path d="M512.697,162.258v-62.4976h-55.822v62.4976h55.822Z" fill="#fff"/><path d="M484.78,149.138c9.62,0,17.418-8.116,17.418-18.129c0-10.012-7.798-18.129-17.418-18.129s-17.419,8.117-17.419,18.129c0,10.013,7.799,18.129,17.419,18.129Z" fill="#f5f5f5"/><path d="M227.54,132.229h-51.845v59.254h51.845v-59.254Z" fill="#e0e0e0"/><path d="M233.151,132.229h-53.553v59.254h53.553v-59.254Z" fill="#f5f5f5"/><path d="M228.662,186.811v-49.91h-44.575v49.91h44.575Z" fill="#fff"/><path d="M206.381,149.229l-12.195,21.984h24.389l-12.194-21.984Z" fill="#f5f5f5"/><path d="M311.715,541.476c133.517,0,241.754-6.577,241.754-14.69s-108.237-14.69-241.754-14.69-241.7536,6.577-241.7536,14.69s108.2366,14.69,241.7536,14.69Z" fill="#f5f5f5"/><path d="M435.466,198.711l-12.368-5.191c0,0-16.322,30.977-20.998,32.547-6.359,2.128-19.525,8.046-27.331,9.084-1.06,1.298-2.793,5.333-2.631,6.8c10.486,3.646,33.528-1.194,38.466-5.009c11.234-8.656,24.862-38.231,24.862-38.231Z" fill="#e58a7b"/><path d="M439.269,191.664c2.307,8.864-10.187,26.694-10.187,26.694l-16.371-9.551c0,0,3.067-7.332,6.808-14.794c5.997-12.055,17.119-12.458,19.75-2.349Z" fill="#407bff"/><path d="M439.269,191.664c2.307,8.864-10.187,26.694-10.187,26.694l-16.371-9.551c0,0,3.067-7.332,6.808-14.794c5.997-12.055,17.119-12.458,19.75-2.349Z" opacity="0.2"/><path d="M419.207,212.623l6.447,3.763l1.134-20.595c-3.753,2.998-6.396,12.03-7.581,16.832Z" opacity="0.2"/><path d="M428.496,184.994c0,0-12.742,29.51-5.311,84.455h50.211c.798-8.019-1.845-47.158,7.718-84.948-5.508-1.12-11.081-1.862-16.683-2.219-7.105-.429-14.229-.429-21.334,0-4.925.521-9.806,1.427-14.601,2.712Z" fill="#407bff"/><path d="M428.496,184.994c0,0-12.742,29.51-5.311,84.455h50.211c.798-8.019-1.845-47.158,7.718-84.948-5.508-1.12-11.081-1.862-16.683-2.219-7.105-.429-14.229-.429-21.334,0-4.925.521-9.806,1.427-14.601,2.712Z" transform="translate(-.762789 0)" opacity="0.2"/><g style="mix-blend-mode:multiply"><path d="M416.851,527.954c-.075,1.401,18.965,2.53,42.518,2.53s42.73-1.129,42.805-2.53c.074-1.402-18.953-2.518-42.518-2.518-23.566,0-42.718,1.129-42.805,2.518Z" fill="#e8ecf1"/></g><path d="M450.367,491.128l-8.905,3.588l7.671,20.626l8.905-3.588-7.671-20.626Z" fill="#e58a7b"/><path d="M490.079,517.974h-9.389l-3.441-22.619h9.389l3.441,22.619Z" fill="#e58a7b"/><path d="M480.042,516.845h10.548c.183.001.36.069.499.193.14.123.232.294.262.482l1.359,8.682c.028.218.012.439-.049.65-.061.21-.165.405-.305.57-.139.165-.311.296-.504.386s-.402.135-.614.133c-3.678-.065-5.448-.299-10.087-.299-2.855,0-8.728.312-12.693.312s-4.227-4.049-2.593-4.425c7.331-1.648,10.174-3.894,12.618-6.074.431-.394.985-.61,1.559-.61Z" fill="#263238"/><path d="M448.87,513.497l9.975-3.036c.178-.053.368-.04.538.036.17.075.31.209.397.379l3.741,7.786c.087.198.131.413.13.63s-.048.432-.137.628c-.089.197-.218.37-.379.51-.16.139-.348.24-.549.296-3.629,1.038-6.06,1.674-10.599,3.049-3.129.948-6.321,2.492-9.413,3.517-2.145.714-7.182.74-9.788.74-3.853,0-4.713-4.231-3.055-4.426c4.177-.48,4.738-.259,7.045-1.466c3.774-1.717,7.195-4.176,10.074-7.241.543-.644,1.24-1.128,2.02-1.402Z" fill="#263238"/><path d="M376.34,235.099l-10.324-4.503-4.251,11.913c4.231.671,8.536.671,12.767,0l1.808-7.41Z" fill="#e58a7b"/><path d="M358.336,230.284l-.275,7.916l3.703,4.283l4.252-11.913-7.68-.286Z" fill="#e58a7b"/><path d="M451.589,492.88l-8.933,3.589l3.956,10.666l8.933-3.59-3.956-10.665Z" fill="#cf6f64"/><path d="M486.638,495.355h-9.389l1.783,11.667h9.389l-1.783-11.667Z" fill="#cf6f64"/><path d="M421.589,254.591c.187,2.348.399,4.749.673,7.215l37.331-12.614c5.83-1.798,10.897-5.611,14.364-10.81.15-3.465.337-7.111.623-10.914.125-1.842.275-3.737.437-5.658.162-1.92.386-4.049.623-6.099l-54.051,38.88Z" opacity="0.2"/><g id="e9NTIsgzqiC70" transform="translate(0 0.000001)"><path d="M433.783,212.026l-1.247-.156c.736-6.489,5.387-11.602,10.287-11.472v1.298c-4.289-.091-8.379,4.516-9.04,10.33Z" fill="#fff"/><path d="M440.429,224.003h-.212v-1.297c4.289.168,8.317-4.49,8.977-10.291l1.247.156c-.661,6.345-5.162,11.432-10.012,11.432Z" fill="#fff"/></g><g id="e9NTIsgzqiC73" transform="translate(.000001 0.000008)"><g transform="translate(.000001 0)"><path d="M463.733,157.275c-1.758,7.15-3.828,20.244.698,25.007c0,0-3.167,7.254-15.922,7.254-11.659,0-5.412-7.254-5.412-7.254c7.756-1.895,7.893-7.786,6.87-13.366l13.766-11.641Z" fill="#e58a7b"/><path d="M458.122,162.025l-8.142,6.891c.252,1.282.398,2.584.436,3.893c2.382,2.465,7.157-3.777,7.643-6.969.248-1.257.269-2.55.063-3.815Z" fill="#cf6f64"/><path d="M435.978,157.184c.566,1.022,1.329,1.912,2.241,2.613s1.953,1.199,3.058,1.462c2.992.688,4.489-2.18,3.666-5.061-.736-2.595-3.192-6.086-6.235-5.489-.651.139-1.261.44-1.779.875-.517.436-.926.994-1.194,1.628-.267.634-.385,1.326-.343,2.017.043.691.243,1.361.586,1.955Z" fill="#cf6f64"/><path d="M440.928,134.306c-4.664,2.219-6.309,21.503-.449,24.358s9.276-28.576.449-24.358Z" fill="#263238"/><path d="M465.154,146.517c-1.122,9.681-1.247,15.378-6.234,20.335-1.546,1.645-3.498,2.814-5.641,3.377-2.144.563-4.395.498-6.505-.186-2.111-.685-3.998-1.963-5.455-3.694-1.456-1.731-2.424-3.847-2.798-6.115-1.508-8.695.574-23.06,9.9-26.915c1.96-.899,4.115-1.237,6.242-.978s4.149,1.106,5.856,2.452c1.707,1.347,3.037,3.144,3.852,5.205s1.085,4.312.783,6.519Z" fill="#e58a7b"/><path d="M449.83,139.315c6.908-1.83,11.983-3.076,10.162,2.907-2.406,7.994-5.299,15.728-1.421,16.078c2.369.221,12.843-4.399,11.508-9.084-1.159-4.075,3.741-5.191,4.614-7.254c3.229-7.475-6.01-6.489-4.364-11.031s-7.481-11.861-12.469-8.214c-8.117,5.892-22.044,5.801-14.725-3.893c5.249-6.917-4.115-5.502-4.115-5.502s5.661,3.49-3.865,8.889c-10.075,5.762-.836,21.243,14.675,17.104Z" fill="#263238"/><path d="M468.82,157.184c-1.364,2.054-3.412,3.506-5.748,4.075-3.08.688-4.264-2.18-3.105-5.061c1.035-2.595,3.878-6.086,6.821-5.489c2.942.597,3.616,3.932,2.032,6.475Z" fill="#e58a7b"/></g><g transform="translate(.000001 0.000001)"><path d="M450.89,149.216c0,.792-.474,1.428-.972,1.428-.499,0-.861-.636-.811-1.428.05-.791.474-1.427.973-1.427.498,0,.86.649.81,1.427Z" fill="#263238"/><path d="M442.337,149.216c0,.792-.487,1.428-.973,1.428s-.86-.636-.823-1.428c.038-.791.486-1.427.985-1.427s.861.649.811,1.427Z" fill="#263238"/><path d="M445.03,149.619c-1.041,2.417-2.382,4.681-3.99,6.735c1.247,1.297,3.578.7,3.578.7l.412-7.435Z" fill="#df5753"/><path d="M445.254,160.364c-.029,0-.057-.006-.084-.018-.026-.012-.05-.03-.07-.052-.02-.021-.035-.047-.045-.076-.01-.028-.014-.058-.013-.088.003-.063.03-.123.074-.166s.102-.068.163-.068c.954.007,1.897-.208,2.76-.63.863-.423,1.624-1.041,2.228-1.809.043-.04.098-.061.155-.061.058,0,.113.021.156.061.041.043.063.101.063.162c0,.06-.022.119-.063.162-.646.817-1.459,1.473-2.38,1.92-.922.447-1.927.673-2.944.663Z" fill="#263238"/><path d="M452.411,146.829c-.06.031-.126.048-.193.048s-.133-.017-.193-.048c-.467-.314-.998-.51-1.55-.57-.552-.061-1.111.014-1.63.219-.05.026-.106.042-.162.046-.057.004-.113-.004-.167-.024-.053-.019-.102-.049-.144-.089-.042-.039-.076-.087-.1-.141-.047-.115-.048-.245-.004-.361.045-.116.131-.21.241-.261.651-.278,1.358-.387,2.059-.319s1.376.311,1.968.708c.048.034.089.077.12.127.032.051.053.107.064.166.01.06.009.12-.003.179s-.036.114-.069.164c-.063.074-.145.128-.237.156Z" fill="#263238"/><path d="M439.032,144.233c-.066-.017-.127-.053-.174-.104-.042-.042-.075-.093-.097-.148-.023-.056-.034-.116-.034-.176c0-.061.011-.12.034-.176.022-.056.055-.106.097-.149.478-.557,1.073-.993,1.739-1.272s1.385-.394,2.101-.337c.057.009.112.031.162.063.049.032.091.075.124.124.032.05.055.107.066.166s.01.12-.003.179c-.027.12-.094.226-.191.298-.096.072-.215.104-.332.092-.567-.038-1.134.06-1.659.285s-.994.571-1.371,1.012c-.057.066-.13.114-.212.139-.081.025-.168.027-.25.004Z" fill="#263238"/></g></g><path d="M423.185,269.449c0,0-8.429,78.512-9.09,108.308-.673,30.989,28.566,127.682,28.566,127.682l14.962-6.489c0,0-17.456-88.348-14.962-118.78c2.643-33.182,13.566-110.669,13.566-110.669l-33.042-.052Z" fill="#407bff"/><path d="M444.132,291.004c-6.72,14.509-2.194,43.201,1.446,60.201c1.384-12.004,3.03-25.033,4.589-37.088-.15-18.532-1.534-32.845-6.035-23.113Z" opacity="0.2"/><path d="M456.962,493.811c.075,0,1.771,4.957,1.771,4.957l-17.257,7.553-2.718-5.269l18.204-7.241Z" fill="#407bff"/><path d="M441.002,269.449c0,0,6.447,74.671,10.711,102.637c4.688,30.639,23.067,132.678,23.067,132.678h17.194c0,0-10.299-99.561-12.244-129.901-2.12-32.91-6.334-105.414-6.334-105.414h-32.394Z" fill="#407bff"/><path d="M492.236,500.105c.075,0,.574,4.996.574,4.996h-18.903l-1.346-5.736l19.675.74Z" fill="#407bff"/><path d="M485.653,494.187c-.039.001-.077-.013-.107-.04-.03-.026-.05-.062-.056-.102-.099-.909-9.388-90.84-11.134-118.092-1.895-29.562-5.711-95.136-5.748-95.797-.002-.022.001-.044.008-.064.006-.02.017-.039.031-.055s.031-.029.05-.037c.019-.009.04-.013.061-.013.041,0,.08.016.11.045.03.028.049.068.052.111c0,.661,3.852,66.183,5.748,95.797c1.745,27.252,11.034,117.118,11.122,118.092.003.021.002.043-.003.064s-.014.041-.027.058-.029.031-.048.042c-.018.01-.039.016-.059.017v-.026Z" opacity="0.2"/><path d="M485.939,197.271l-12.967-3.595c0,0-12.718,32.585-17.219,34.701-6.11,2.907-21.583,12.977-28.167,17.739-.361,1.623-.075,5.918.748,7.099c11.222-2.128,32.706-10.732,37.194-15.105c10.237-9.98,20.411-40.839,20.411-40.839Z" fill="#e58a7b"/><path d="M476.887,518.558c-.633.052-1.263-.126-1.783-.506-.16-.151-.281-.343-.348-.556-.068-.214-.081-.443-.038-.664.008-.137.051-.271.126-.385.074-.114.177-.205.298-.263c1.047-.558,3.977,1.375,4.314,1.596.037.023.065.059.081.101s.018.089.006.132c-.011.046-.032.087-.063.121-.03.034-.069.06-.112.074-.812.208-1.644.325-2.481.35Zm-1.247-2.024c-.094-.022-.192-.022-.286,0-.048.025-.088.064-.114.113-.027.048-.039.104-.036.159-.033.151-.028.309.016.457s.124.282.233.387c.487.454,1.708.506,3.317.182-.958-.657-2.036-1.099-3.167-1.298h.037Z" fill="#407bff"/><path d="M479.306,518.208c-.032.011-.067.011-.1,0-.935-.545-2.693-2.686-2.431-3.776.039-.173.133-.327.266-.438.134-.11.299-.171.47-.172.167-.023.337-.009.499.043.161.051.31.138.436.255c1.035.922,1.097,3.751,1.097,3.893.006.043-.002.087-.022.124-.02.038-.052.067-.09.084-.042.009-.086.004-.125-.013Zm-1.671-3.958h-.087c-.287,0-.324.169-.337.234-.149.636.96,2.258,1.883,3.023-.004-1.096-.33-2.165-.935-3.062-.145-.132-.332-.201-.524-.195Z" fill="#407bff"/><path d="M443.783,516.936c-.763.277-1.594.277-2.357,0-.173-.097-.32-.239-.426-.411-.107-.173-.171-.37-.185-.575-.015-.128.001-.259.046-.379.046-.12.12-.226.216-.309.998-.934,5.075,0,5.536.182.044.012.083.039.11.076.027.038.041.084.04.132.002.048-.01.096-.035.138-.024.042-.06.075-.102.095-.918.432-1.869.783-2.843,1.051Zm-2.032-1.544c-.143.03-.276.097-.387.195-.04.031-.07.073-.088.121-.017.048-.022.101-.012.151.008.136.049.268.119.384s.166.211.28.278c.661.363,2.195.078,4.177-.792-1.335-.35-2.718-.464-4.089-.337Z" fill="#407bff"/><path d="M446.589,515.885h-.1c-1.247-.233-3.741-1.726-3.816-2.842c0-.259.113-.623.711-.83.202-.075.417-.107.631-.094.214.014.424.072.616.171c1.347.688,2.057,3.18,2.095,3.297.008.039.007.08-.004.118-.011.039-.031.074-.059.102-.018.032-.044.059-.074.078Zm-2.956-3.283h-.124c-.387.143-.387.311-.387.363c0,.675,1.808,1.908,3.067,2.323-.29-1.042-.903-1.955-1.745-2.595-.25-.133-.539-.165-.811-.091Z" fill="#407bff"/><path d="M428.646,245.351l-13.005,6.229-1.508,3.893l4.8,3.361c0,0,8.977-1.012,11.534-7.021l-1.821-6.462Z" fill="#e58a7b"/><path d="M429.195,253.436c-.291-2.601-1.116-5.106-2.419-7.345l2.057-1.61c1.548,2.581,2.535,5.482,2.893,8.5l-2.531.455Z" fill="#263238"/><path d="M431.414,247.194c.275.45.41.977.387,1.51-.023.532-.204,1.045-.517,1.467-.313.423-.743.734-1.232.893s-1.014.157-1.502-.006c-.488-.162-.916-.477-1.226-.902-.31-.424-.487-.938-.506-1.471-.02-.533.119-1.059.397-1.507s.682-.796,1.157-.997c.533-.282,1.151-.334,1.721-.145.57.19,1.044.606,1.321,1.158Z" fill="#263238"/><path d="M406.851,256.615l1.733,1.817l11.671-5.191-4.614-1.661-8.79,5.035Z" fill="#e58a7b"/><path d="M456.962,493.811c.075,0,1.771,4.957,1.771,4.957l-17.257,7.553-2.718-5.269l18.204-7.241Z" opacity="0.2"/><path d="M492.236,500.105c.075,0,.574,4.996.574,4.996h-18.903l-1.346-5.736l19.675.74Z" opacity="0.2"/><path d="M489.318,193.533c3.429,11.511-9.975,27.252-9.975,27.252l-18.515-7.864c2.194-6.653,4.725-13.181,7.58-19.557c5.686-12.756,17.444-11.445,20.91.169Z" fill="#407bff"/><path d="M489.318,193.533c3.429,11.511-9.975,27.252-9.975,27.252l-18.515-7.864c2.194-6.653,4.725-13.181,7.58-19.557c5.686-12.756,17.444-11.445,20.91.169Z" opacity="0.2"/><path d="M305.331,78.2054h-7.967v1.3367h7.967v-1.3367Z" fill="#407bff"/><path d="M408.469,131.109l-.964,22.272l1.283.06.964-22.272-1.283-.06Z" fill="#407bff"/><path d="M405.99,84.2009h-147.129L245.17,403.075h147.13L405.99,84.2009Z" fill="#407bff"/><path d="M401.601,88.5872h-147.129L240.781,407.461h147.13l13.69-318.8738Z" opacity="0.56" fill="#fafafa"/><path d="M397.213,92.9604h-147.13L236.38,411.835h147.13L397.213,92.9604Z" opacity="0.07" fill="#407bff"/><path d="M380.467,232.036h-125.584l-1.047,24.397h125.584l1.047-24.397Z" fill="#fff"/><path id="e9NTIsgzqiC114" d="M323.947,214.232h-68.303l-.461,10.914h68.303l.461-10.914Z" transform="matrix(0 0 0 1 255.183 0.000006)" fill="#407bff"/><path d="M377.637,297.882h-125.584l-1.047,24.397h125.584l1.047-24.397Z" fill="#fff"/><g id="e9NTIsgzqiC116" transform="matrix(0 0 0 0 309.497132 372.12175)"><path d="M354.607,355.228h-84.45l-1.259,29.238h84.45l1.259-29.238Z" opacity="0.47" fill="#407bff"/><path d="M348.959,389.008h-84.45c-.037.01-.075.01-.112,0-.013-.038-.013-.079,0-.117l1.247-29.25c-.001-.02.003-.04.011-.058.008-.019.019-.035.033-.048.014-.014.031-.024.049-.03.018-.007.037-.009.056-.007h84.45c.016-.008.033-.012.05-.012s.034.004.05.012c.009.016.013.033.013.052c0,.018-.004.036-.013.052l-1.222,29.315c-.015.03-.039.055-.068.072-.028.016-.061.023-.094.019Zm-84.3-.312h84.15l1.247-28.939h-84.151l-1.246,28.939Z" fill="#fff"/></g><path id="e9NTIsgzqiC119" d="M309.196,280.078h-56.383l-.461,10.926h56.371l.473-10.926Z" transform="matrix(0 0 0 1 252.770128 0)" fill="#407bff"/><path d="M352.999,153.226c-.322,7.101-2.748,13.923-6.945,19.531-3.107,4.236-7.105,7.675-11.687,10.052-4.582,2.378-9.627,3.632-14.747,3.665-4.137.033-8.237-.817-12.047-2.495-3.811-1.679-7.25-4.152-10.108-7.267-2.857-3.115-5.071-6.805-6.506-10.844-1.435-4.04-2.06-8.342-1.837-12.642.439-8.923,4.136-17.334,10.336-23.515c6.199-6.18,14.433-9.661,23.018-9.732c4.14-.04,8.245.804,12.06,2.48c3.815,1.675,7.259,4.148,10.119,7.264c2.861,3.116,5.077,6.809,6.512,10.852c1.436,4.042,2.059,8.348,1.832,12.651Z" fill="#fff"/><path d="M356.004,126.935c-.082,1.888-.727,3.702-1.846,5.19-.828,1.126-1.891,2.039-3.11,2.671s-2.56.966-3.922.976c-1.319.008-2.62-.32-3.79-.955-1.169-.636-2.171-1.56-2.918-2.692-.989-1.529-1.479-3.349-1.396-5.19.12-2.369,1.104-4.602,2.752-6.241c1.647-1.64,3.833-2.564,6.113-2.584c1.099-.01,2.189.214,3.203.658c1.013.445,1.928,1.101,2.689,1.928.76.826,1.35,1.807,1.732,2.88.383,1.072.551,2.216.493,3.359Z" fill="#407bff"/><g id="e9NTIsgzqiC122" transform="translate(0 0.000001)" opacity="0"><path d="M268.412,244.235c-.06,1.046-.499,2.029-1.228,2.751-.729.723-1.693,1.131-2.7,1.142-.486.006-.968-.092-1.416-.287-.448-.196-.853-.485-1.19-.85-.336-.365-.597-.798-.767-1.272-.169-.474-.243-.979-.218-1.484.054-1.048.491-2.035,1.221-2.758.73-.724,1.698-1.13,2.707-1.135.485-.004.966.095,1.414.291.447.196.851.485,1.187.85.337.364.598.796.768,1.27.17.473.245.977.222,1.482Z" fill="#263238"/><path d="M285.219,244.235c-.057,1.047-.494,2.032-1.224,2.755-.729.723-1.696,1.13-2.703,1.138-.485.004-.966-.095-1.413-.291-.446-.197-.85-.486-1.185-.851-.335-.364-.595-.797-.764-1.27-.168-.473-.242-.977-.217-1.481.054-1.046.489-2.031,1.217-2.754.727-.723,1.692-1.131,2.698-1.139.486-.006.968.092,1.416.287.449.196.854.485,1.19.85.337.365.598.797.767,1.271.17.475.244.98.218,1.485Z" fill="#263238"/><path d="M302.039,244.235c-.057,1.047-.494,2.032-1.224,2.755-.729.723-1.696,1.13-2.703,1.138-.486.004-.967-.095-1.414-.291-.448-.196-.852-.485-1.188-.85-.336-.364-.597-.797-.767-1.27s-.246-.977-.222-1.482c.057-1.047.495-2.032,1.224-2.755.73-.723,1.696-1.13,2.703-1.138.486-.006.968.092,1.417.287.448.196.853.485,1.189.85.337.365.598.797.767,1.271.17.475.244.98.218,1.485Z" fill="#263238"/></g><g id="e9NTIsgzqiC126" opacity="0.1"><path d="M265.581,310.081c-.059,1.046-.498,2.029-1.227,2.751-.729.723-1.694,1.131-2.7,1.142-.486.004-.967-.095-1.414-.291-.448-.196-.852-.486-1.188-.85-.336-.365-.597-.797-.767-1.27s-.246-.978-.222-1.482c.057-1.047.495-2.032,1.224-2.755.73-.723,1.696-1.13,2.703-1.138.486-.004.967.095,1.414.291.448.196.852.485,1.188.85.336.364.598.796.768,1.27.17.473.245.977.221,1.482Z" fill="#263238"/><path d="M282.389,310.081c-.057,1.044-.493,2.028-1.22,2.75-.726.723-1.69,1.131-2.695,1.143-.486.006-.968-.092-1.416-.287-.449-.196-.853-.485-1.19-.85s-.598-.798-.767-1.272c-.17-.474-.244-.979-.218-1.484.057-1.047.495-2.032,1.224-2.755.73-.723,1.696-1.13,2.703-1.138.485-.005.966.095,1.413.291.446.196.85.486,1.185.85.335.365.595.797.764,1.271.169.473.243.977.217,1.481Z" fill="#263238"/><path d="M299.247,310.081c-.057,1.047-.495,2.032-1.225,2.755-.729.723-1.696,1.13-2.703,1.138-.485.002-.965-.098-1.412-.295-.446-.197-.85-.486-1.186-.85-.335-.364-.597-.796-.767-1.268-.171-.472-.248-.976-.226-1.48.06-1.046.499-2.029,1.227-2.752.729-.722,1.694-1.13,2.701-1.141.486-.006.968.091,1.416.287s.853.485,1.189.85c.337.364.598.797.768,1.271.169.475.243.98.218,1.485Z" fill="#263238"/><path d="M316.029,310.081c-.059,1.046-.498,2.029-1.227,2.751-.729.723-1.694,1.131-2.7,1.142-.485.002-.965-.098-1.412-.295-.446-.197-.85-.486-1.186-.85s-.597-.796-.768-1.268c-.17-.472-.247-.976-.225-1.48.06-1.046.498-2.029,1.227-2.752.729-.722,1.694-1.13,2.701-1.141.485-.004.966.095,1.413.291.448.196.852.485,1.188.85.336.364.598.796.768,1.27.17.473.245.977.221,1.482Z" fill="#263238"/><path d="M332.912,310.081c-.06,1.046-.499,2.029-1.228,2.751-.728.723-1.693,1.131-2.7,1.142-.486.006-.968-.092-1.416-.287-.448-.196-.853-.485-1.19-.85-.336-.365-.597-.798-.767-1.272-.169-.474-.243-.979-.218-1.484.057-1.047.495-2.032,1.224-2.755.73-.723,1.696-1.13,2.704-1.138.485-.004.966.095,1.414.291.447.196.851.485,1.188.85.336.364.597.796.767,1.27.17.473.246.977.222,1.482Z" fill="#263238"/></g><g transform="translate(.000009 0.000001)"><path d="M346.054,172.757c-3.107,4.236-7.105,7.675-11.687,10.052-4.582,2.378-9.627,3.632-14.747,3.665-4.965.043-9.864-1.185-14.265-3.577s-8.169-5.875-10.971-10.14c6.06-6.281,15.648-10.382,26.271-10.382s19.875,4.101,25.399,10.382Z" fill="#407bff"/><path d="M330.36,151.495c5.219-5.312,5.496-13.826.619-19.017-4.878-5.19-13.062-5.092-18.281.219-5.219,5.312-5.495,13.826-.618,19.016c4.877,5.191,13.061,5.093,18.28-.218Z" fill="#407bff"/><path d="M330.36,151.495c5.219-5.312,5.496-13.826.619-19.017-4.878-5.19-13.062-5.092-18.281.219-5.219,5.312-5.495,13.826-.618,19.016c4.877,5.191,13.061,5.093,18.28-.218Z" opacity="0.1" fill="#fff"/><path d="M346.054,172.757c-3.107,4.236-7.105,7.675-11.687,10.052-4.582,2.378-9.627,3.632-14.747,3.665-4.965.043-9.864-1.185-14.265-3.577s-8.169-5.875-10.971-10.14c6.06-6.281,15.648-10.382,26.271-10.382s19.875,4.101,25.399,10.382Z" opacity="0.1" fill="#fff"/></g><path d="M162.603,262.312c-1.184,2.699-2.431,5.671-3.516,8.552s-2.195,5.853-3.155,8.811c-1.96,5.831-3.453,11.821-4.463,17.909l-.275,1.907c-.026.328.004.657.088.974.294,1.075.757,2.093,1.371,3.01c1.601,2.376,3.459,4.553,5.536,6.489c2.19,2.12,4.488,4.117,6.883,5.982c2.394,1.921,4.913,3.79,7.394,5.555l-2.332,4.555c-5.925-2.687-11.548-6.042-16.77-10.006-2.786-2.114-5.3-4.591-7.481-7.371-1.293-1.654-2.301-3.529-2.98-5.541-.395-1.257-.597-2.571-.599-3.893c0-.312,0-.766,0-.986v-.636l.125-1.298c.715-6.761,2.081-13.43,4.077-19.907.973-3.192,2.008-6.372,3.192-9.473c1.185-3.102,2.407-6.138,3.915-9.292l8.99,4.659Z" fill="#e58a7b"/><path d="M170.708,320.696l8.815-4.646-2.282,10.071c0,0-6.047,1.764-8.852-1.298l2.319-4.127Z" fill="#e58a7b"/><path d="M187.59,317.698l-2.344,8.332-8.005.091l2.282-10.071l8.067,1.648Z" fill="#e58a7b"/><path d="M200.034,213.726c.471,1.798,1.128,3.538,1.958,5.19-.243.287-.555.499-.904.616-.349.116-.722.132-1.079.046l.025-5.852Z" fill="#df5753"/><path d="M199.772,213.803c.517,0,.935-.668.935-1.492s-.418-1.492-.935-1.492c-.516,0-.935.668-.935,1.492s.419,1.492.935,1.492Z" fill="#263238"/><path d="M199.498,210.871l1.895-.558c0,0-.923,1.531-1.895.558Z" fill="#263238"/><path d="M175.683,223.251c1.135,6.034,2.269,17.104-1.796,21.14c0,0,1.596,6.125,12.382,6.125c11.857,0,5.661-6.125,5.661-6.125-6.472-1.61-6.31-6.606-5.175-11.304l-11.072-9.836Z" fill="#e58a7b"/><path d="M172.528,209.495c.599,10.083.649,14.366,5.536,19.544c7.369,7.786,19.14,4.827,21.446-5.191c2.083-9.084.761-24.034-8.728-28.044-2.083-.893-4.35-1.218-6.587-.945-2.237.274-4.371,1.136-6.198,2.507-1.828,1.371-3.289,3.204-4.246,5.326-.957,2.123-1.378,4.464-1.223,6.803Z" fill="#e58a7b"/><path d="M173.488,198.153c-4.862,1.843-11.346.467-8.802,16.079c2.693,16.533-1.447,21.97-1.447,21.97s18.441,4.088,37.269-.247c0,0-5.748-10.459-4.14-18.168c2.058-9.732.437-13.327.437-13.327s-16.484-8.902-23.317-6.307Z" fill="#263238"/><path d="M194.062,214.751c.005,1.917.532,3.793,1.521,5.411c1.321,2.103,2.88,1.298,3.266-.934.35-1.96.088-5.425-1.596-6.774-1.683-1.35-3.167-.026-3.191,2.297Z" fill="#e58a7b"/><path d="M169.261,199.853c-1.396-4.088,5.262-10.382,19.352-7.786c14.089,2.595,14.7,14.807,14.7,14.807l-2.843-3.53.125,3.711-14.476,2.894-16.858-10.096Z" fill="#263238"/><path d="M170.458,245.078c-.083-.592.06-1.195.397-1.68.338-.485.844-.813,1.411-.915c4.389-.753,14.364-2.284,19.377-1.557c3.74.545,4.713,2.803,4.875,4.658.025.325-.016.652-.123.959-.106.307-.274.586-.492.82-.219.233-.483.416-.774.534-.292.119-.605.171-.918.153l-21.67-1.012c-.511-.027-.997-.237-1.377-.594-.379-.357-.629-.839-.706-1.366Z" fill="#407bff"/><path d="M170.458,245.078c-.083-.592.06-1.195.397-1.68.338-.485.844-.813,1.411-.915c4.389-.753,14.364-2.284,19.377-1.557c3.74.545,4.713,2.803,4.875,4.658.025.325-.016.652-.123.959-.106.307-.274.586-.492.82-.219.233-.483.416-.774.534-.292.119-.605.171-.918.153l-21.67-1.012c-.511-.027-.997-.237-1.377-.594-.379-.357-.629-.839-.706-1.366Z" opacity="0.6"/><path d="M182.99,471.789l8.042,5.814l13.453-18.986-8.042-5.801-13.453,18.973Z" fill="#e58a7b"/><path d="M164.237,471.413l8.491,5.035l11.907-20.076-8.491-5.035-11.907,20.076Z" fill="#e58a7b"/><path d="M204.473,458.617l-6.933,9.785-8.042-5.801l6.933-9.785l8.042,5.801Z" fill="#cf6f64"/><path d="M176.132,451.337l8.503,5.048-6.134,10.343-8.504-5.048l6.135-10.343Z" fill="#cf6f64"/><path d="M189.772,308.459c0,0,31.396,41.176,25.499,80.562-4.751,31.807-32.306,74.878-32.306,74.878l-12.955-6.697c9.131-19.043,16.924-38.751,23.316-58.968c1.971-6.276,2.547-12.937,1.683-19.479s-3.145-12.794-6.671-18.284c-15.909-24.176-41.395-9.785-24.251-52.012h25.685Z" fill="#407bff"/><path d="M189.772,308.459c0,0,31.396,41.176,25.499,80.562-4.751,31.807-32.306,74.878-32.306,74.878l-12.955-6.697c9.131-19.043,16.924-38.751,23.316-58.968c1.971-6.276,2.547-12.937,1.683-19.479s-3.145-12.794-6.671-18.284c-15.909-24.176-41.395-9.785-24.251-52.012h25.685Z" opacity="0.6"/><path d="M205.171,334.906l-4.563-4.724c0,.377,8.84,57.178,11.321,73.14c1.464-4.663,2.586-9.435,3.354-14.275c2.918-19.323-3.179-39.062-10.112-54.141Z" opacity="0.4"/><path d="M203.787,308.459c0,0,37.805,51.752,38.877,82.781.885,25.954-41.146,76.24-41.146,76.24l-12.22-8.227c0,0,24.601-35.713,30.798-64.886-2.394-28.913-53.017-85.908-53.017-85.908h36.708Z" fill="#407bff"/><path d="M203.787,308.459c0,0,37.805,51.752,38.877,82.781.885,25.954-41.146,76.24-41.146,76.24l-12.22-8.227c0,0,24.601-35.713,30.798-64.886-2.394-28.913-53.017-85.908-53.017-85.908h36.708Z" opacity="0.6"/><path d="M157.017,246.7c-4.04,1-7.917,16.287-7.917,16.287l15.797,10.978c0,0,5.262-12.094,3.417-17.389-1.908-5.515-6.222-11.134-11.297-9.876Z" fill="#407bff"/><path d="M160.109,256.55l-1.097,13.328l5.873,4.1c1.621-3.799,2.822-7.778,3.578-11.861l-8.354-5.567Z" opacity="0.2"/><path d="M208.463,246.999c0,0,4.663,1.7-4.676,61.447h-39.725c.673-16.871.686-27.252-7.045-61.746c5.563-1.193,11.201-1.965,16.87-2.309c6.007-.449,12.036-.449,18.042,0c7.756.739,16.534,2.608,16.534,2.608Z" fill="#407bff"/><g id="e9NTIsgzqiC162" transform="translate(.000001 0)"><path d="M212.502,256.55c.898,2.596,1.846,5.386,2.843,8.072.998,2.686,1.945,5.45,2.955,8.176l3.055,8.149.773,2.038.399,1.012.187.506c0,.091,0,.091,0,.078-.228-.335-.526-.61-.873-.805-.493-.302-1.049-.476-1.62-.506-.475-.015-.948.078-1.384.273-.574.272-.574.389-.562.376.104-.087.196-.187.275-.299.69-.943,1.287-1.956,1.783-3.023.586-1.194,1.147-2.466,1.708-3.751c1.097-2.595,2.107-5.281,3.117-7.994c1.01-2.712,1.97-5.45,2.905-8.214l2.843-8.279l4.801,1.297c-.948,5.918-2.17,11.68-3.641,17.545-.711,2.92-1.546,5.814-2.494,8.734-.474,1.466-.997,2.92-1.596,4.412-.624,1.62-1.392,3.175-2.294,4.646-.332.495-.699.963-1.097,1.401-.637.716-1.41,1.286-2.27,1.675-.763.34-1.589.5-2.419.467-.929-.036-1.834-.318-2.631-.818-.939-.61-1.718-1.453-2.269-2.453-.187-.337-.349-.674-.461-.921l-.237-.493-.474-1.012-.947-2.012c-1.247-2.699-2.494-5.424-3.579-8.162s-2.232-5.516-3.304-8.306-2.033-5.58-2.943-8.591l9.451-3.218Z" fill="#e58a7b"/><path d="M208.463,246.999c4.775,1.181,10.149,15.871,10.149,15.871L204.41,275.445c0,0-9.189-16.014-7.331-21.296c1.932-5.502,5.149-8.694,11.384-7.15Z" fill="#407bff"/><path d="M233.163,247.713l4.987-4.335l3.467,5.619-2.556,4.685c0,0-4.065,3.893-7.656,1.908-.57-1.334-.707-2.824-.389-4.245.317-1.422,1.071-2.697,2.147-3.632Z" fill="#e58a7b"/><path d="M247.153,243.391l-.374,1.415-7.893,1.375-.773-2.803l9.04.013Z" fill="#e58a7b"/></g><path d="M202.49,468.142l-14.239-9.577l2.556-4.62l15.998,10.239-4.315,3.958Z" fill="#407bff"/><path d="M178.301,475.773c-1.249-.159-2.449-.602-3.516-1.298-.044-.016-.082-.046-.109-.085-.027-.04-.041-.087-.041-.135c0-.049.014-.096.041-.136.027-.039.065-.069.109-.085.387-.13,3.741-1.207,4.713-.376.11.094.193.217.241.357.048.139.06.289.034.434-.018.234-.092.459-.216.654-.125.196-.295.355-.495.462-.234.133-.495.204-.761.208Zm-2.805-1.428c1.558.831,2.805,1.129,3.404.818.13-.075.24-.184.318-.316.079-.131.124-.282.131-.437c0-.207,0-.298-.113-.35-.523-.441-2.393-.104-3.765.285h.025Z" fill="#263238"/><path d="M174.872,474.566c-.066-.001-.128-.029-.174-.078-.019-.036-.029-.076-.029-.117s.01-.081.029-.117c0-.116.81-2.932,2.082-3.568.162-.077.339-.117.517-.117.179,0,.355.04.518.117.175.057.327.174.43.332.104.157.155.346.143.537-.087,1.168-2.369,2.777-3.416,3.05l-.1-.039Zm2.419-3.543c-.121.004-.24.035-.349.091-.773.389-1.409,1.908-1.721,2.829c1.098-.48,2.606-1.752,2.656-2.466c0-.116,0-.259-.287-.389-.093-.052-.194-.087-.299-.104v.039Z" fill="#263238"/><path d="M196.094,481.379c-1.409,0-3.367-1.882-4.439-3.037-.027-.039-.042-.087-.042-.136s.015-.097.042-.136c.025-.042.06-.076.101-.099.042-.023.089-.034.136-.031.499,0,4.825.675,5.436,1.947.065.114.099.244.099.376s-.034.262-.099.376c-.091.198-.23.369-.402.496s-.373.207-.583.231l-.249.013Zm-3.616-2.855c1.571,1.583,2.955,2.466,3.741,2.362.137-.019.268-.072.381-.156s.205-.195.267-.324c.028-.045.043-.097.043-.15s-.015-.104-.043-.149c-.324-.701-2.631-1.298-4.389-1.583Z" fill="#263238"/><path d="M192.615,478.459c-.28.008-.56-.013-.835-.065-.039-.006-.075-.022-.106-.047-.03-.025-.054-.058-.069-.096-.018-.038-.028-.08-.028-.123s.01-.085.028-.123c.075-.091,1.758-2.206,3.354-2.349.452-.037.9.113,1.247.415.486.442.462.831.337,1.077-.312.883-2.469,1.311-3.928,1.311Zm-.324-.48c1.396.078,3.628-.402,3.915-1.038c0,0,.1-.208-.224-.493-.129-.117-.28-.205-.443-.259-.163-.053-.335-.071-.505-.053-1.075.312-2.032.96-2.743,1.856v-.013Z" fill="#263238"/><path d="M175.209,473.164l-10.573-3.114c-.183-.058-.379-.043-.551.041-.173.084-.31.231-.385.413l-3.566,8.344c-.083.214-.123.444-.115.674.008.231.062.458.16.665s.236.39.407.537c.171.148.37.256.583.318c3.741,1.012,5.536,1.297,10.187,2.686c2.868.83,6.958,2.375,10.91,3.543c3.953,1.167,5.274-2.842,3.741-3.699-6.933-3.815-7.481-6.489-9.377-9.343-.339-.518-.842-.894-1.421-1.065Z" fill="#407bff"/><path d="M191.942,476.824l-9.028-6.489c-.153-.116-.341-.169-.53-.15-.188.019-.363.11-.492.254l-5.985,6.696c-.146.173-.255.377-.319.597-.065.22-.083.452-.055.681.028.228.103.447.219.643s.271.364.454.493c3.18,2.219,4.826,3.115,8.803,5.983c2.494,1.765,7.319,5.684,10.686,8.123c3.366,2.44,5.872-.908,4.676-2.232-5.362-5.956-6.534-9.694-7.419-13.081-.154-.614-.512-1.152-1.01-1.518Z" fill="#407bff"/><path d="M184.623,464.755l-16.272-8.422l1.684-4.594l17.381,8.876-2.793,4.14Z" fill="#407bff"/><path d="M163.464,306.019l-1.372,3.737c-.137.286.187.584.648.584h41.247c.361,0,.66-.181.685-.415l.349-3.711c0-.247-.286-.468-.673-.468h-40.236c-.121-.011-.243.007-.356.055-.113.047-.213.122-.292.218Z" fill="#407bff"/><path d="M163.464,306.019l-1.372,3.737c-.137.286.187.584.648.584h41.247c.361,0,.66-.181.685-.415l.349-3.711c0-.247-.286-.468-.673-.468h-40.236c-.121-.011-.243.007-.356.055-.113.047-.213.122-.292.218Z" opacity="0.4" fill="#fff"/><path d="M169.96,310.704h-1.085c-.212,0-.374-.117-.362-.26l.512-4.814c0-.13.199-.247.411-.247h1.085c.212,0,.374.117.361.247l-.511,4.814c-.012.143-.199.26-.411.26Z" fill="#407bff"/><path d="M195.396,310.704h-1.073c-.212,0-.374-.117-.361-.26l.499-4.814c0-.13.212-.247.424-.247h1.072c.212,0,.386.117.361.247l-.498,4.814c-.063.143-.2.26-.424.26Z" fill="#407bff"/><g style="mix-blend-mode:multiply"><path d="M169.012,530.471c18.448,0,33.403-1.127,33.403-2.517c0-1.391-14.955-2.518-33.403-2.518s-33.403,1.127-33.403,2.518c0,1.39,14.955,2.517,33.403,2.517Z" fill="#f5f5f5"/></g><path d="M189.361,524.398c-5.91-1.791-12.469-4.088-16.434-6.488-.112-.078-.237-.117-.349-.182v-27.849h11.957c.908-.056,1.761-.471,2.385-1.159.623-.689.971-1.6.971-2.546s-.348-1.857-.971-2.546c-.624-.688-1.477-1.103-2.385-1.159h-11.895v-126.942h-7.182v126.942h-11.882c-.485-.03-.971.044-1.428.216-.457.173-.875.441-1.229.788s-.635.766-.828,1.23c-.193.465-.292.965-.292,1.471s.099,1.006.292,1.471c.193.464.474.883.828,1.23s.772.615,1.229.788c.457.172.943.246,1.428.216h11.882v27.81c-.112,0-.224.104-.336.182-4.028,2.439-10.536,4.736-16.446,6.488-.4.126-.742.396-.967.762-.224.366-.315.803-.256,1.233.058.43.263.824.577,1.11.313.286.715.446,1.132.451h39.713c.398-.028.775-.198,1.068-.481s.484-.661.541-1.073c.057-.411-.024-.831-.228-1.188-.205-.357-.52-.631-.895-.775Z" fill="#e0e0e0"/><path d="M191.194,342.602h-44.339c-3.567,0-6.459,3.009-6.459,6.722v13.716c0,3.713,2.892,6.723,6.459,6.723h44.339c3.567,0,6.458-3.01,6.458-6.723v-13.716c0-3.713-2.891-6.722-6.458-6.722Z" fill="#407bff"/><path d="M146.444,369.776v2.361c0,1.947,2.032,3.53,4.526,3.53h36.159c2.494,0,4.526-1.583,4.526-3.53v-2.361h-45.211Z" fill="#407bff"/><path d="M146.444,369.776v2.361c0,1.947,2.032,3.53,4.526,3.53h36.159c2.494,0,4.526-1.583,4.526-3.53v-2.361h-45.211Z" opacity="0.3" fill="#fff"/>
<script><![CDATA[
!function(t,n){"object"==typeof exports&&"undefined"!=typeof module?module.exports=n():"function"==typeof __SVGATOR_DEFINE__&&__SVGATOR_DEFINE__.amd?__SVGATOR_DEFINE__(n):((t="undefined"!=typeof globalThis?globalThis:t||self).__SVGATOR_PLAYER__=t.__SVGATOR_PLAYER__||{},t.__SVGATOR_PLAYER__["5c7f360c"]=n())}(this,(function(){"use strict";function t(t,n){var e=Object.keys(t);if(Object.getOwnPropertySymbols){var r=Object.getOwnPropertySymbols(t);n&&(r=r.filter((function(n){return Object.getOwnPropertyDescriptor(t,n).enumerable}))),e.push.apply(e,r)}return e}function n(n){for(var e=1;e<arguments.length;e++){var r=null!=arguments[e]?arguments[e]:{};e%2?t(Object(r),!0).forEach((function(t){o(n,t,r[t])})):Object.getOwnPropertyDescriptors?Object.defineProperties(n,Object.getOwnPropertyDescriptors(r)):t(Object(r)).forEach((function(t){Object.defineProperty(n,t,Object.getOwnPropertyDescriptor(r,t))}))}return n}function e(t){return(e="function"==typeof Symbol&&"symbol"==typeof Symbol.iterator?function(t){return typeof t}:function(t){return t&&"function"==typeof Symbol&&t.constructor===Symbol&&t!==Symbol.prototype?"symbol":typeof t})(t)}function r(t,n){if(!(t instanceof n))throw new TypeError("Cannot call a class as a function")}function i(t,n){for(var e=0;e<n.length;e++){var r=n[e];r.enumerable=r.enumerable||!1,r.configurable=!0,"value"in r&&(r.writable=!0),Object.defineProperty(t,r.key,r)}}function u(t,n,e){return n&&i(t.prototype,n),e&&i(t,e),t}function o(t,n,e){return n in t?Object.defineProperty(t,n,{value:e,enumerable:!0,configurable:!0,writable:!0}):t[n]=e,t}function a(t){return(a=Object.setPrototypeOf?Object.getPrototypeOf:function(t){return t.__proto__||Object.getPrototypeOf(t)})(t)}function l(t,n){return(l=Object.setPrototypeOf||function(t,n){return t.__proto__=n,t})(t,n)}function s(){if("undefined"==typeof Reflect||!Reflect.construct)return!1;if(Reflect.construct.sham)return!1;if("function"==typeof Proxy)return!0;try{return Boolean.prototype.valueOf.call(Reflect.construct(Boolean,[],(function(){}))),!0}catch(t){return!1}}function f(t,n,e){return(f=s()?Reflect.construct:function(t,n,e){var r=[null];r.push.apply(r,n);var i=new(Function.bind.apply(t,r));return e&&l(i,e.prototype),i}).apply(null,arguments)}function c(t,n){if(n&&("object"==typeof n||"function"==typeof n))return n;if(void 0!==n)throw new TypeError("Derived constructors may only return object or undefined");return function(t){if(void 0===t)throw new ReferenceError("this hasn't been initialised - super() hasn't been called");return t}(t)}function h(t,n,e){return(h="undefined"!=typeof Reflect&&Reflect.get?Reflect.get:function(t,n,e){var r=function(t,n){for(;!Object.prototype.hasOwnProperty.call(t,n)&&null!==(t=a(t)););return t}(t,n);if(r){var i=Object.getOwnPropertyDescriptor(r,n);return i.get?i.get.call(e):i.value}})(t,n,e||t)}function v(t){return function(t){if(Array.isArray(t))return y(t)}(t)||function(t){if("undefined"!=typeof Symbol&&null!=t[Symbol.iterator]||null!=t["@@iterator"])return Array.from(t)}(t)||function(t,n){if(!t)return;if("string"==typeof t)return y(t,n);var e=Object.prototype.toString.call(t).slice(8,-1);"Object"===e&&t.constructor&&(e=t.constructor.name);if("Map"===e||"Set"===e)return Array.from(t);if("Arguments"===e||/^(?:Ui|I)nt(?:8|16|32)(?:Clamped)?Array$/.test(e))return y(t,n)}(t)||function(){throw new TypeError("Invalid attempt to spread non-iterable instance.\nIn order to be iterable, non-array objects must have a [Symbol.iterator]() method.")}()}function y(t,n){(null==n||n>t.length)&&(n=t.length);for(var e=0,r=new Array(n);e<n;e++)r[e]=t[e];return r}Number.isInteger||(Number.isInteger=function(t){return"number"==typeof t&&isFinite(t)&&Math.floor(t)===t}),Number.EPSILON||(Number.EPSILON=2220446049250313e-31);var g=d(Math.pow(10,-6));function d(t){var n=arguments.length>1&&void 0!==arguments[1]?arguments[1]:6;if(Number.isInteger(t))return t;var e=Math.pow(10,n);return Math.round((+t+Number.EPSILON)*e)/e}function p(t,n){var e=arguments.length>2&&void 0!==arguments[2]?arguments[2]:g;return Math.abs(t-n)<e}var m=Math.PI/180;function b(t){return t}function w(t,n,e){var r=1-e;return 3*e*r*(t*r+n*e)+e*e*e}function A(){var t=arguments.length>0&&void 0!==arguments[0]?arguments[0]:0,n=arguments.length>1&&void 0!==arguments[1]?arguments[1]:0,e=arguments.length>2&&void 0!==arguments[2]?arguments[2]:1,r=arguments.length>3&&void 0!==arguments[3]?arguments[3]:1;return t<0||t>1||e<0||e>1?null:p(t,n)&&p(e,r)?b:function(i){if(i<=0)return t>0?i*n/t:0===n&&e>0?i*r/e:0;if(i>=1)return e<1?1+(i-1)*(r-1)/(e-1):1===e&&t<1?1+(i-1)*(n-1)/(t-1):1;for(var u,o=0,a=1;o<a;){var l=w(t,e,u=(o+a)/2);if(p(i,l))break;l<i?o=u:a=u}return w(n,r,u)}}function _(){return 1}function x(t){return 1===t?1:0}function k(){var t=arguments.length>0&&void 0!==arguments[0]?arguments[0]:1,n=arguments.length>1&&void 0!==arguments[1]?arguments[1]:0;if(1===t){if(0===n)return x;if(1===n)return _}var e=1/t;return function(t){return t>=1?1:(t+=n*e)-t%e}}var S=Math.sin,O=Math.cos,j=Math.acos,E=Math.asin,M=Math.tan,P=Math.atan2,I=Math.PI/180,R=180/Math.PI,F=Math.sqrt,N=function(){function t(){var n=arguments.length>0&&void 0!==arguments[0]?arguments[0]:1,e=arguments.length>1&&void 0!==arguments[1]?arguments[1]:0,i=arguments.length>2&&void 0!==arguments[2]?arguments[2]:0,u=arguments.length>3&&void 0!==arguments[3]?arguments[3]:1,o=arguments.length>4&&void 0!==arguments[4]?arguments[4]:0,a=arguments.length>5&&void 0!==arguments[5]?arguments[5]:0;r(this,t),this.m=[n,e,i,u,o,a],this.i=null,this.w=null,this.s=null}return u(t,[{key:"determinant",get:function(){var t=this.m;return t[0]*t[3]-t[1]*t[2]}},{key:"isIdentity",get:function(){if(null===this.i){var t=this.m;this.i=1===t[0]&&0===t[1]&&0===t[2]&&1===t[3]&&0===t[4]&&0===t[5]}return this.i}},{key:"point",value:function(t,n){var e=this.m;return{x:e[0]*t+e[2]*n+e[4],y:e[1]*t+e[3]*n+e[5]}}},{key:"translateSelf",value:function(){var t=arguments.length>0&&void 0!==arguments[0]?arguments[0]:0,n=arguments.length>1&&void 0!==arguments[1]?arguments[1]:0;if(!t&&!n)return this;var e=this.m;return e[4]+=e[0]*t+e[2]*n,e[5]+=e[1]*t+e[3]*n,this.w=this.s=this.i=null,this}},{key:"rotateSelf",value:function(){var t=arguments.length>0&&void 0!==arguments[0]?arguments[0]:0;if(t%=360){var n=S(t*=I),e=O(t),r=this.m,i=r[0],u=r[1];r[0]=i*e+r[2]*n,r[1]=u*e+r[3]*n,r[2]=r[2]*e-i*n,r[3]=r[3]*e-u*n,this.w=this.s=this.i=null}return this}},{key:"scaleSelf",value:function(){var t=arguments.length>0&&void 0!==arguments[0]?arguments[0]:1,n=arguments.length>1&&void 0!==arguments[1]?arguments[1]:1;if(1!==t||1!==n){var e=this.m;e[0]*=t,e[1]*=t,e[2]*=n,e[3]*=n,this.w=this.s=this.i=null}return this}},{key:"skewSelf",value:function(t,n){if(n%=360,(t%=360)||n){var e=this.m,r=e[0],i=e[1],u=e[2],o=e[3];t&&(t=M(t*I),e[2]+=r*t,e[3]+=i*t),n&&(n=M(n*I),e[0]+=u*n,e[1]+=o*n),this.w=this.s=this.i=null}return this}},{key:"resetSelf",value:function(){var t=arguments.length>0&&void 0!==arguments[0]?arguments[0]:1,n=arguments.length>1&&void 0!==arguments[1]?arguments[1]:0,e=arguments.length>2&&void 0!==arguments[2]?arguments[2]:0,r=arguments.length>3&&void 0!==arguments[3]?arguments[3]:1,i=arguments.length>4&&void 0!==arguments[4]?arguments[4]:0,u=arguments.length>5&&void 0!==arguments[5]?arguments[5]:0,o=this.m;return o[0]=t,o[1]=n,o[2]=e,o[3]=r,o[4]=i,o[5]=u,this.w=this.s=this.i=null,this}},{key:"recomposeSelf",value:function(){var t=arguments.length>0&&void 0!==arguments[0]?arguments[0]:null,n=arguments.length>1&&void 0!==arguments[1]?arguments[1]:null,e=arguments.length>2&&void 0!==arguments[2]?arguments[2]:null,r=arguments.length>3&&void 0!==arguments[3]?arguments[3]:null,i=arguments.length>4&&void 0!==arguments[4]?arguments[4]:null;return this.isIdentity||this.resetSelf(),t&&(t.x||t.y)&&this.translateSelf(t.x,t.y),n&&this.rotateSelf(n),e&&(e.x&&this.skewSelf(e.x,0),e.y&&this.skewSelf(0,e.y)),!r||1===r.x&&1===r.y||this.scaleSelf(r.x,r.y),i&&(i.x||i.y)&&this.translateSelf(i.x,i.y),this}},{key:"decompose",value:function(){var t=arguments.length>0&&void 0!==arguments[0]?arguments[0]:0,n=arguments.length>1&&void 0!==arguments[1]?arguments[1]:0,e=this.m,r=e[0]*e[0]+e[1]*e[1],i=[[e[0],e[1]],[e[2],e[3]]],u=F(r);if(0===u)return{origin:{x:d(e[4]),y:d(e[5])},translate:{x:d(t),y:d(n)},scale:{x:0,y:0},skew:{x:0,y:0},rotate:0};i[0][0]/=u,i[0][1]/=u;var o=e[0]*e[3]-e[1]*e[2]<0;o&&(u=-u);var a=i[0][0]*i[1][0]+i[0][1]*i[1][1];i[1][0]-=i[0][0]*a,i[1][1]-=i[0][1]*a;var l=F(i[1][0]*i[1][0]+i[1][1]*i[1][1]);if(0===l)return{origin:{x:d(e[4]),y:d(e[5])},translate:{x:d(t),y:d(n)},scale:{x:d(u),y:0},skew:{x:0,y:0},rotate:0};i[1][0]/=l,i[1][1]/=l,a/=l;var s=0;return i[1][1]<0?(s=j(i[1][1])*R,i[0][1]<0&&(s=360-s)):s=E(i[0][1])*R,o&&(s=-s),a=P(a,F(i[0][0]*i[0][0]+i[0][1]*i[0][1]))*R,o&&(a=-a),{origin:{x:d(e[4]),y:d(e[5])},translate:{x:d(t),y:d(n)},scale:{x:d(u),y:d(l)},skew:{x:d(a),y:0},rotate:d(s)}}},{key:"clone",value:function(){var t=this.m;return new this.constructor(t[0],t[1],t[2],t[3],t[4],t[5])}},{key:"toString",value:function(){var t=arguments.length>0&&void 0!==arguments[0]?arguments[0]:" ";if(null===this.s){var n=this.m.map((function(t){return d(t)}));1===n[0]&&0===n[1]&&0===n[2]&&1===n[3]?this.s="translate("+n[4]+t+n[5]+")":this.s="matrix("+n.join(t)+")"}return this.s}}],[{key:"create",value:function(t){return t?Array.isArray(t)?f(this,v(t)):t instanceof this?t.clone():(new this).recomposeSelf(t.origin,t.rotate,t.skew,t.scale,t.translate):new this}}]),t}();function T(t,n,e){return t>=.5?e:n}function B(t,n,e){return 0===t||n===e?n:t*(e-n)+n}function q(t,n,e){var r=B(t,n,e);return r<=0?0:r}function D(t,n,e){var r=B(t,n,e);return r<=0?0:r>=1?1:r}function L(t,n,e){return 0===t?n:1===t?e:{x:B(t,n.x,e.x),y:B(t,n.y,e.y)}}function C(t,n,e){var r=function(t,n,e){return Math.round(B(t,n,e))}(t,n,e);return r<=0?0:r>=255?255:r}function V(t,n,e){return 0===t?n:1===t?e:{r:C(t,n.r,e.r),g:C(t,n.g,e.g),b:C(t,n.b,e.b),a:B(t,null==n.a?1:n.a,null==e.a?1:e.a)}}function G(t,n){for(var e=[],r=0;r<t;r++)e.push(n);return e}function z(t,n){if(--n<=0)return t;var e=(t=Object.assign([],t)).length;do{for(var r=0;r<e;r++)t.push(t[r])}while(--n>0);return t}var Y,$=function(){function t(n){r(this,t),this.list=n,this.length=n.length}return u(t,[{key:"setAttribute",value:function(t,n){for(var e=this.list,r=0;r<this.length;r++)e[r].setAttribute(t,n)}},{key:"removeAttribute",value:function(t){for(var n=this.list,e=0;e<this.length;e++)n[e].removeAttribute(t)}},{key:"style",value:function(t,n){for(var e=this.list,r=0;r<this.length;r++)e[r].style[t]=n}}]),t}(),U=/-./g,Q=function(t,n){return n.toUpperCase()};function H(t){return"function"==typeof t?t:T}function J(t){return t?"function"==typeof t?t:Array.isArray(t)?function(t){var n=arguments.length>1&&void 0!==arguments[1]?arguments[1]:b;if(!Array.isArray(t))return n;switch(t.length){case 1:return k(t[0])||n;case 2:return k(t[0],t[1])||n;case 4:return A(t[0],t[1],t[2],t[3])||n}return n}(t,null):function(t,n){var e=arguments.length>2&&void 0!==arguments[2]?arguments[2]:b;switch(t){case"linear":return b;case"steps":return k(n.steps||1,n.jump||0)||e;case"bezier":case"cubic-bezier":return A(n.x1||0,n.y1||0,n.x2||0,n.y2||0)||e}return e}(t.type,t.value,null):null}function Z(t,n,e){var r=arguments.length>3&&void 0!==arguments[3]&&arguments[3],i=n.length-1;if(t<=n[0].t)return r?[0,0,n[0].v]:n[0].v;if(t>=n[i].t)return r?[i,1,n[i].v]:n[i].v;var u,o=n[0],a=null;for(u=1;u<=i;u++){if(!(t>n[u].t)){a=n[u];break}o=n[u]}return null==a?r?[i,1,n[i].v]:n[i].v:o.t===a.t?r?[u,1,a.v]:a.v:(t=(t-o.t)/(a.t-o.t),o.e&&(t=o.e(t)),r?[u,t,e(t,o.v,a.v)]:e(t,o.v,a.v))}function K(t,n){var e=arguments.length>2&&void 0!==arguments[2]?arguments[2]:null;return t&&t.length?"function"!=typeof n?null:("function"!=typeof e&&(e=null),function(r){var i=Z(r,t,n);return null!=i&&e&&(i=e(i)),i}):null}function W(t,n){return t.t-n.t}function X(t,n,r,i,u){var o,a="@"===r[0],l="#"===r[0],s=Y[r],f=T;switch(a?(o=r.substr(1),r=o.replace(U,Q)):l&&(r=r.substr(1)),e(s)){case"function":if(f=s(i,u,Z,J,r,a,n,t),l)return f;break;case"string":f=K(i,H(s));break;case"object":if((f=K(i,H(s.i),s.f))&&"function"==typeof s.u)return s.u(n,f,r,a,t)}return f?function(t,n,e){if(arguments.length>3&&void 0!==arguments[3]&&arguments[3])return t instanceof $?function(r){return t.style(n,e(r))}:function(r){return t.style[n]=e(r)};if(Array.isArray(n)){var r=n.length;return function(i){var u=e(i);if(null==u)for(var o=0;o<r;o++)t[o].removeAttribute(n);else for(var a=0;a<r;a++)t[a].setAttribute(n,u)}}return function(r){var i=e(r);null==i?t.removeAttribute(n):t.setAttribute(n,i)}}(n,r,f,a):null}function tt(t,n,r,i){if(!i||"object"!==e(i))return null;var u=null,o=null;return Array.isArray(i)?o=function(t){if(!t||!t.length)return null;for(var n=0;n<t.length;n++)t[n].e&&(t[n].e=J(t[n].e));return t.sort(W)}(i):(o=i.keys,u=i.data||null),o?X(t,n,r,o,u):null}function nt(t,n,e){if(!e)return null;var r=[];for(var i in e)if(e.hasOwnProperty(i)){var u=tt(t,n,i,e[i]);u&&r.push(u)}return r.length?r:null}function et(t,n){if(!n.settings.duration||n.settings.duration<0)return null;var e,r,i,u,o,a=function(t,n){if(!n)return null;var e=[];if(Array.isArray(n))for(var r=n.length,i=0;i<r;i++){var u=n[i];if(2===u.length){var o=null;if("string"==typeof u[0])o=t.getElementById(u[0]);else if(Array.isArray(u[0])){o=[];for(var a=0;a<u[0].length;a++)if("string"==typeof u[0][a]){var l=t.getElementById(u[0][a]);l&&o.push(l)}o=o.length?1===o.length?o[0]:new $(o):null}if(o){var s=nt(t,o,u[1]);s&&(e=e.concat(s))}}}else for(var f in n)if(n.hasOwnProperty(f)){var c=t.getElementById(f);if(c){var h=nt(t,c,n[f]);h&&(e=e.concat(h))}}return e.length?e:null}(t,n.elements);return a?(e=a,r=n.settings,i=r.duration,u=e.length,o=null,function(t,n){var a=r.iterations||1/0,l=(r.alternate&&a%2==0)^r.direction>0?i:0,s=t%i,f=1+(t-s)/i;n*=r.direction,r.alternate&&f%2==0&&(n=-n);var c=!1;if(f>a)s=l,c=!0,-1===r.fill&&(s=r.direction>0?0:i);else if(n<0&&(s=i-s),s===o)return!1;o=s;for(var h=0;h<u;h++)e[h](s);return c}):null}function rt(t,n){if(Y=n,!t||!t.root||!Array.isArray(t.animations))return null;var e=function(t){for(var n=document.getElementsByTagName("svg"),e=0;e<n.length;e++)if(n[e].id===t.root&&!n[e].svgatorAnimation)return n[e].svgatorAnimation=!0,n[e];return null}(t);if(!e)return null;var r=t.animations.map((function(t){return et(e,t)})).filter((function(t){return!!t}));return r.length?{svg:e,animations:r,animationSettings:t.animationSettings,options:t.options||void 0}:null}function it(t){var n=arguments.length>1&&void 0!==arguments[1]?arguments[1]:null,e=arguments.length>2&&void 0!==arguments[2]?arguments[2]:Number,r=arguments.length>3&&void 0!==arguments[3]?arguments[3]:"undefined"!=typeof BigInt&&BigInt,i="0x"+(t.replace(/[^0-9a-fA-F]+/g,"")||27);return n&&r&&e.isSafeInteger&&!e.isSafeInteger(+i)?e(r(i))%n+n:+i}function ut(t,n,e){return!t||!e||n>t.length?t:t.substring(0,n)+ut(t.substring(n+1),e,e)}function ot(t){var n=arguments.length>1&&void 0!==arguments[1]?arguments[1]:27;return!t||t%n?t%n:[0,1].includes(n)?n:ot(t/n,n)}function at(t,n,e){if(t&&t.length){var r=it(e),i=ot(r)+5,u=ut(t,ot(r,5),i);return u=u.replace(/\x7c$/g,"==").replace(/\x2f$/g,"="),u=function(t,n,e){var r=+("0x"+t.substring(0,4));t=t.substring(4);for(var i=it(n,r)%r+e%27,u=[],o=0;o<t.length;o+=2)if("|"!==t[o]){var a=+("0x"+t[o]+t[o+1])-i;u.push(a)}else{var l=+("0x"+t.substring(o+1,o+1+4))-i;o+=3,u.push(l)}return String.fromCharCode.apply(String,u)}(u=(u=atob(u)).replace(/[\x41-\x5A]/g,""),n,r),u=JSON.parse(u)}}var lt=[{key:"alternate",def:!1},{key:"fill",def:1},{key:"iterations",def:0},{key:"direction",def:1},{key:"speed",def:1},{key:"fps",def:100}],st=function(){function t(n,e){var i=this,u=arguments.length>2&&void 0!==arguments[2]?arguments[2]:null;r(this,t),this._id=0,this._running=!1,this._rollingBack=!1,this._animations=n,this._settings=e,(!u||u<"2022-05-02")&&delete this._settings.speed,lt.forEach((function(t){i._settings[t.key]=i._settings[t.key]||t.def})),this.duration=e.duration,this.offset=e.offset||0,this.rollbackStartOffset=0}return u(t,[{key:"alternate",get:function(){return this._settings.alternate}},{key:"fill",get:function(){return this._settings.fill}},{key:"iterations",get:function(){return this._settings.iterations}},{key:"direction",get:function(){return this._settings.direction}},{key:"speed",get:function(){return this._settings.speed}},{key:"fps",get:function(){return this._settings.fps}},{key:"maxFiniteDuration",get:function(){return this.iterations>0?this.iterations*this.duration:this.duration}},{key:"_apply",value:function(t){for(var n=arguments.length>1&&void 0!==arguments[1]?arguments[1]:{},e=this._animations,r=e.length,i=0,u=0;u<r;u++)n[u]?i++:(n[u]=e[u](t,1),n[u]&&i++);return i}},{key:"_rollback",value:function(t){var n=this,e=1/0,r=null;this.rollbackStartOffset=t,this._rollingBack=!0,this._running=!0;this._id=window.requestAnimationFrame((function i(u){if(n._rollingBack){null==r&&(r=u);var o=Math.round(t-(u-r)*n.speed);if(o>n.duration&&e!==1/0){var a=!!n.alternate&&o/n.duration%2>1,l=o%n.duration;o=(l+=a?n.duration:0)||n.duration}var s=(n.fps?1e3/n.fps:0)*n.speed,f=Math.max(0,o);f<=e-s&&(n.offset=f,e=f,n._apply(f));var c=n.iterations>0&&-1===n.fill&&o>=n.maxFiniteDuration;(o<=0||n.offset<o||c)&&n.stop(),n._id=window.requestAnimationFrame(i)}}))}},{key:"_start",value:function(){var t=this,n=arguments.length>0&&void 0!==arguments[0]?arguments[0]:0,e=-1/0,r=null,i={};this._running=!0;var u=function u(o){null==r&&(r=o);var a=Math.round((o-r)*t.speed+n),l=(t.fps?1e3/t.fps:0)*t.speed;if(a>=e+l&&!t._rollingBack&&(t.offset=a,e=a,t._apply(a,i)===t._animations.length))return void t.pause(!0);t._id=window.requestAnimationFrame(u)};this._id=window.requestAnimationFrame(u)}},{key:"_pause",value:function(){this._id&&window.cancelAnimationFrame(this._id),this._running=!1}},{key:"play",value:function(){if(!this._running)return this._rollingBack?this._rollback(this.offset):this._start(this.offset)}},{key:"stop",value:function(){this._pause(),this.offset=0,this.rollbackStartOffset=0,this._rollingBack=!1,this._apply(0)}},{key:"reachedToEnd",value:function(){return this.iterations>0&&this.offset>=this.iterations*this.duration}},{key:"restart",value:function(){var t=arguments.length>0&&void 0!==arguments[0]&&arguments[0];this.stop(t),this.play(t)}},{key:"pause",value:function(){this._pause()}},{key:"reverse",value:function(){this.direction=-this.direction}}],[{key:"build",value:function(t,n){delete t.animationSettings,t.options=at(t.options,t.root,"5c7f360c"),t.animations.map((function(n){n.settings=at(n.s,t.root,"5c7f360c"),delete n.s,t.animationSettings||(t.animationSettings=n.settings)}));var e=t.version;if(!(t=rt(t,n)))return null;var r=t.options||{},i=new this(t.animations,t.animationSettings,e);return{el:t.svg,options:r,player:i}}},{key:"push",value:function(t){return this.build(t)}},{key:"init",value:function(){var t=this,n=window.__SVGATOR_PLAYER__&&window.__SVGATOR_PLAYER__["5c7f360c"];Array.isArray(n)&&n.splice(0).forEach((function(n){return t.build(n)}))}}]),t}();function ft(t){return d(t)+""}function ct(t){var n=arguments.length>1&&void 0!==arguments[1]?arguments[1]:" ";return t&&t.length?t.map(ft).join(n):""}function ht(t){if(!t)return"transparent";if(null==t.a||t.a>=1){var n=function(t){return 1===(t=parseInt(t).toString(16)).length?"0"+t:t},e=function(t){return t.charAt(0)===t.charAt(1)},r=n(t.r),i=n(t.g),u=n(t.b);return e(r)&&e(i)&&e(u)&&(r=r.charAt(0),i=i.charAt(0),u=u.charAt(0)),"#"+r+i+u}return"rgba("+t.r+","+t.g+","+t.b+","+t.a+")"}function vt(t){return t?"url(#"+t+")":"none"}!function(){for(var t=0,n=["ms","moz","webkit","o"],e=0;e<n.length&&!window.requestAnimationFrame;++e)window.requestAnimationFrame=window[n[e]+"RequestAnimationFrame"],window.cancelAnimationFrame=window[n[e]+"CancelAnimationFrame"]||window[n[e]+"CancelRequestAnimationFrame"];window.requestAnimationFrame||(window.requestAnimationFrame=function(n){var e=Date.now(),r=Math.max(0,16-(e-t)),i=window.setTimeout((function(){n(e+r)}),r);return t=e+r,i},window.cancelAnimationFrame=window.clearTimeout)}();var yt={f:null,i:function(t,n,e){return 0===t?n:1===t?e:{x:q(t,n.x,e.x),y:q(t,n.y,e.y)}},u:function(t,n){return function(e){var r=n(e);t.setAttribute("rx",ft(r.x)),t.setAttribute("ry",ft(r.y))}}},gt={f:null,i:function(t,n,e){return 0===t?n:1===t?e:{width:q(t,n.width,e.width),height:q(t,n.height,e.height)}},u:function(t,n){return function(e){var r=n(e);t.setAttribute("width",ft(r.width)),t.setAttribute("height",ft(r.height))}}};Object.freeze({M:2,L:2,Z:0,H:1,V:1,C:6,Q:4,T:2,S:4,A:7});var dt={},pt=null;function mt(t){var n=function(){if(pt)return pt;if("object"!==("undefined"==typeof document?"undefined":e(document))||!document.createElementNS)return{};var t=document.createElementNS("http://www.w3.org/2000/svg","svg");return t&&t.style?(t.style.position="absolute",t.style.opacity="0.01",t.style.zIndex="-9999",t.style.left="-9999px",t.style.width="1px",t.style.height="1px",pt={svg:t}):{}}().svg;if(!n)return function(t){return null};var r=document.createElementNS(n.namespaceURI,"path");r.setAttributeNS(null,"d",t),r.setAttributeNS(null,"fill","none"),r.setAttributeNS(null,"stroke","none"),n.appendChild(r);var i=r.getTotalLength();return function(t){var n=r.getPointAtLength(i*t);return{x:n.x,y:n.y}}}function bt(t){return dt[t]?dt[t]:dt[t]=mt(t)}function wt(t,n,e,r){if(!t||!r)return!1;var i=["M",t.x,t.y];if(n&&e&&(i.push("C"),i.push(n.x),i.push(n.y),i.push(e.x),i.push(e.y)),n?!e:e){var u=n||e;i.push("Q"),i.push(u.x),i.push(u.y)}return n||e||i.push("L"),i.push(r.x),i.push(r.y),i.join(" ")}function At(t,n,e,r){var i=arguments.length>4&&void 0!==arguments[4]?arguments[4]:1,u=wt(t,n,e,r),o=bt(u);try{return o(i)}catch(t){return null}}function _t(t,n,e){return t+(n-t)*e}function xt(t,n,e){var r=arguments.length>3&&void 0!==arguments[3]&&arguments[3],i={x:_t(t.x,n.x,e),y:_t(t.y,n.y,e)};return r&&(i.a=kt(t,n)),i}function kt(t,n){return Math.atan2(n.y-t.y,n.x-t.x)}function St(t,n,e,r){var i=1-r;return i*i*t+2*i*r*n+r*r*e}function Ot(t,n,e,r){return 2*(1-r)*(n-t)+2*r*(e-n)}function jt(t,n,e,r){var i=arguments.length>4&&void 0!==arguments[4]&&arguments[4],u=At(t,n,null,e,r);return u||(u={x:St(t.x,n.x,e.x,r),y:St(t.y,n.y,e.y,r)}),i&&(u.a=Et(t,n,e,r)),u}function Et(t,n,e,r){return Math.atan2(Ot(t.y,n.y,e.y,r),Ot(t.x,n.x,e.x,r))}function Mt(t,n,e,r,i){var u=i*i;return i*u*(r-t+3*(n-e))+3*u*(t+e-2*n)+3*i*(n-t)+t}function Pt(t,n,e,r,i){var u=1-i;return 3*(u*u*(n-t)+2*u*i*(e-n)+i*i*(r-e))}function It(t,n,e,r,i){var u=arguments.length>5&&void 0!==arguments[5]&&arguments[5],o=At(t,n,e,r,i);return o||(o={x:Mt(t.x,n.x,e.x,r.x,i),y:Mt(t.y,n.y,e.y,r.y,i)}),u&&(o.a=Rt(t,n,e,r,i)),o}function Rt(t,n,e,r,i){return Math.atan2(Pt(t.y,n.y,e.y,r.y,i),Pt(t.x,n.x,e.x,r.x,i))}function Ft(t,n,e){var r=arguments.length>3&&void 0!==arguments[3]&&arguments[3];if(Tt(n)){if(Bt(e))return jt(n,e.start,e,t,r)}else if(Tt(e)){if(qt(n))return jt(n,n.end,e,t,r)}else{if(qt(n))return Bt(e)?It(n,n.end,e.start,e,t,r):jt(n,n.end,e,t,r);if(Bt(e))return jt(n,e.start,e,t,r)}return xt(n,e,t,r)}function Nt(t,n,e){var r=Ft(t,n,e,!0);return r.a=function(t){return arguments.length>1&&void 0!==arguments[1]&&arguments[1]?t+Math.PI:t}(r.a)/m,r}function Tt(t){return!t.type||"corner"===t.type}function Bt(t){return null!=t.start&&!Tt(t)}function qt(t){return null!=t.end&&!Tt(t)}var Dt=new N;var Lt={f:ft,i:B},Ct={f:ft,i:D};function Vt(t,n,e){return t.map((function(t){return function(t,n,e){var r=t.v;if(!r||"g"!==r.t||r.s||!r.v||!r.r)return t;var i=e.getElementById(r.r),u=i&&i.querySelectorAll("stop")||[];return r.s=r.v.map((function(t,n){var e=u[n]&&u[n].getAttribute("offset");return{c:t,o:e=d(parseInt(e)/100)}})),delete r.v,t}(t,0,e)}))}var Gt={gt:"gradientTransform",c:{x:"cx",y:"cy"},rd:"r",f:{x:"x1",y:"y1"},to:{x:"x2",y:"y2"}};function zt(t,n,r,i,u,o,a,l){return Vt(t,0,l),n=function(t,n,e){for(var r,i,u,o=t.length-1,a={},l=0;l<=o;l++)(r=t[l]).e&&(r.e=n(r.e)),r.v&&"g"===(i=r.v).t&&i.r&&(u=e.getElementById(i.r))&&(a[i.r]={e:u,s:u.querySelectorAll("stop")});return a}(t,i,l),function(i){var u=r(i,t,Yt);if(!u)return"none";if("c"===u.t)return ht(u.v);if("g"===u.t){if(!n[u.r])return vt(u.r);var o=n[u.r];return function(t,n){for(var e=t.s,r=e.length;r<n.length;r++){var i=e[e.length-1].cloneNode();i.id=Qt(i.id),t.e.appendChild(i),e=t.s=t.e.querySelectorAll("stop")}for(var u=0,o=e.length,a=n.length-1;u<o;u++)e[u].setAttribute("stop-color",ht(n[Math.min(u,a)].c)),e[u].setAttribute("offset",n[Math.min(u,a)].o)}(o,u.s),Object.keys(Gt).forEach((function(t){if(void 0!==u[t])if("object"!==e(Gt[t])){var n,r="gt"===t?(n=u[t],Array.isArray(n)?"matrix("+n.join(" ")+")":""):u[t],i=Gt[t];o.e.setAttribute(i,r)}else Object.keys(Gt[t]).forEach((function(n){if(void 0!==u[t][n]){var e=u[t][n],r=Gt[t][n];o.e.setAttribute(r,e)}}))})),vt(u.r)}return"none"}}function Yt(t,e,r){if(0===t)return e;if(1===t)return r;if(e&&r){var i=e.t;if(i===r.t)switch(e.t){case"c":return{t:i,v:V(t,e.v,r.v)};case"g":if(e.r===r.r){var u={t:i,s:$t(t,e.s,r.s),r:e.r};return e.gt&&r.gt&&(u.gt=function(t,n,e){var r=n.length;if(r!==e.length)return T(t,n,e);for(var i=new Array(r),u=0;u<r;u++)i[u]=B(t,n[u],e[u]);return i}(t,e.gt,r.gt)),e.c?(u.c=L(t,e.c,r.c),u.rd=q(t,e.rd,r.rd)):e.f&&(u.f=L(t,e.f,r.f),u.to=L(t,e.to,r.to)),u}}if("c"===e.t&&"g"===r.t||"c"===r.t&&"g"===e.t){var o="c"===e.t?e:r,a="g"===e.t?n({},e):n({},r),l=a.s.map((function(t){return{c:o.v,o:t.o}}));return a.s="c"===e.t?$t(t,l,a.s):$t(t,a.s,l),a}}return T(t,e,r)}function $t(t,n,e){if(n.length===e.length)return n.map((function(n,r){return Ut(t,n,e[r])}));for(var r=Math.max(n.length,e.length),i=[],u=0;u<r;u++){var o=Ut(t,n[Math.min(u,n.length-1)],e[Math.min(u,e.length-1)]);i.push(o)}return i}function Ut(t,n,e){return{o:D(t,n.o,e.o||0),c:V(t,n.c,e.c||{})}}function Qt(t){return t.replace(/-fill-([0-9]+)$/,(function(t,n){return"-fill-"+(+n+1)}))}var Ht={fill:zt,"fill-opacity":Ct,stroke:zt,"stroke-opacity":Ct,"stroke-width":Lt,"stroke-dashoffset":{f:ft,i:B},"stroke-dasharray":{f:function(t){var n=arguments.length>1&&void 0!==arguments[1]?arguments[1]:" ";return t&&t.length>0&&(t=t.map((function(t){return d(t,4)}))),ct(t,n)},i:function(t,n,e){var r,i,u,o=n.length,a=e.length;if(o!==a)if(0===o)n=G(o=a,0);else if(0===a)a=o,e=G(o,0);else{var l=(u=(r=o)*(i=a)/function(t,n){for(var e;n;)e=n,n=t%n,t=e;return t||1}(r,i))<0?-u:u;n=z(n,Math.floor(l/o)),e=z(e,Math.floor(l/a)),o=a=l}for(var s=[],f=0;f<o;f++)s.push(d(q(t,n[f],e[f])));return s}},opacity:Ct,transform:function(t,n,r,i){if(!(t=function(t,n){if(!t||"object"!==e(t))return null;var r=!1;for(var i in t)t.hasOwnProperty(i)&&(t[i]&&t[i].length?(t[i].forEach((function(t){t.e&&(t.e=n(t.e))})),r=!0):delete t[i]);return r?t:null}(t,i)))return null;var u=function(e,i,u){var o=arguments.length>3&&void 0!==arguments[3]?arguments[3]:null;return t[e]?r(i,t[e],u):n&&n[e]?n[e]:o};return n&&n.a&&t.o?function(n){var e=r(n,t.o,Nt);return Dt.recomposeSelf(e,u("r",n,B,0)+e.a,u("k",n,L),u("s",n,L),u("t",n,L)).toString()}:function(t){return Dt.recomposeSelf(u("o",t,Ft,null),u("r",t,B,0),u("k",t,L),u("s",t,L),u("t",t,L)).toString()}},r:Lt,"#size":gt,"#radius":yt,_:function(t,n){if(Array.isArray(t))for(var e=0;e<t.length;e++)this[t[e]]=n;else this[t]=n}},Jt=function(t){!function(t,n){if("function"!=typeof n&&null!==n)throw new TypeError("Super expression must either be null or a function");t.prototype=Object.create(n&&n.prototype,{constructor:{value:t,writable:!0,configurable:!0}}),n&&l(t,n)}(o,t);var n,e,i=(n=o,e=s(),function(){var t,r=a(n);if(e){var i=a(this).constructor;t=Reflect.construct(r,arguments,i)}else t=r.apply(this,arguments);return c(this,t)});function o(){return r(this,o),i.apply(this,arguments)}return u(o,null,[{key:"build",value:function(t){var n=h(a(o),"build",this).call(this,t,Ht);if(!n)return null;n.el,n.options,function(t,n,e){t.play()}(n.player)}}]),o}(st);return Jt.init(),Jt}));
(function(s,i,o,w,d,a,b){w[o]=w[o]||{};w[o][s]=w[o][s]||[];w[o][s].push(i);})('5c7f360c',{"root":"e9NTIsgzqiC1","version":"2022-05-04","animations":[{"elements":{"e9NTIsgzqiC37":{"transform":{"data":{"o":{"x":494.7175,"y":436.543,"type":"corner"},"t":{"x":-494.717483,"y":-436.542999}},"keys":{"r":[{"t":0,"v":0},{"t":1000,"v":7},{"t":2800,"v":-7},{"t":4000,"v":0}]}}},"e9NTIsgzqiC43":{"opacity":[{"t":0,"v":0.3},{"t":2000,"v":1},{"t":4000,"v":0.3}]},"e9NTIsgzqiC70":{"transform":{"data":{"o":{"x":441.48851,"y":212.199288,"type":"corner"},"t":{"x":-441.48851,"y":-212.199287}},"keys":{"r":[{"t":0,"v":0},{"t":2000,"v":45},{"t":2100,"v":45},{"t":4000,"v":0}]}}},"e9NTIsgzqiC73":{"transform":{"data":{"o":{"x":455.545,"y":181.960251,"type":"corner"},"t":{"x":-455.544999,"y":-181.960243}},"keys":{"r":[{"t":0,"v":0},{"t":2000,"v":-10},{"t":4000,"v":0}]}}},"e9NTIsgzqiC114":{"transform":{"data":{"o":{"x":255.183,"y":219.689,"type":"corner"},"t":{"x":-255.182998,"y":-219.688994}},"keys":{"s":[{"t":0,"v":{"x":0,"y":1}},{"t":2000,"v":{"x":1,"y":1}},{"t":4000,"v":{"x":0,"y":1}}]}}},"e9NTIsgzqiC116":{"transform":{"data":{"o":{"x":309.497132,"y":372.12175,"type":"corner"},"t":{"x":-309.497131,"y":-372.12175}},"keys":{"s":[{"t":0,"v":{"x":0,"y":0}},{"t":2000,"v":{"x":1,"y":1}},{"t":4000,"v":{"x":0,"y":0}}]}}},"e9NTIsgzqiC119":{"transform":{"data":{"o":{"x":252.770128,"y":285.541,"type":"corner"},"t":{"x":-252.770126,"y":-285.541}},"keys":{"s":[{"t":0,"v":{"x":0,"y":1}},{"t":2000,"v":{"x":1,"y":1}},{"t":4000,"v":{"x":0,"y":1}}]}}},"e9NTIsgzqiC122":{"opacity":[{"t":0,"v":0},{"t":2000,"v":1},{"t":4000,"v":0.1}]},"e9NTIsgzqiC126":{"opacity":[{"t":0,"v":0.1},{"t":2000,"v":1},{"t":4000,"v":0.1}]},"e9NTIsgzqiC162":{"transform":{"data":{"o":{"x":208.318518,"y":257.653,"type":"corner"},"t":{"x":-208.318517,"y":-257.653}},"keys":{"r":[{"t":0,"v":0},{"t":2000,"v":-8},{"t":4000,"v":0}],"s":[{"t":0,"v":{"x":1,"y":1}},{"t":2000,"v":{"x":1.3,"y":1}},{"t":4000,"v":{"x":1,"y":1}}]}}}},"s":"MXDA1ZGIxNTg5YWFiSmJE4OTdKYWE5ZmE1SmES0NTg3MDZhNjY2NjY2NVDYyNTg5YTlmYTg5YTjk5YWE5ZmE1YTQ1ODHcwNjc2MlA1ODlmYWEA5YmE4OTdhYTlmYTVhFNGE5NTg3MDY2NjI1OADljUzlmYTJhMjU4NzFA2NzYyNTg5N2EyYWEH5YmE4YTQ5N2FhOWI1CODcwOWM5N2EyYTk5YKjYyNThSYTlhNjliOWMI5YTU4NzA2NzYyNTgF5Y2E2YTk1ODcwNjc2LNjY2YjM/"}],"options":"MKDAxMDg4TTJmODA4MTHZlN2Y4MTJmNDcyZjcE5N2M2ZTcxMmY4YQ|"},'__SVGATOR_PLAYER__',window,document)
]]></script>
</svg>
