<svg width="26" height="26" viewBox="0 0 26 26" fill="none" xmlns="http://www.w3.org/2000/svg">
<path d="M3 3.82386C3 3.07493 3.30115 2.35667 3.83719 1.82709C4.37324 1.29751 5.10027 1 5.85835 1H17.2918C18.0499 1 18.7769 1.29751 19.3129 1.82709C19.849 2.35667 20.1501 3.07493 20.1501 3.82386V17.778L16.5843 21.336L15.2495 19.9905C15.0535 19.7873 14.8186 19.6246 14.5584 19.5118C14.2982 19.3991 14.018 19.3386 13.7339 19.3338C13.4499 19.329 13.1677 19.3801 12.9038 19.484C12.6398 19.5879 12.3995 19.7426 12.1966 19.9391C11.9937 20.1356 11.8324 20.3699 11.722 20.6285C11.6117 20.8872 11.5544 21.1649 11.5536 21.4456C11.5529 21.7262 11.6085 22.0042 11.7175 22.2635C11.8264 22.5227 11.9864 22.7579 12.1882 22.9555L12.8184 23.5909H5.85835C5.10027 23.5909 4.37324 23.2934 3.83719 22.7638C3.30115 22.2342 3 21.516 3 20.767V3.82386ZM10.1459 11.5895C10.1459 11.7767 10.2212 11.9563 10.3552 12.0887C10.4892 12.2211 10.671 12.2954 10.8605 12.2954H16.5772C16.7667 12.2954 16.9485 12.2211 17.0825 12.0887C17.2165 11.9563 17.2918 11.7767 17.2918 11.5895C17.2918 11.4022 17.2165 11.2227 17.0825 11.0903C16.9485 10.9579 16.7667 10.8835 16.5772 10.8835H10.8605C10.671 10.8835 10.4892 10.9579 10.3552 11.0903C10.2212 11.2227 10.1459 11.4022 10.1459 11.5895ZM10.8605 5.23579C10.671 5.23579 10.4892 5.31017 10.3552 5.44256C10.2212 5.57496 10.1459 5.75452 10.1459 5.94176C10.1459 6.12899 10.2212 6.30856 10.3552 6.44095C10.4892 6.57334 10.671 6.64772 10.8605 6.64772H16.5772C16.7667 6.64772 16.9485 6.57334 17.0825 6.44095C17.2165 6.30856 17.2918 6.12899 17.2918 5.94176C17.2918 5.75452 17.2165 5.57496 17.0825 5.44256C16.9485 5.31017 16.7667 5.23579 16.5772 5.23579H10.8605ZM10.1459 17.2372C10.1459 17.4244 10.2212 17.604 10.3552 17.7364C10.4892 17.8688 10.671 17.9432 10.8605 17.9432H16.5772C16.7667 17.9432 16.9485 17.8688 17.0825 17.7364C17.2165 17.604 17.2918 17.4244 17.2918 17.2372C17.2918 17.05 17.2165 16.8704 17.0825 16.738C16.9485 16.6056 16.7667 16.5312 16.5772 16.5312H10.8605C10.671 16.5312 10.4892 16.6056 10.3552 16.738C10.2212 16.8704 10.1459 17.05 10.1459 17.2372ZM7.28753 13.0014C7.66657 13.0014 8.03009 12.8527 8.29811 12.5879C8.56613 12.3231 8.71671 11.9639 8.71671 11.5895C8.71671 11.215 8.56613 10.8559 8.29811 10.5911C8.03009 10.3263 7.66657 10.1775 7.28753 10.1775C6.90849 10.1775 6.54497 10.3263 6.27695 10.5911C6.00893 10.8559 5.85835 11.215 5.85835 11.5895C5.85835 11.9639 6.00893 12.3231 6.27695 12.5879C6.54497 12.8527 6.90849 13.0014 7.28753 13.0014ZM8.71671 5.94176C8.71671 5.56729 8.56613 5.20816 8.29811 4.94337C8.03009 4.67858 7.66657 4.52983 7.28753 4.52983C6.90849 4.52983 6.54497 4.67858 6.27695 4.94337C6.00893 5.20816 5.85835 5.56729 5.85835 5.94176C5.85835 6.31622 6.00893 6.67535 6.27695 6.94014C6.54497 7.20493 6.90849 7.35369 7.28753 7.35369C7.66657 7.35369 8.03009 7.20493 8.29811 6.94014C8.56613 6.67535 8.71671 6.31622 8.71671 5.94176ZM7.28753 18.6491C7.66657 18.6491 8.03009 18.5004 8.29811 18.2356C8.56613 17.9708 8.71671 17.6117 8.71671 17.2372C8.71671 16.8627 8.56613 16.5036 8.29811 16.2388C8.03009 15.974 7.66657 15.8253 7.28753 15.8253C6.90849 15.8253 6.54497 15.974 6.27695 16.2388C6.00893 16.5036 5.85835 16.8627 5.85835 17.2372C5.85835 17.6117 6.00893 17.9708 6.27695 18.2356C6.54497 18.5004 6.90849 18.6491 7.28753 18.6491Z" fill="white"/>
<path d="M22.8012 19.1461C22.9309 19.0124 23.0023 18.8338 22.9999 18.6486C22.9975 18.4635 22.9216 18.2866 22.7885 18.1563C22.6554 18.0259 22.4758 17.9524 22.2884 17.9516C22.1009 17.9508 21.9207 18.0228 21.7865 18.1521L16.58 23.348L14.229 20.9788C14.1637 20.9111 14.0854 20.8568 13.9987 20.8193C13.9119 20.7817 13.8185 20.7615 13.7238 20.7599C13.6291 20.7583 13.5351 20.7753 13.4471 20.81C13.3591 20.8446 13.279 20.8962 13.2114 20.9617C13.1438 21.0272 13.09 21.1053 13.0532 21.1915C13.0164 21.2777 12.9973 21.3703 12.9971 21.4638C12.9968 21.5574 13.0154 21.6501 13.0517 21.7365C13.088 21.8229 13.1413 21.9013 13.2086 21.9672L15.9655 24.7458C16.0451 24.8261 16.14 24.8898 16.2448 24.9335C16.3496 24.9771 16.4621 24.9997 16.5758 25C16.6896 25.0002 16.8022 24.9782 16.9072 24.935C17.0122 24.8919 17.1074 24.8285 17.1874 24.7487L22.8012 19.1461V19.1461Z" fill="white"/>
</svg>
