<svg width="24" height="25" viewBox="0 0 24 25" fill="none" xmlns="http://www.w3.org/2000/svg">
<g clip-path="url(#clip0_1_630)">
<path d="M2 2.82392C2 2.07499 2.30115 1.35673 2.83719 0.827151C3.37324 0.297574 4.10027 6.10352e-05 4.85835 6.10352e-05H16.2918C17.0499 6.10352e-05 17.7769 0.297574 18.3129 0.827151C18.849 1.35673 19.1501 2.07499 19.1501 2.82392V16.778L15.5843 20.3361L14.2495 18.9905C14.0535 18.7873 13.8186 18.6246 13.5584 18.5119C13.2982 18.3992 13.018 18.3386 12.7339 18.3339C12.4499 18.3291 12.1677 18.3801 11.9038 18.484C11.6398 18.5879 11.3995 18.7426 11.1966 18.9391C10.9937 19.1356 10.8324 19.37 10.722 19.6286C10.6117 19.8872 10.5544 20.1649 10.5536 20.4456C10.5529 20.7263 10.6085 21.0043 10.7175 21.2635C10.8264 21.5227 10.9864 21.758 11.1882 21.9556L11.8184 22.591H4.85835C4.10027 22.591 3.37324 22.2934 2.83719 21.7639C2.30115 21.2343 2 20.516 2 19.7671V2.82392ZM9.14589 10.5895C9.14589 10.7768 9.22117 10.9563 9.35518 11.0887C9.48919 11.2211 9.67095 11.2955 9.86047 11.2955H15.5772C15.7667 11.2955 15.9485 11.2211 16.0825 11.0887C16.2165 10.9563 16.2918 10.7768 16.2918 10.5895C16.2918 10.4023 16.2165 10.2227 16.0825 10.0903C15.9485 9.95795 15.7667 9.88358 15.5772 9.88358H9.86047C9.67095 9.88358 9.48919 9.95795 9.35518 10.0903C9.22117 10.2227 9.14589 10.4023 9.14589 10.5895ZM9.86047 4.23585C9.67095 4.23585 9.48919 4.31023 9.35518 4.44263C9.22117 4.57502 9.14589 4.75458 9.14589 4.94182C9.14589 5.12905 9.22117 5.30862 9.35518 5.44101C9.48919 5.57341 9.67095 5.64778 9.86047 5.64778H15.5772C15.7667 5.64778 15.9485 5.57341 16.0825 5.44101C16.2165 5.30862 16.2918 5.12905 16.2918 4.94182C16.2918 4.75458 16.2165 4.57502 16.0825 4.44263C15.9485 4.31023 15.7667 4.23585 15.5772 4.23585H9.86047ZM9.14589 16.2373C9.14589 16.4245 9.22117 16.6041 9.35518 16.7365C9.48919 16.8689 9.67095 16.9432 9.86047 16.9432H15.5772C15.7667 16.9432 15.9485 16.8689 16.0825 16.7365C16.2165 16.6041 16.2918 16.4245 16.2918 16.2373C16.2918 16.05 16.2165 15.8705 16.0825 15.7381C15.9485 15.6057 15.7667 15.5313 15.5772 15.5313H9.86047C9.67095 15.5313 9.48919 15.6057 9.35518 15.7381C9.22117 15.8705 9.14589 16.05 9.14589 16.2373ZM6.28753 12.0015C6.66657 12.0015 7.03009 11.8527 7.29811 11.5879C7.56613 11.3231 7.71671 10.964 7.71671 10.5895C7.71671 10.2151 7.56613 9.85594 7.29811 9.59116C7.03009 9.32637 6.66657 9.17761 6.28753 9.17761C5.90849 9.17761 5.54497 9.32637 5.27695 9.59116C5.00893 9.85594 4.85835 10.2151 4.85835 10.5895C4.85835 10.964 5.00893 11.3231 5.27695 11.5879C5.54497 11.8527 5.90849 12.0015 6.28753 12.0015ZM7.71671 4.94182C7.71671 4.56735 7.56613 4.20822 7.29811 3.94343C7.03009 3.67864 6.66657 3.52989 6.28753 3.52989C5.90849 3.52989 5.54497 3.67864 5.27695 3.94343C5.00893 4.20822 4.85835 4.56735 4.85835 4.94182C4.85835 5.31629 5.00893 5.67542 5.27695 5.9402C5.54497 6.20499 5.90849 6.35375 6.28753 6.35375C6.66657 6.35375 7.03009 6.20499 7.29811 5.9402C7.56613 5.67542 7.71671 5.31629 7.71671 4.94182ZM6.28753 17.6492C6.66657 17.6492 7.03009 17.5004 7.29811 17.2356C7.56613 16.9709 7.71671 16.6117 7.71671 16.2373C7.71671 15.8628 7.56613 15.5037 7.29811 15.2389C7.03009 14.9741 6.66657 14.8253 6.28753 14.8253C5.90849 14.8253 5.54497 14.9741 5.27695 15.2389C5.00893 15.5037 4.85835 15.8628 4.85835 16.2373C4.85835 16.6117 5.00893 16.9709 5.27695 17.2356C5.54497 17.5004 5.90849 17.6492 6.28753 17.6492Z" fill="white"/>
<path d="M21.8012 18.1462C21.9309 18.0125 22.0023 17.8338 21.9999 17.6487C21.9975 17.4635 21.9216 17.2867 21.7885 17.1563C21.6554 17.0259 21.4758 16.9524 21.2884 16.9517C21.1009 16.9509 20.9207 17.0229 20.7865 17.1522L15.58 22.3481L13.229 19.9789C13.1637 19.9111 13.0854 19.8569 12.9987 19.8193C12.9119 19.7817 12.8185 19.7616 12.7238 19.76C12.6291 19.7584 12.5351 19.7754 12.4471 19.81C12.3591 19.8447 12.279 19.8962 12.2114 19.9617C12.1438 20.0272 12.09 20.1053 12.0532 20.1916C12.0164 20.2778 11.9973 20.3703 11.9971 20.4639C11.9968 20.5574 12.0154 20.6501 12.0517 20.7365C12.088 20.8229 12.1413 20.9013 12.2086 20.9672L14.9655 23.7459C15.0451 23.8261 15.14 23.8899 15.2448 23.9335C15.3496 23.9772 15.4621 23.9998 15.5758 24C15.6896 24.0003 15.8022 23.9782 15.9072 23.9351C16.0122 23.8919 16.1074 23.8286 16.1874 23.7487L21.8012 18.1462Z" fill="white"/>
</g>
<defs>
<clipPath id="clip0_1_630">
<rect width="24" height="24" fill="white" transform="translate(0 0.440674)"/>
</clipPath>
</defs>
</svg>
